<svg width="1096" height="650" viewBox="0 0 1096 650" fill="none" xmlns="http://www.w3.org/2000/svg">
<g clip-path="url(#clip0_648_55)">
<path d="M958.43 636.818C964.831 613.402 985.677 534.803 999.837 455.196C1016.72 360.153 1031.49 229.243 963.932 174.322C896.375 119.402 807.686 184.89 761.238 163.777C714.789 142.663 712.685 37.0534 588.07 5.39459C463.455 -26.2643 393.815 83.5113 338.927 142.641C284.039 201.772 222.751 161.65 142.568 225.011C63.2173 287.671 130.512 571.417 189.192 636.818H958.43Z" fill="#006987"/>
<path d="M958.43 636.818C964.831 613.402 985.677 534.803 999.837 455.196C1016.72 360.154 1031.49 229.243 963.932 174.322C896.375 119.402 807.686 184.89 761.238 163.777C714.789 142.663 712.685 37.0534 588.07 5.39459C463.455 -26.2643 393.815 83.5113 338.927 142.641C284.039 201.772 222.751 161.65 142.568 225.011C63.2173 287.671 130.512 571.417 189.191 636.818H958.43Z" fill="#B3D4D9"/>
<path d="M868.975 491.481L859.002 642.145C858.946 642.911 858.604 643.628 858.043 644.152C857.483 644.677 856.744 644.97 855.977 644.973C855.573 644.974 855.173 644.893 854.802 644.735C854.43 644.577 854.094 644.346 853.814 644.055C853.533 643.765 853.314 643.42 853.17 643.043C853.026 642.666 852.959 642.264 852.974 641.86L857.073 491.481H868.975Z" fill="#263238" stroke="#263238" stroke-linecap="round" stroke-linejoin="round"/>
<path d="M894.49 491.481L904.464 642.145C904.514 642.909 904.851 643.626 905.409 644.151C905.966 644.676 906.701 644.97 907.467 644.973C907.872 644.974 908.272 644.893 908.645 644.735C909.018 644.578 909.355 644.347 909.637 644.057C909.92 643.766 910.14 643.422 910.287 643.045C910.434 642.668 910.504 642.265 910.492 641.86L906.349 491.568L894.49 491.481Z" fill="#263238" stroke="#263238" stroke-linecap="round" stroke-linejoin="round"/>
<path d="M794.491 491.481L804.465 642.145C804.515 642.909 804.852 643.626 805.41 644.151C805.967 644.676 806.702 644.97 807.468 644.973C807.873 644.974 808.273 644.893 808.646 644.735C809.019 644.578 809.356 644.347 809.638 644.057C809.92 643.766 810.141 643.422 810.288 643.045C810.435 642.668 810.505 642.265 810.493 641.86L806.328 491.568L794.491 491.481Z" fill="#263238" stroke="#263238" stroke-linecap="round" stroke-linejoin="round"/>
<path d="M753.742 491.481L743.768 642.145C743.713 642.911 743.371 643.628 742.81 644.152C742.249 644.677 741.511 644.97 740.743 644.973C740.34 644.971 739.94 644.888 739.569 644.729C739.197 644.57 738.861 644.34 738.58 644.05C738.298 643.76 738.077 643.418 737.929 643.042C737.781 642.666 737.71 642.264 737.718 641.86L741.883 491.568L753.742 491.481Z" fill="#263238" stroke="#263238" stroke-linecap="round" stroke-linejoin="round"/>
<path d="M927.501 339.588C927.501 339.588 827.984 335.861 819.567 335.861C811.15 335.861 809.199 339.588 809.199 339.588L794.995 439.761C794.995 439.761 750.826 427.154 742.168 428.799C733.509 430.443 746.442 493.3 746.442 493.3H796.42L797.318 489.529H910.162L940.127 346.758C938.308 340.224 927.501 339.588 927.501 339.588Z" fill="white" stroke="#263238" stroke-linecap="round" stroke-linejoin="round"/>
<path d="M889.623 402.248C889.623 402.248 899.751 468.022 888.133 475.695C886.335 476.879 876.581 482.492 867.462 481.571C860.141 480.825 808.41 481.571 808.41 481.571C808.41 481.571 801.22 467.89 799.773 457.805C798.327 447.72 809.637 404.441 809.637 404.441L889.623 402.248Z" fill="white" stroke="#263238" stroke-linecap="round" stroke-linejoin="round"/>
<path d="M804.903 437.481C804.903 437.481 730.024 445.264 726.495 447.369C722.966 449.474 706.767 463.615 709.551 472.801C712.335 481.987 705.32 482.689 711.743 484.114C718.165 485.539 809.199 485.517 809.199 485.517" fill="#006987"/>
<path d="M804.903 437.481C804.903 437.481 730.024 445.264 726.495 447.369C722.966 449.474 706.767 463.615 709.551 472.801C712.335 481.987 705.32 482.689 711.743 484.114C718.165 485.539 809.199 485.517 809.199 485.517" stroke="#263238" stroke-linecap="round" stroke-linejoin="round"/>
<path d="M736.797 493.191H914.722V479.905H736.797V493.191Z" fill="white" stroke="#263238" stroke-linecap="round" stroke-linejoin="round"/>
<path d="M872.702 440.309H765.513C765.513 440.309 759.879 446.667 759.156 460.041C758.433 473.415 759.88 476.287 769.765 479.773C779.651 483.259 867.463 481.483 867.463 481.483" fill="#006987"/>
<path d="M872.702 440.309H765.513C765.513 440.309 759.879 446.667 759.156 460.041C758.433 473.415 759.88 476.287 769.765 479.773C779.651 483.259 867.463 481.483 867.463 481.483" stroke="#263238" stroke-linecap="round" stroke-linejoin="round"/>
<path d="M788.244 610.443L777.021 583.848L758.63 587.334L772.702 611.056L764.592 627.302L747.056 638.769C747.056 638.769 745.017 640.786 753.785 640.106C762.553 639.427 780.747 640.106 780.747 640.106L792.211 626.623C792.211 626.623 796.376 619.76 788.244 610.443Z" fill="white" stroke="#263238" stroke-linecap="round" stroke-linejoin="round"/>
<path d="M793.154 622.062L793.614 639.449H790.874L787.214 630.766L793.154 622.062Z" fill="#263238" stroke="#263238" stroke-linecap="round" stroke-linejoin="round"/>
<path d="M780.768 640.194L792.233 626.71C792.233 626.71 795.192 621.69 791.115 614.455C782.96 628.399 772.11 632.586 772.11 632.586L760.799 629.868L747.077 638.857C747.077 638.857 745.039 640.874 753.807 640.194C762.575 639.514 780.768 640.194 780.768 640.194Z" fill="#263238" stroke="#263238" stroke-linecap="round" stroke-linejoin="round"/>
<path d="M744.163 474.928L781.755 588.606L755.079 593.341L702.471 474.95C702.471 474.95 698.24 457.279 709.529 451.644C720.818 446.009 754.027 443.159 754.027 443.159" fill="#006987"/>
<path d="M744.163 474.928L781.755 588.606L755.079 593.341L702.471 474.95C702.471 474.95 698.24 457.279 709.529 451.644C720.818 446.009 754.027 443.159 754.027 443.159" stroke="#263238" stroke-linecap="round" stroke-linejoin="round"/>
<path d="M864.745 493.169C864.745 493.169 851.79 430.224 860.471 428.667C869.151 427.111 913.298 439.629 913.298 439.629L927.502 339.588C927.502 339.588 942.495 337.22 944.074 350.551C945.652 363.881 914.723 493.169 914.723 493.169H864.745Z" fill="#263238" stroke="#263238" stroke-linecap="round" stroke-linejoin="round"/>
<path d="M712.203 307.842L705.518 296.88C704.873 295.83 703.966 294.966 702.886 294.374C701.806 293.781 700.59 293.481 699.358 293.503L693.067 293.613L682.304 290.39C681.621 290.19 680.893 290.199 680.214 290.413C679.535 290.628 678.935 291.04 678.49 291.596L678.096 292.1L688.004 296.485L678.118 300.124L667.618 294.797C667.204 294.585 666.729 294.525 666.276 294.63C665.822 294.734 665.421 294.995 665.141 295.367C664.822 295.78 664.68 296.303 664.746 296.82C664.812 297.338 665.08 297.809 665.492 298.129L680.178 309.464C680.639 309.822 681.17 310.078 681.737 310.214C682.304 310.35 682.894 310.363 683.466 310.253L699.709 306.987L704.246 311.942L712.203 307.842Z" fill="white" stroke="#263238" stroke-linecap="round" stroke-linejoin="round"/>
<path d="M825.442 285.347L765.228 348.336L707.753 301.878L699.818 307.644L763.058 379.315L817.879 349.783L825.442 285.347Z" fill="white" stroke="#263238" stroke-linecap="round" stroke-linejoin="round"/>
<path d="M915.533 301.44L947.098 398.455L919.873 399.245L892.802 353.708C892.802 353.708 908.014 307.776 915.533 301.44Z" fill="white" stroke="#263238" stroke-linecap="round" stroke-linejoin="round"/>
<path d="M881.185 284.777L915.533 301.549L886.774 381.99L890.172 404.419L809.638 404.55L819.239 368.419L812.663 345.267C811.809 342.262 811.764 339.086 812.531 336.059L825.42 285.457L859.265 280.02L881.185 284.777Z" fill="white" stroke="#263238" stroke-linecap="round" stroke-linejoin="round"/>
<path d="M879.541 280.064C879.541 280.064 886.292 284.624 886.511 288.68C886.621 291.07 886.511 295.257 886.292 298.458C886.171 300.959 885.6 303.418 884.604 305.715L872.439 320.404L858.366 309.289L846.683 315.252C846.683 315.252 844.49 297.34 849.598 284.843C854.705 272.346 876.932 276.928 879.541 280.064Z" fill="white" stroke="#263238" stroke-linecap="round" stroke-linejoin="round"/>
<path d="M889.208 245.313C889.208 245.313 886.446 255.245 885.152 261.822C883.859 268.4 881.251 281.554 881.492 286.487C881.733 291.42 860.975 312.424 858.366 309.289C855.758 306.154 853.018 287.934 853.018 287.934L855.604 258.468C855.604 258.468 882.653 228.497 889.208 245.313Z" fill="white" stroke="#263238" stroke-linecap="round" stroke-linejoin="round"/>
<path d="M845.827 229.966C845.827 229.966 842.123 236.083 842.123 238.736C842.123 241.389 843.416 246.585 843.197 248.098C842.978 249.611 839.295 254.675 838.813 256.385C838.571 257.081 838.59 257.841 838.869 258.524C839.147 259.206 839.665 259.763 840.325 260.09C841.22 260.549 842.091 261.054 842.934 261.603C842.934 261.603 844.03 275.109 845.783 278.595C847.537 282.081 849.049 283.615 854.266 284.054C859.483 284.492 871.912 279.033 873.644 274.67C875.375 270.307 875.616 265.089 875.836 258.775C876.055 252.461 871.693 243.428 868.427 234.812C865.161 226.195 851.482 221.46 845.827 229.966Z" fill="white" stroke="#263238" stroke-linecap="round" stroke-linejoin="round"/>
<path d="M902.052 274.561C911.289 274.561 918.777 267.071 918.777 257.832C918.777 248.593 911.289 241.104 902.052 241.104C892.815 241.104 885.327 248.593 885.327 257.832C885.327 267.071 892.815 274.561 902.052 274.561Z" fill="#263238" stroke="#263238" stroke-linecap="round" stroke-linejoin="round"/>
<path d="M845.74 229.024C845.74 229.024 852.47 223.214 864.57 234.768C876.669 246.322 872.066 263.028 880.155 266.492C888.243 269.956 903.214 252.636 904.946 243.998C906.678 235.36 901.483 217.447 885.328 213.983C869.173 210.519 849.379 212.887 845.74 229.024Z" fill="#263238" stroke="#263238" stroke-linecap="round" stroke-linejoin="round"/>
<path d="M845.74 229.024C845.597 227.665 845.765 226.291 846.232 225.007C846.699 223.724 847.452 222.563 848.435 221.614C849.418 220.665 850.604 219.952 851.903 219.531C853.202 219.109 854.58 218.989 855.933 219.179C866.893 219.771 868.033 237.07 873.798 243.998C879.563 250.926 882.456 249.764 882.456 249.764C882.456 249.764 872.658 252.636 866.301 249.172C859.944 245.708 856.875 226.173 845.74 229.024Z" fill="#263238" stroke="#263238" stroke-linecap="round" stroke-linejoin="round"/>
<path d="M863.648 217.162C869.415 220.725 873.993 225.922 876.8 232.093C881.776 242.639 881.776 251.343 893.591 250.729C893.591 250.729 888.001 251.978 879.299 247.615C870.597 243.252 868.734 230.843 863.144 225.866C860.095 222.98 856.15 221.224 851.965 220.89" stroke="white" stroke-width="0.5" stroke-linecap="round" stroke-linejoin="round"/>
<path d="M904.946 243.998C904.946 243.998 904.442 259.827 892.298 263.16" stroke="white" stroke-width="0.5" stroke-linecap="round" stroke-linejoin="round"/>
<path d="M871.058 260.156C871.058 260.156 882.631 245.006 885.349 256.319C888.068 267.632 878.773 270.395 874.389 269.101C870.005 267.808 870.619 265.462 870.619 265.462" fill="white"/>
<path d="M871.058 260.156C871.058 260.156 882.631 245.006 885.349 256.319C888.068 267.632 878.773 270.395 874.389 269.101C870.005 267.808 870.619 265.462 870.619 265.462" stroke="#263238" stroke-linecap="round" stroke-linejoin="round"/>
<path d="M845.302 389.795C845.302 389.795 823.206 392.865 819.524 392.865C815.841 392.865 806.635 404.528 806.635 404.528H847.143L845.302 389.795Z" fill="white" stroke="#263238" stroke-linecap="round" stroke-linejoin="round"/>
<path d="M939.163 374.93L947.098 392.821C947.454 393.874 947.555 394.996 947.395 396.096C947.235 397.196 946.818 398.243 946.177 399.151C945.536 400.059 944.69 400.803 943.707 401.322C942.724 401.841 941.633 402.121 940.522 402.139L844.731 402.687L845.345 389.795L919.61 378.044" fill="white"/>
<path d="M939.163 374.93L947.098 392.821C947.454 393.874 947.555 394.996 947.395 396.096C947.235 397.196 946.818 398.243 946.177 399.151C945.536 400.059 944.69 400.803 943.707 401.322C942.724 401.841 941.633 402.121 940.522 402.139L844.731 402.687L845.345 389.795L919.61 378.044" stroke="#263238" stroke-linecap="round" stroke-linejoin="round"/>
<path d="M810.953 622.062L811.413 639.449H808.673L805.013 630.766L810.953 622.062Z" fill="#263238" stroke="#263238" stroke-linecap="round" stroke-linejoin="round"/>
<path d="M806.043 610.443L802.514 585.142L784.145 586.326L790.502 611.232L782.391 627.478L764.855 638.944C764.855 638.944 762.839 640.961 771.607 640.282C780.375 639.602 798.568 640.282 798.568 640.282L810.033 626.798C810.033 626.798 814.175 619.76 806.043 610.443Z" fill="white" stroke="#263238" stroke-linecap="round" stroke-linejoin="round"/>
<path d="M798.568 640.194L810.033 626.71C810.033 626.71 812.992 621.69 808.893 614.455C800.738 628.399 789.888 632.586 789.888 632.586L778.599 629.868L764.855 638.857C764.855 638.857 762.839 640.874 771.607 640.194C780.375 639.514 798.568 640.194 798.568 640.194Z" fill="#263238" stroke="#263238" stroke-linecap="round" stroke-linejoin="round"/>
<path d="M797.626 455.349L805.495 589.79L780.572 590.382L756.241 468.241C756.241 468.241 756.702 444.979 764.132 442.304C771.563 439.629 791.291 442.502 791.291 442.502" fill="#006987"/>
<path d="M797.626 455.349L805.495 589.79L780.572 590.382L756.241 468.241C756.241 468.241 756.702 444.979 764.132 442.304C771.563 439.629 791.291 442.502 791.291 442.502" stroke="#263238" stroke-linecap="round" stroke-linejoin="round"/>
<path d="M688.683 165.969L719.612 252.68C719.612 252.68 715.535 272.302 703.26 271.491C690.985 270.68 687.719 253.491 684.453 251.036C681.186 248.58 676.276 229.769 676.276 229.769L688.683 165.969Z" fill="white" stroke="#263238" stroke-linecap="round" stroke-linejoin="round"/>
<path d="M608.675 148.583L558.391 166.736L577.68 306.197H668.407L688.683 165.969L634.409 148.978L608.675 148.583Z" fill="white" stroke="#263238" stroke-linecap="round" stroke-linejoin="round"/>
<path d="M613.519 172.48L620.774 183.421L614.483 276.205L623.733 300.366L633.225 276.863L625.092 184.802L631.624 168.995L622.571 157.09L613.519 172.48Z" fill="#006987" stroke="#263238" stroke-linecap="round" stroke-linejoin="round"/>
<path d="M623.559 167.964L610.604 177.677L602.077 152.354L608.017 139.528L634.519 138.892L640.985 144.702L639.692 177.019L623.559 167.964Z" fill="white" stroke="#263238" stroke-linecap="round" stroke-linejoin="round"/>
<path d="M637.258 132.951L635.241 149.241L620.73 167.964L609.88 148.978V118.437C609.88 118.437 628.885 123.194 637.258 132.951Z" fill="white" stroke="#263238" stroke-linecap="round" stroke-linejoin="round"/>
<path d="M602.427 99.0995C602.427 84.3005 613.212 72.3079 626.539 72.3079C639.866 72.3079 647.253 84.9583 647.253 99.7572C647.253 104.537 646.267 112.736 645.872 117.099C645.193 124.554 642.935 127.711 638.529 134.398C624.084 156.322 612.225 124.159 606.153 113.35C603.696 109.004 602.411 104.093 602.427 99.0995Z" fill="white" stroke="#263238" stroke-linecap="round" stroke-linejoin="round"/>
<path d="M637.017 103.747L639.056 119.029L631.888 118.831" fill="white"/>
<path d="M637.017 103.747L639.056 119.029L631.888 118.831" stroke="#263238" stroke-linecap="round" stroke-linejoin="round"/>
<path d="M653.018 101.095L618.56 101.248C618.137 102.588 618.072 104.016 618.372 105.39C618.672 106.763 619.326 108.033 620.27 109.075C622.462 111.268 631.383 110.5 632.808 109.93C634.233 109.36 635 103.09 635 103.09H637.565C637.565 103.09 637.85 109.667 641.532 110.215C645.215 110.763 650.015 110.588 650.936 109.93C655.013 107.19 653.018 101.095 653.018 101.095Z" fill="white" stroke="#263238" stroke-linecap="round" stroke-linejoin="round"/>
<path d="M606.679 115.828C606.679 115.828 614.439 131.723 616.28 137.226C618.122 142.729 627.24 147.026 636.469 143.957C645.697 140.887 643.198 127.229 643.198 127.229C643.198 127.229 633.4 118.853 631.581 120.651C629.761 122.449 619.941 130.451 619.327 128.61C618.714 126.768 614.439 115.762 614.439 115.762L612.444 107.957L616.543 105.326C617.135 104.833 617.52 104.136 617.622 103.372C617.723 102.609 617.534 101.835 617.091 101.204L615.163 98.4198C614.925 98.0788 614.757 97.6936 614.671 97.2869C614.584 96.8803 614.58 96.4604 614.658 96.052C615.163 93.6622 616.544 88.7073 619.744 87.2822C624.128 85.4625 629.454 88.1154 634.364 89.3431C639.275 90.5709 644.601 86.1422 644.601 86.1422L646.793 93.4211C651.653 88.8591 655.106 83.0012 656.745 76.5393C659.2 66.1252 634.101 61.8499 626.057 61.8499C618.012 61.8499 605.255 66.2348 601.572 77.767C597.89 89.2993 604.509 113.767 606.679 115.828Z" fill="#263238" stroke="#263238" stroke-linecap="round" stroke-linejoin="round"/>
<path d="M626.539 76.605C626.539 76.605 631.099 83.4455 625.115 84.8706C619.131 86.2956 607.469 81.1653 602.34 83.1604" stroke="white" stroke-width="0.5" stroke-linecap="round" stroke-linejoin="round"/>
<path d="M616.281 91.689C616.281 91.689 606.899 90.549 603.129 94.5392" stroke="white" stroke-width="0.5" stroke-linecap="round" stroke-linejoin="round"/>
<path d="M638.859 126.264C638.859 126.264 631.954 129.859 628.534 125.584" stroke="white" stroke-width="0.5" stroke-linecap="round" stroke-linejoin="round"/>
<path d="M607.842 110.983C607.842 110.983 601.068 103.528 601.068 111.662C601.068 119.796 603.107 119.796 607.162 122.624C611.217 125.453 612.598 121.945 612.598 121.945" fill="white"/>
<path d="M607.842 110.983C607.842 110.983 601.068 103.528 601.068 111.662C601.068 119.796 603.107 119.796 607.162 122.624C611.217 125.453 612.598 121.945 612.598 121.945" stroke="#263238" stroke-linecap="round" stroke-linejoin="round"/>
<path d="M698.284 616.362H698.591L697.999 613.38L668.407 306.219H577.68L547.847 616.34H548.175L567.421 617.985C567.421 617.985 588.771 546.292 588.771 540.942C588.771 535.593 594.865 486.131 594.865 486.131L625.137 379.688L651.901 486.131C651.901 486.131 657.995 535.702 657.995 540.942C657.995 546.182 679.367 618.028 679.367 618.028L697.473 616.472H698.284V616.362Z" fill="#263238" stroke="#263238" stroke-linecap="round" stroke-linejoin="round"/>
<path d="M661.634 324.285L641.445 353.116" stroke="white" stroke-width="0.5" stroke-linecap="round" stroke-linejoin="round"/>
<path d="M650.827 330.775L638.574 350.967" stroke="white" stroke-width="0.5" stroke-linecap="round" stroke-linejoin="round"/>
<path d="M593.177 329.35L611.173 348.797" stroke="white" stroke-width="0.5" stroke-linecap="round" stroke-linejoin="round"/>
<path d="M591.73 336.541L617.662 362.499" stroke="white" stroke-width="0.5" stroke-linecap="round" stroke-linejoin="round"/>
<path d="M583.071 309.157H663.079" stroke="white" stroke-width="0.5" stroke-linecap="round" stroke-linejoin="round"/>
<path d="M548.175 616.34C548.175 616.34 536.624 625.439 529.96 627.938C523.296 630.438 510.846 637.081 510.846 637.081C510.846 637.081 510.846 641.246 521.652 641.246H564.067L563.344 616.34H548.175Z" fill="#263238" stroke="#263238" stroke-linecap="round" stroke-linejoin="round"/>
<path d="M563.915 636.708C546.977 637.482 530.008 637.211 513.104 635.897L510.912 637.081C510.912 637.081 510.912 641.246 521.719 641.246H564.134L563.915 636.708Z" fill="white" stroke="#263238" stroke-linecap="round" stroke-linejoin="round"/>
<path d="M696.53 616.34C696.53 616.34 708.104 625.439 714.746 627.938C721.388 630.438 733.882 637.081 733.882 637.081C733.882 637.081 733.882 641.246 723.053 641.246H680.66L681.427 616.34H696.53Z" fill="#263238" stroke="#263238" stroke-linecap="round" stroke-linejoin="round"/>
<path d="M680.792 636.708C697.729 637.482 714.698 637.211 731.602 635.897L733.794 637.081C733.794 637.081 733.794 641.246 722.966 641.246H680.66L680.792 636.708Z" fill="white" stroke="#263238" stroke-linecap="round" stroke-linejoin="round"/>
<path d="M558.39 166.736L524.984 255.947H557.031L569 231.611L558.39 166.736Z" fill="white" stroke="#263238" stroke-linecap="round" stroke-linejoin="round"/>
<path d="M704.532 242.134C691.16 236.609 648.263 233.869 646.027 233.869C643.791 233.869 574.064 228.125 568.343 227.292C562.621 226.458 556.067 239.569 556.067 239.569L586.317 238.736L623.121 246.103C623.121 246.103 697.649 273.092 703.26 271.469C704.025 271.214 704.717 270.778 705.277 270.198" fill="white"/>
<path d="M704.532 242.134C691.16 236.609 648.263 233.869 646.027 233.869C643.791 233.869 574.064 228.125 568.343 227.292C562.621 226.458 556.067 239.569 556.067 239.569L586.317 238.736L623.121 246.103C623.121 246.103 697.649 273.092 703.26 271.469C704.025 271.214 704.717 270.778 705.277 270.198" stroke="#263238" stroke-linecap="round" stroke-linejoin="round"/>
<path d="M548.702 237.947L664.001 226.502L664.834 236.302L565.054 266.58C565.054 266.58 547.08 270.658 533.161 268.202C519.241 265.747 525.817 251.847 529.083 243.669" fill="white"/>
<path d="M548.702 237.947L664.001 226.502L664.834 236.302L565.054 266.58C565.054 266.58 547.08 270.658 533.161 268.202C519.241 265.747 525.817 251.847 529.083 243.669" stroke="#263238" stroke-linecap="round" stroke-linejoin="round"/>
<path d="M664.022 226.502L686.096 225.669L692.628 238.758L664.833 236.324L664.022 226.502Z" fill="white" stroke="#263238" stroke-linecap="round" stroke-linejoin="round"/>
<path d="M811.039 418.867L829.868 643.088C829.918 643.422 830.035 643.743 830.213 644.03C830.391 644.317 830.626 644.564 830.903 644.757C831.18 644.95 831.494 645.085 831.825 645.152C832.156 645.219 832.497 645.218 832.828 645.149C833.392 645.009 833.886 644.671 834.22 644.195C834.555 643.72 834.706 643.14 834.647 642.562L821.824 418.933L811.039 418.867Z" fill="#263238" stroke="#263238" stroke-linecap="round" stroke-linejoin="round"/>
<path d="M937.584 418.867L956.479 643.833C956.526 644.169 956.641 644.491 956.818 644.78C956.995 645.069 957.23 645.318 957.508 645.511C957.786 645.705 958.101 645.839 958.433 645.905C958.765 645.971 959.107 645.967 959.438 645.894C960.002 645.755 960.497 645.416 960.831 644.941C961.165 644.465 961.317 643.885 961.258 643.307L948.391 418.867H937.584Z" fill="#263238" stroke="#263238" stroke-linecap="round" stroke-linejoin="round"/>
<path d="M415.362 418.867L405.519 641.137C405.465 641.72 405.621 642.303 405.958 642.781C406.296 643.26 406.793 643.602 407.361 643.746C407.686 643.829 408.026 643.842 408.357 643.783C408.688 643.724 409.002 643.594 409.279 643.403C409.555 643.212 409.787 642.963 409.96 642.674C410.132 642.385 410.24 642.063 410.276 641.729L426.212 418.867H415.362Z" fill="#263238" stroke="#263238" stroke-linecap="round" stroke-linejoin="round"/>
<path d="M298.725 418.867L288.817 640.304C288.768 640.889 288.929 641.472 289.27 641.95C289.611 642.428 290.111 642.769 290.68 642.913C291.006 642.993 291.345 643.003 291.674 642.942C292.004 642.881 292.317 642.751 292.592 642.56C292.868 642.37 293.1 642.123 293.273 641.836C293.446 641.549 293.556 641.228 293.596 640.896L309.466 418.779L298.725 418.867Z" fill="#263238" stroke="#263238" stroke-linecap="round" stroke-linejoin="round"/>
<path d="M962.222 406.436H291.711V425.685H962.222V406.436Z" fill="#006987" stroke="#263238" stroke-linecap="round" stroke-linejoin="round"/>
<path d="M962.222 406.436H291.711V413.035H962.222V406.436Z" fill="#263238" stroke="#263238" stroke-linecap="round" stroke-linejoin="round"/>
<path d="M962.199 406.436H794.424V425.685H962.199V406.436Z" fill="#263238" stroke="#263238" stroke-linecap="round" stroke-linejoin="round"/>
<path d="M968.184 400.034H285.727V407.379H968.184V400.034Z" fill="#006987" stroke="#263238" stroke-linecap="round" stroke-linejoin="round"/>
<path d="M968.162 400.034H801.417V407.379H968.162V400.034Z" fill="#263238" stroke="#263238" stroke-linecap="round" stroke-linejoin="round"/>
<path d="M437.742 399.376H529.324C529.673 399.379 530.015 399.278 530.308 399.087C530.6 398.896 530.83 398.623 530.968 398.302L556.329 340.465C556.446 340.194 556.493 339.898 556.467 339.604C556.44 339.31 556.341 339.028 556.178 338.782C556.014 338.536 555.792 338.334 555.532 338.196C555.271 338.057 554.98 337.986 554.685 337.988H463.104C462.76 337.988 462.425 338.087 462.137 338.274C461.849 338.461 461.621 338.727 461.481 339.04L436.208 396.877C436.09 397.141 436.038 397.429 436.056 397.718C436.075 398.006 436.164 398.285 436.315 398.532C436.466 398.778 436.675 398.984 436.924 399.131C437.173 399.278 437.453 399.362 437.742 399.376Z" fill="white" stroke="#263238" stroke-linecap="round" stroke-linejoin="round"/>
<path d="M446.334 394.86H524.479C524.771 394.859 525.057 394.774 525.302 394.615C525.547 394.455 525.741 394.228 525.86 393.961L547.495 344.609C547.612 344.376 547.667 344.117 547.654 343.856C547.642 343.596 547.562 343.343 547.423 343.123C547.284 342.902 547.091 342.721 546.861 342.597C546.632 342.474 546.374 342.411 546.114 342.417H467.969C467.67 342.414 467.378 342.501 467.128 342.665C466.879 342.828 466.683 343.063 466.566 343.337L444.975 392.733C444.873 392.962 444.83 393.212 444.849 393.461C444.868 393.71 444.948 393.951 445.083 394.162C445.217 394.373 445.402 394.547 445.621 394.668C445.839 394.79 446.084 394.856 446.334 394.86Z" fill="#006987" stroke="#263238" stroke-linecap="round" stroke-linejoin="round"/>
<path d="M530.595 395.539H393.003V400.034H530.595V395.539Z" fill="white" stroke="#263238" stroke-linecap="round" stroke-linejoin="round"/>
<path d="M530.617 395.539H463.914V400.034H530.617V395.539Z" fill="white" stroke="#263238" stroke-linecap="round" stroke-linejoin="round"/>
<path d="M574.807 364.253H550.542V400.122H574.807V364.253Z" fill="white" stroke="#263238" stroke-linecap="round" stroke-linejoin="round"/>
<path d="M573.733 395.233H571.191C570.662 395.233 570.154 395.022 569.78 394.648C569.406 394.274 569.196 393.767 569.196 393.237C569.196 392.708 569.406 392.201 569.78 391.827C570.154 391.452 570.662 391.242 571.191 391.242H573.733C574.737 391.237 575.699 390.835 576.409 390.125C577.118 389.415 577.52 388.453 577.526 387.449V378.68C577.52 377.675 577.118 376.714 576.409 376.004C575.699 375.294 574.737 374.892 573.733 374.887H570.467C570.205 374.887 569.946 374.835 569.704 374.735C569.462 374.635 569.242 374.488 569.057 374.302C568.872 374.117 568.725 373.897 568.625 373.655C568.524 373.413 568.473 373.154 568.473 372.892C568.473 372.63 568.524 372.37 568.625 372.128C568.725 371.886 568.872 371.666 569.057 371.481C569.242 371.296 569.462 371.149 569.704 371.048C569.946 370.948 570.205 370.896 570.467 370.896H573.733C574.755 370.896 575.767 371.098 576.711 371.489C577.655 371.88 578.513 372.453 579.236 373.176C579.959 373.899 580.532 374.757 580.923 375.701C581.314 376.645 581.515 377.657 581.515 378.68V387.449C581.515 388.471 581.314 389.484 580.923 390.428C580.532 391.372 579.959 392.23 579.236 392.953C578.513 393.676 577.655 394.249 576.711 394.64C575.767 395.031 574.755 395.233 573.733 395.233Z" fill="white" stroke="#263238" stroke-linecap="round" stroke-linejoin="round"/>
<path d="M764.394 399.376H672.813C672.467 399.374 672.129 399.272 671.841 399.081C671.553 398.89 671.327 398.619 671.19 398.302L645.829 340.465C645.713 340.196 645.666 339.902 645.691 339.61C645.717 339.318 645.814 339.036 645.975 338.791C646.135 338.545 646.354 338.344 646.612 338.204C646.869 338.063 647.158 337.989 647.451 337.988H739.033C739.379 337.986 739.718 338.085 740.01 338.271C740.302 338.458 740.533 338.725 740.677 339.04L766.038 396.877C766.154 397.149 766.2 397.446 766.173 397.741C766.147 398.036 766.048 398.319 765.885 398.567C765.722 398.814 765.501 399.017 765.241 399.158C764.981 399.3 764.69 399.374 764.394 399.376Z" fill="white" stroke="#263238" stroke-linecap="round" stroke-linejoin="round"/>
<path d="M671.541 400.034H809.133V395.539H671.541V400.034Z" fill="white" stroke="#263238" stroke-linecap="round" stroke-linejoin="round"/>
<path d="M671.54 400.034H766.41V395.539H671.54V400.034Z" fill="white" stroke="#263238" stroke-linecap="round" stroke-linejoin="round"/>
<path d="M707.445 361.995C707.942 362.934 708.15 363.998 708.044 365.055C707.938 366.111 707.522 367.113 706.85 367.935C706.177 368.756 705.276 369.36 704.262 369.672C703.247 369.984 702.162 369.989 701.145 369.687C700.127 369.385 699.221 368.789 698.54 367.974C697.859 367.159 697.434 366.161 697.318 365.106C697.202 364.05 697.401 362.984 697.888 362.041C698.375 361.097 699.13 360.319 700.058 359.803C701.329 359.116 702.82 358.961 704.205 359.372C705.589 359.783 706.754 360.726 707.445 361.995Z" fill="white" stroke="#263238" stroke-linecap="round" stroke-linejoin="round"/>
<path d="M279.195 191.752L285.947 258.468L316.635 347.328L306.135 353.335L270.098 271.995L252.102 202.166C252.102 202.166 250.59 181.163 258.108 178.049C265.627 174.936 276.192 178.247 279.195 191.752Z" fill="white" stroke="#263238" stroke-linecap="round" stroke-linejoin="round"/>
<path d="M316.722 347.415C316.722 347.415 323.474 361.688 324.241 365.437C325.008 369.186 325.775 376.838 322.816 380.258C319.243 384.38 315.977 381.201 315.977 381.201C315.977 381.201 306.968 379.008 306.968 371.445C306.968 363.881 306.223 353.423 306.223 353.423L316.722 347.415Z" fill="white" stroke="#263238" stroke-linecap="round" stroke-linejoin="round"/>
<path d="M309.357 369.8L322.005 373.089" stroke="#263238" stroke-linecap="round" stroke-linejoin="round"/>
<path d="M312.382 361.272L315.977 366.928C315.977 366.928 307.603 381.245 312.097 377.496C316.591 373.747 324.986 369.186 324.241 365.437C322.971 361.503 321.296 357.712 319.243 354.124" fill="white"/>
<path d="M312.382 361.272L315.977 366.928C315.977 366.928 307.603 381.245 312.097 377.496C316.591 373.747 324.986 369.186 324.241 365.437C322.971 361.503 321.296 357.712 319.243 354.124" stroke="#263238" stroke-linecap="round" stroke-linejoin="round"/>
<path d="M243.313 111.574C243.313 111.574 235.597 103.243 217.798 108.593C199.999 113.942 195.878 142.444 196.426 156.673C196.974 170.902 210.674 186.951 206.531 194.076C202.388 201.201 186.935 217.82 188.118 235.732C189.302 253.645 204.142 267.786 225.514 261.252C246.886 254.719 243.313 228.563 239.06 219.004C234.808 209.445 243.817 205.345 246.776 184.561C249.735 163.776 230.753 146.566 230.753 131.723C230.753 116.88 246.097 119.27 246.097 119.27L243.313 111.574Z" fill="#263238" stroke="#263238" stroke-linecap="round" stroke-linejoin="round"/>
<path d="M216.57 167.92C219.375 173.708 222.642 179.891 225.886 186.556C236.714 208.656 228.253 216.636 211.791 228.87C195.329 241.104 199.099 256.144 203.33 258.468" stroke="white" stroke-width="0.5" stroke-linecap="round" stroke-linejoin="round"/>
<path d="M237.657 117.428C237.657 117.428 215.562 119.314 209.907 133.411C206.487 141.984 209.118 151.587 214.159 162.768" stroke="white" stroke-width="0.5" stroke-linecap="round" stroke-linejoin="round"/>
<path d="M221.502 252.965C223.202 253.604 225.015 253.887 226.829 253.798" stroke="white" stroke-width="0.5" stroke-linecap="round" stroke-linejoin="round"/>
<path d="M243.313 115.959C243.313 115.959 222.62 119.708 217.929 134.749C213.239 149.789 240.967 172.02 242.37 188.376C243.773 204.731 224.023 214.29 217.009 226.985C212.077 235.886 212.625 245.686 217.82 250.619" stroke="white" stroke-width="0.5" stroke-linecap="round" stroke-linejoin="round"/>
<path d="M296.402 418.67C296.402 418.67 291.295 462.782 286.166 476.857C281.036 490.933 269.55 601.541 268.915 607.943C268.279 614.345 285.53 629.034 292.566 633.529C299.603 638.023 296.402 639.273 288.73 639.909C281.058 640.545 272.115 639.273 268.279 632.235C264.443 625.198 255.478 623.29 255.478 623.29L254.206 638.637H251.642L249.735 619.453C249.083 615.098 249.747 610.647 251.642 606.672C254.842 599.634 256.026 584.923 256.026 565.015C256.026 545.108 252.19 513.208 254.097 497.861C256.004 482.514 263.698 471.003 263.698 458.221C263.698 445.439 264.333 426.256 264.333 426.256L296.402 418.67Z" fill="white" stroke="#263238" stroke-linecap="round" stroke-linejoin="round"/>
<path d="M249.735 619.453C249.226 616.154 249.504 612.781 250.546 609.609C254.514 616.318 265.89 625.417 274.658 629.034C279.412 631.093 284.595 631.966 289.761 631.578C290.791 632.345 291.756 633.003 292.567 633.529C299.603 637.914 296.403 639.273 288.731 639.909C281.059 640.545 272.115 639.273 268.279 632.235C264.443 625.198 255.478 623.29 255.478 623.29L254.207 638.637H251.642L249.735 619.453Z" fill="#263238" stroke="#263238" stroke-linecap="round" stroke-linejoin="round"/>
<path d="M259.314 425.707C259.314 425.707 248.354 458.309 238.227 486.438C228.1 514.567 203.703 579.156 201.138 590.667C198.574 602.177 197.302 623.29 190.178 634.165C183.054 645.039 176.106 650.148 177.377 630.964C178.648 611.78 190.178 597.704 192.721 582.993C195.264 568.282 196.557 515.225 205.5 491.568C214.444 467.912 224.045 448.728 225.228 441.69C226.103 434.687 226.527 427.635 226.5 420.577L259.314 425.707Z" fill="white" stroke="#263238" stroke-linecap="round" stroke-linejoin="round"/>
<path d="M178.692 622.742C178.786 626.359 179.912 629.873 181.936 632.871C185.619 636.993 191.559 628.991 194.65 624.101C193.638 627.628 192.164 631.004 190.266 634.143C183.229 644.995 176.193 650.126 177.464 630.942C177.676 628.183 178.086 625.442 178.692 622.742Z" fill="#263238" stroke="#263238" stroke-linecap="round" stroke-linejoin="round"/>
<path d="M254.272 168.359C254.272 168.359 250.436 171.56 247.872 193.309C245.307 215.058 261.309 282.826 261.309 282.826C261.309 282.826 233.821 327.859 227.42 350.244C221.02 372.628 217.184 456.489 217.184 456.489C217.184 456.489 230.621 461.62 258.108 463.527C285.596 465.434 300.304 458.419 300.304 458.419C300.304 458.419 301.576 338.733 301.576 320.295C301.576 301.856 302.869 259.915 304.776 254.807C306.683 249.698 312.448 236.259 312.448 231.15C312.448 226.042 274 171.56 274 171.56L254.272 168.359Z" fill="white" stroke="#263238" stroke-linecap="round" stroke-linejoin="round"/>
<path d="M227.355 350.244C232.396 332.704 253.264 286.049 260.717 278.025C272.05 281.796 292.72 285.523 301.949 282.76C301.664 289.338 301.51 313.893 301.51 320.185C301.51 338.733 300.239 458.309 300.239 458.309C300.239 458.309 285.53 465.347 258.043 463.417C230.555 461.488 217.118 456.38 217.118 456.38C217.118 456.38 220.954 372.628 227.355 350.244Z" fill="#263238" stroke="#263238" stroke-linecap="round" stroke-linejoin="round"/>
<path d="M268.455 92.9826C268.455 92.9826 275.316 78.0301 288.885 78.0301C302.453 78.0301 308.481 90.0885 305.478 100.634C302.475 111.18 314.509 108.176 316.021 114.973C317.534 121.769 306.223 126.264 300.195 126.264C294.167 126.264 268.455 92.9826 268.455 92.9826Z" fill="#263238" stroke="#263238" stroke-linecap="round" stroke-linejoin="round"/>
<path d="M288.271 91.4479C292.304 89.2554 297.039 87.6769 299.231 91.0971C303.461 97.6744 290.309 102.849 294.54 109.908C298.77 116.968 309.116 115.082 308.634 117.428C308.152 119.774 301.598 121.177 301.598 121.177" stroke="white" stroke-width="0.5" stroke-linecap="round" stroke-linejoin="round"/>
<path d="M281.365 96.2273C281.365 96.2273 282.659 95.1092 284.587 93.7499" stroke="white" stroke-width="0.5" stroke-linecap="round" stroke-linejoin="round"/>
<path d="M303.242 127.777C302.283 127.063 301.527 126.111 301.05 125.014C299.954 116.924 297.587 108.965 293.115 104.493C286.35 98.1235 277.723 94.0895 268.499 92.9825C265.767 92.5799 262.979 92.8354 260.367 93.728C248.727 97.8059 238.731 105.852 240.88 125.255C243.247 146.632 259.884 151.981 259.884 151.981L261.068 165.136L277.683 172.853L278.275 158.602C278.275 158.602 289.542 163.338 293.619 162.746C297.696 162.154 298.968 156.805 300.743 149.087C301.395 145.566 301.718 141.991 301.708 138.41L306.683 133.455C309.511 130.583 306.727 129.881 303.242 127.777Z" fill="white" stroke="#263238" stroke-linecap="round" stroke-linejoin="round"/>
<path d="M240.835 125.255C238.643 105.852 248.682 97.8059 260.322 93.728C262.935 92.8354 265.723 92.5799 268.454 92.9825C274.743 93.8235 280.797 95.9264 286.253 99.1652C282.921 98.4856 288.599 108.286 283.382 114.512C278.813 120.292 272.989 124.956 266.35 128.149C266.35 128.149 260.431 123.392 258.634 129.925C256.837 136.459 257.45 141.194 262.207 142.4C266.964 143.606 268.783 142.4 268.783 142.4C268.783 142.4 265.627 149.876 260.015 152.968V151.893C260.015 151.893 243.312 146.654 240.835 125.255Z" fill="#263238" stroke="#263238" stroke-linecap="round" stroke-linejoin="round"/>
<path d="M286.166 168.994L282.988 186.271L249.1 168.359L252.3 152.376L286.166 168.994Z" fill="white" stroke="#263238" stroke-linecap="round" stroke-linejoin="round"/>
<path d="M269.792 314.66C273.301 315.411 276.863 315.895 280.445 316.107C283.229 315.932 287.021 312.797 289.827 314.134C292.633 315.471 296.556 323.912 296.556 323.912C296.556 323.912 300.283 325.798 299.209 327.793C298.135 329.788 293.531 331.63 293.531 331.63C293.531 331.63 289.147 335.773 286.605 336.19C284.062 336.607 268.564 325.228 268.564 325.228L269.792 314.66Z" fill="white" stroke="#263238" stroke-linecap="round" stroke-linejoin="round"/>
<path d="M271.435 322.86C271.949 322.244 272.317 321.52 272.514 320.743C272.711 319.965 272.732 319.153 272.574 318.367C272.416 317.581 272.084 316.839 271.603 316.198C271.122 315.557 270.503 315.031 269.791 314.66L227.201 274.758L273.584 202.627C275.653 198.813 276.156 194.342 274.985 190.164C273.813 185.986 271.061 182.428 267.311 180.246C263.561 178.064 259.108 177.429 254.898 178.476C250.687 179.523 247.051 182.17 244.759 185.854L204.558 265.769C202.467 267.798 201.259 270.568 201.193 273.48C201.128 276.393 202.21 279.214 204.207 281.335L204.36 281.489C208.394 287.715 252.76 320.273 265.736 324.526C266.744 324.846 267.825 324.858 268.84 324.561C269.854 324.264 270.758 323.672 271.435 322.86Z" fill="white" stroke="#263238" stroke-linecap="round" stroke-linejoin="round"/>
<path d="M439.956 212.427C439.956 212.427 445.458 229.462 445.458 232.773C445.417 235.164 445.234 237.551 444.91 239.92L449.754 247.44C450.038 247.924 450.126 248.498 449.999 249.044C449.873 249.591 449.542 250.068 449.074 250.378L441.6 254.763C441.6 254.763 440.504 272.302 439.408 274.495C438.312 276.687 419.68 276.161 419.68 276.161L413.63 287.693L382.284 275.613L390.526 253.053L388.816 219.004C388.816 219.004 408.062 201.991 439.956 212.427Z" fill="white" stroke="#263238" stroke-linecap="round" stroke-linejoin="round"/>
<path d="M418.497 253.864C418.497 253.864 413.039 258.994 408.939 259.345C404.84 259.696 391.513 256.604 390.483 255.245C389.453 253.886 380.246 234.746 380.575 225.516C380.904 216.285 381.276 202.627 391.162 198.198C401.048 193.769 416.787 195.106 424.985 189.998C433.183 184.89 446.16 180.768 452.999 189.647C459.838 198.527 454.708 210.826 449.25 215.957C443.792 221.087 436.953 222.534 437.633 224.726C438.312 226.919 442.411 229.506 440.022 232.926C437.633 236.346 429.062 239.503 429.062 240.775C429.062 242.047 431.123 246.936 428.733 247.615C426.344 248.295 423.933 242.836 421.543 242.836C419.154 242.836 414.069 249.435 418.497 253.864Z" fill="#263238" stroke="#263238" stroke-linecap="round" stroke-linejoin="round"/>
<path d="M404.226 238.188C403.242 239.29 402.402 240.513 401.728 241.827" stroke="white" stroke-width="0.5" stroke-linecap="round" stroke-linejoin="round"/>
<path d="M449.119 202.78C448.685 206.543 447.314 210.137 445.131 213.232C442.948 216.327 440.023 218.824 436.624 220.495C427.856 225.033 416.173 228.739 408.413 234.439" stroke="white" stroke-width="0.5" stroke-linecap="round" stroke-linejoin="round"/>
<path d="M437.632 224.836C437.632 224.836 429.851 231.413 421.521 238.188C415.837 242.588 409.518 246.1 402.779 248.602" stroke="white" stroke-width="0.5" stroke-linecap="round" stroke-linejoin="round"/>
<path d="M417.949 254.785L422.333 255.881C422.068 257.931 422.224 260.013 422.794 262C423.363 263.987 424.333 265.837 425.643 267.435" fill="white"/>
<path d="M417.949 254.785L422.333 255.881C422.068 257.931 422.224 260.013 422.794 262C423.363 263.987 424.333 265.837 425.643 267.435" stroke="#263238" stroke-linecap="round" stroke-linejoin="round"/>
<path d="M423.034 243.011L453.985 235.338" stroke="#263238" stroke-linecap="round" stroke-linejoin="round"/>
<path d="M446.027 234.724L453.086 235.031C453.086 235.031 455.519 243.011 448.176 243.932" stroke="#263238" stroke-linecap="round" stroke-linejoin="round"/>
<path d="M414.814 613.775C414.814 613.775 443.31 631.775 448.33 631.775C453.35 631.775 455.849 636.291 453.35 636.796C450.851 637.3 435.332 637.782 424.854 638.287C414.376 638.791 407.318 637.782 401.334 637.782C395.349 637.782 388.313 638.287 385.31 636.796C382.307 635.305 387.327 618.27 387.327 615.266C387.327 612.262 411.307 611.758 414.814 613.775Z" fill="#263238" stroke="#263238" stroke-linecap="round" stroke-linejoin="round"/>
<path d="M451.552 632.52C440.483 636.16 422.53 633.77 411.745 632.784C403.219 632.016 389.826 631.841 384.367 631.797C384.148 634.362 384.367 636.313 385.222 636.796C388.225 638.287 395.24 637.782 401.246 637.782C407.252 637.782 414.244 638.791 424.766 638.287C435.288 637.782 450.785 637.278 453.262 636.796C455.213 636.401 454.292 633.814 451.552 632.52Z" fill="white" stroke="#263238" stroke-linecap="round" stroke-linejoin="round"/>
<path d="M437.326 490.121L414.836 602.922L419.527 614.63C416.16 619.506 411.081 622.934 405.301 624.233C398.873 625.497 392.343 626.172 385.792 626.25C385.792 626.25 383.293 613.731 384.806 612.218C386.318 610.706 386.8 604.72 386.8 604.72L399.799 491.108L437.326 490.121Z" fill="#006987" stroke="#263238" stroke-linecap="round" stroke-linejoin="round"/>
<path d="M505.869 609.96C505.869 609.96 523.405 624.474 531.406 626.974C539.407 629.473 547.912 631.972 547.912 634.472C547.912 636.971 528.907 639.47 514.396 637.98C499.885 636.489 477.856 629.977 472.858 629.977C467.86 629.977 468.847 616.954 468.847 614.959C468.847 612.964 493.375 596.937 505.869 609.96Z" fill="#263238" stroke="#263238" stroke-linecap="round" stroke-linejoin="round"/>
<path d="M548 634.472C548 633.573 546.882 632.674 545.106 631.775C530.783 633.692 516.262 633.588 501.968 631.468C487.566 629.407 475.51 626.645 469.351 625.11C469.877 627.807 470.907 629.977 472.945 629.977C477.943 629.977 499.973 636.555 514.484 637.98C528.995 639.405 548 636.971 548 634.472Z" fill="white" stroke="#263238" stroke-linecap="round" stroke-linejoin="round"/>
<path d="M418.826 439.564C433.83 438.415 448.911 438.753 463.849 440.572C489.364 443.576 546.378 447.149 547.365 453.595C548.351 460.041 503.13 595.512 503.13 598.998C503.13 602.484 507.119 606.014 508.128 608.009C508.764 609.431 509.107 610.967 509.136 612.525C509.136 612.525 496.883 625.68 487.37 629.254C477.856 632.827 469.834 629.473 467.861 629.473C465.888 629.473 465.866 615.967 467.378 609.456C468.891 602.944 471.368 586.435 471.872 584.944C472.376 583.454 499.776 487.118 499.776 487.118C499.776 487.118 425.248 499.132 380.729 494.112C336.209 489.091 331.694 482.119 329.195 471.595C326.696 461.071 331.694 440.068 331.694 440.068L418.826 439.564Z" fill="#006987" stroke="#263238" stroke-linecap="round" stroke-linejoin="round"/>
<path d="M413.192 471.99C412.181 473.453 411.052 474.832 409.816 476.112" stroke="#263238" stroke-linecap="round" stroke-linejoin="round"/>
<path d="M426.826 445.067C423.95 452.272 420.634 459.294 416.896 466.092" stroke="#263238" stroke-linecap="round" stroke-linejoin="round"/>
<path d="M420.864 450.087C414.826 460.049 405.685 467.752 394.845 472.012" stroke="#263238" stroke-linecap="round" stroke-linejoin="round"/>
<path d="M534.453 477.712C536.163 477.054 537.807 476.375 539.363 475.673L534.453 477.712Z" fill="white"/>
<path d="M534.453 477.712C536.163 477.054 537.807 476.375 539.363 475.673" stroke="#263238" stroke-linecap="round" stroke-linejoin="round"/>
<path d="M499.776 487.118C509.405 485.258 518.919 482.85 528.272 479.905L499.776 487.118Z" fill="white"/>
<path d="M499.776 487.118C509.405 485.258 518.919 482.85 528.272 479.905" stroke="#263238" stroke-linecap="round" stroke-linejoin="round"/>
<path d="M557.623 320.909C558.675 316.721 560.428 317.05 559.026 315.669C557.097 313.739 555.54 316.02 549.951 319.155C544.361 322.29 538.793 326.127 538.793 326.127C538.916 324.963 539.399 323.867 540.174 322.992C541.588 320.68 542.345 318.027 542.366 315.318C542.366 313.126 540.613 313.564 539.911 315.669C539.21 317.774 532.941 321.588 532.59 323.342C532.239 325.096 530.99 331.981 530.99 331.981C528.995 334.984 528.995 348.994 528.995 348.994L488.377 379.513L467.86 403.63C467.86 403.63 476.869 418.144 481.867 416.148C486.865 414.153 489.364 412.136 501.376 402.117C511.547 393.632 537.04 354.497 537.04 354.497C541.48 351.708 545.681 348.554 549.6 345.069C554.121 339.954 556.792 333.469 557.184 326.653C557.09 324.727 557.238 322.798 557.623 320.909Z" fill="white" stroke="#263238" stroke-linecap="round" stroke-linejoin="round"/>
<path d="M369.68 274.604C369.68 274.604 373.538 260.134 389.934 263.028C406.331 265.922 418.869 279.428 421.762 284.251C424.656 289.074 368.716 282.322 368.716 282.322L369.68 274.604Z" fill="white" stroke="#263238" stroke-linecap="round" stroke-linejoin="round"/>
<path d="M464.2 400.977C464.2 400.977 460.386 405.098 464.2 411.588C466.809 416.083 471.412 419.525 480.224 418.012C488.465 416.565 500.85 396.088 500.85 381.683C500.85 367.279 490.241 366.336 486.383 369.142C482.525 371.949 464.2 400.977 464.2 400.977Z" fill="white" stroke="#263238" stroke-linecap="round" stroke-linejoin="round"/>
<path d="M376.783 272.916C376.783 272.916 337.765 291.442 332.263 294.841C326.761 298.239 323.254 341.868 323.254 349.389C323.254 356.909 328.756 430.509 330.246 442.962C331.737 455.415 379.786 463.987 395.809 459.471C411.833 454.955 427.44 443.576 427.44 439.564C427.44 435.552 425.927 401.547 426.936 395.035C427.944 388.524 436.931 361.009 436.931 361.009L464.243 404.594C464.243 404.594 467.115 409.944 477.264 405.734C491.775 399.727 492.98 376.509 492.98 376.509C492.98 376.509 476.979 348.49 472.463 334.48C467.948 320.47 465.887 309.947 463.958 307.447C462.029 304.948 416.918 283.922 408.917 278.419C404.387 275.007 399.107 272.727 393.517 271.769C387.927 270.812 382.19 271.205 376.783 272.916Z" fill="white" stroke="#263238" stroke-linecap="round" stroke-linejoin="round"/>
<path d="M436.822 361.009L423.823 341.978" stroke="#263238" stroke-linecap="round" stroke-linejoin="round"/>
<path d="M434.717 358.29L411.811 346.999" stroke="#263238" stroke-linecap="round" stroke-linejoin="round"/>
<path d="M366.831 501.829L386.822 643.943C386.868 644.272 386.982 644.589 387.157 644.871C387.333 645.154 387.565 645.397 387.839 645.585C388.114 645.772 388.424 645.901 388.751 645.962C389.078 646.023 389.414 646.015 389.737 645.938C390.299 645.799 390.793 645.465 391.131 644.995C391.468 644.525 391.627 643.95 391.579 643.373L377.484 499.483L366.831 501.829Z" fill="#263238" stroke="#263238" stroke-linecap="round" stroke-linejoin="round"/>
<path d="M309.401 502.947L275.995 642.518C275.918 642.842 275.91 643.178 275.971 643.505C276.032 643.831 276.16 644.142 276.348 644.417C276.536 644.691 276.779 644.923 277.061 645.098C277.344 645.274 277.66 645.388 277.989 645.434C278.561 645.519 279.144 645.392 279.628 645.077C280.113 644.762 280.466 644.281 280.62 643.724L319.418 508.275L309.401 502.947Z" fill="#263238" stroke="#263238" stroke-linecap="round" stroke-linejoin="round"/>
<path d="M370.075 501.215L348.813 643.132C348.764 643.459 348.782 643.793 348.868 644.112C348.953 644.432 349.103 644.73 349.309 644.99C349.514 645.249 349.771 645.463 350.063 645.618C350.355 645.774 350.675 645.868 351.005 645.894C351.581 645.926 352.149 645.748 352.605 645.394C353.06 645.039 353.372 644.531 353.482 643.965L380.465 505.666L370.075 501.215Z" fill="#263238" stroke="#263238" stroke-linecap="round" stroke-linejoin="round"/>
<path d="M445.349 501.829L465.34 643.943C465.386 644.272 465.5 644.589 465.675 644.871C465.85 645.154 466.082 645.397 466.357 645.585C466.631 645.772 466.942 645.901 467.269 645.962C467.595 646.023 467.931 646.015 468.255 645.938C468.817 645.799 469.311 645.465 469.648 644.995C469.986 644.525 470.144 643.95 470.096 643.373L455.936 499.439L445.349 501.829Z" fill="#263238" stroke="#263238" stroke-linecap="round" stroke-linejoin="round"/>
<path d="M277.77 354.343L302.101 512.572H475.137C475.137 512.572 477.702 466.969 470.074 450.855C462.446 434.74 368.255 469.293 364.858 468.394C362.337 467.758 366.063 386.068 370.689 354.146C371.012 351.899 370.849 349.609 370.21 347.43C369.571 345.252 368.471 343.236 366.984 341.521C365.497 339.805 363.659 338.429 361.594 337.487C359.529 336.544 357.286 336.057 355.016 336.059H293.421C291.133 336.056 288.873 336.55 286.794 337.505C284.716 338.461 282.87 339.856 281.382 341.593C279.895 343.331 278.801 345.371 278.178 347.572C277.554 349.773 277.415 352.083 277.77 354.343Z" fill="#006987" stroke="#263238" stroke-linecap="round" stroke-linejoin="round"/>
<path d="M470.074 450.855C462.445 434.74 368.255 469.293 364.858 468.394C362.337 467.758 366.063 386.068 370.688 354.146C371.093 351.928 371.003 349.647 370.426 347.467C369.849 345.287 368.799 343.261 367.35 341.533C365.902 339.805 364.09 338.418 362.045 337.47C359.999 336.522 357.77 336.036 355.515 336.048C353.26 336.059 351.036 336.567 349 337.536C346.964 338.505 345.167 339.911 343.736 341.654C342.305 343.396 341.275 345.433 340.721 347.618C340.166 349.804 340.1 352.085 340.526 354.3L364.858 512.528H475.137C475.137 512.528 477.702 466.969 470.074 450.855Z" fill="#263238" stroke="#263238" stroke-linecap="round" stroke-linejoin="round"/>
<path d="M557.623 320.909C557.623 320.909 554.839 323.693 550.652 328.582L557.623 320.909Z" fill="white"/>
<path d="M557.623 320.909C557.623 320.909 554.839 323.693 550.652 328.582" stroke="#263238" stroke-linecap="round" stroke-linejoin="round"/>
<path d="M557.184 326.565C557.184 326.565 553.787 333.471 551.704 336.607L557.184 326.565Z" fill="white"/>
<path d="M557.184 326.565C557.184 326.565 553.787 333.471 551.704 336.607" stroke="#263238" stroke-linecap="round" stroke-linejoin="round"/>
<path d="M88.4689 406.546C92.1076 408.124 100.985 407.927 101.007 407.927C101.029 407.927 99.1001 402.117 98.9247 401.766C96.9739 397.666 90.7924 390.935 85.7727 391.615C84.9418 391.75 84.1488 392.06 83.4455 392.523C82.7422 392.986 82.1445 393.592 81.6914 394.301C81.2383 395.011 80.9401 395.809 80.8161 396.641C80.6922 397.474 80.7454 398.324 80.9723 399.135C81.8052 402.599 85.3563 405.186 88.4689 406.546Z" fill="#263238"/>
<path d="M204.974 376.268C199.932 375.72 194.014 382.626 192.107 386.77C191.953 387.12 190.112 392.996 190.2 392.996C189.235 394.07 188.227 395.189 187.153 396.548C185.18 398.96 182.988 401.722 180.774 404.879C178.389 408.263 176.194 411.776 174.198 415.403C171.948 419.47 170.056 423.725 168.543 428.119C168.552 428.17 168.552 428.222 168.543 428.273C168.543 426.804 168.543 422.638 168.543 422.331C167.951 417.837 164.159 409.505 159.205 408.584C158.379 408.451 157.535 408.492 156.727 408.705C155.918 408.918 155.164 409.298 154.511 409.821C153.858 410.344 153.323 410.997 152.938 411.74C152.553 412.482 152.328 413.297 152.278 414.131C151.971 417.705 154.47 421.279 157.078 423.515C159.928 426.058 167.819 428.514 168.455 428.711C167.022 433.268 165.908 437.92 165.123 442.633C164.619 445.352 164.224 448.092 163.852 450.855C163.852 449.561 163.852 448.421 163.852 448.268C163.282 443.773 159.468 435.442 154.536 434.521C153.704 434.391 152.854 434.437 152.041 434.657C151.229 434.876 150.471 435.264 149.818 435.796C149.165 436.327 148.631 436.99 148.25 437.741C147.869 438.492 147.651 439.315 147.609 440.156C147.324 443.729 149.801 447.303 152.431 449.561C155.062 451.819 161.66 454.078 163.391 454.626C163.26 455.7 163.106 456.818 162.975 457.805C162.383 462.891 161.791 467.978 161.068 472.933C160.805 474.687 160.498 476.397 160.191 478.107C160.191 476.967 160.191 476.024 160.191 475.914C159.599 471.42 155.807 463.089 150.853 462.168C150.021 462.041 149.172 462.09 148.36 462.313C147.549 462.535 146.793 462.926 146.142 463.459C145.491 463.992 144.959 464.656 144.581 465.408C144.204 466.16 143.988 466.983 143.948 467.824C143.663 471.376 146.14 474.95 148.771 477.208C152.044 479.372 155.629 481.021 159.402 482.097C159.029 483.851 158.657 485.583 158.218 487.271C157.889 488.411 157.67 489.464 157.276 490.647C156.881 491.831 156.552 492.84 156.202 493.98C155.434 496.063 154.667 498.233 153.878 500.25C153.33 501.675 152.782 503.013 152.256 504.35C152.519 502.618 152.979 499.198 153.001 498.913C152.939 494.929 151.86 491.027 149.867 487.578C149.921 487.141 149.921 486.699 149.867 486.263C149.767 485.419 149.489 484.606 149.052 483.877C148.614 483.149 148.026 482.523 147.327 482.04C146.628 481.556 145.834 481.227 144.999 481.075C144.163 480.922 143.304 480.949 142.48 481.154C137.57 482.448 134.479 491.042 134.238 495.559C134.238 495.822 134.413 498.738 134.545 500.579C134.304 499.505 134.062 498.387 133.799 497.378C133.295 495.186 132.703 492.993 132.112 490.801C131.761 489.683 131.432 488.609 131.081 487.447C130.731 486.285 130.292 485.254 129.898 484.026C128.933 481.373 127.837 478.743 126.653 476.112C128.539 475.651 135.246 473.919 137.942 471.88C140.638 469.841 143.466 466.443 143.444 462.869C143.47 462.018 143.314 461.171 142.987 460.385C142.66 459.599 142.168 458.892 141.546 458.311C140.923 457.729 140.184 457.288 139.378 457.015C138.571 456.743 137.715 456.646 136.868 456.73C131.827 457.279 127.443 465.303 126.544 469.732C126.544 470.017 126.171 473.261 126.04 475.059C125.338 473.481 124.615 471.902 123.848 470.324C121.656 465.807 119.157 461.269 116.768 456.752L114.576 452.587C115.255 452.433 123.344 450.592 126.281 448.202C129.218 445.812 131.805 442.787 131.783 439.191C131.805 438.341 131.647 437.495 131.318 436.711C130.99 435.926 130.498 435.221 129.877 434.64C129.255 434.06 128.517 433.618 127.712 433.345C126.907 433.071 126.053 432.971 125.207 433.052C120.165 433.6 115.803 441.625 114.882 446.053C114.882 446.404 114.378 451.074 114.334 452.28C112.756 449.232 111.2 446.163 109.797 443.093C107.871 438.944 106.216 434.675 104.843 430.312C105.15 430.312 113.611 428.338 116.636 425.927C119.31 423.866 122.16 420.489 122.116 416.916C122.142 416.064 121.986 415.218 121.659 414.431C121.331 413.645 120.84 412.938 120.218 412.357C119.595 411.776 118.856 411.334 118.049 411.062C117.243 410.789 116.387 410.692 115.54 410.777C110.498 411.325 106.136 419.349 105.216 423.778C105.216 424.129 104.69 429.171 104.668 430.092C104.668 429.829 104.492 429.588 104.405 429.325C103.159 424.914 102.301 420.402 101.84 415.841C101.577 413.32 101.445 410.908 101.358 408.541C102.958 408.343 110.126 407.379 113.26 405.559C116.395 403.739 119.354 400.757 119.836 397.206C119.95 396.371 119.888 395.523 119.653 394.714C119.418 393.906 119.015 393.155 118.472 392.513C117.928 391.87 117.255 391.348 116.497 390.982C115.739 390.616 114.913 390.413 114.071 390.387C108.986 390.387 103.769 397.885 102.366 402.182C102.366 402.424 101.796 404.879 101.445 406.677C101.445 405.625 101.445 404.485 101.445 403.498C101.445 399.661 101.687 396.153 101.928 393.062C102.081 391.286 102.256 389.686 102.432 388.195C103.9 387.186 109.753 383.064 111.551 380.105C113.348 377.145 114.751 373.045 113.436 369.712C113.153 368.921 112.707 368.198 112.127 367.59C111.547 366.983 110.845 366.504 110.068 366.185C109.29 365.867 108.454 365.716 107.615 365.742C106.775 365.768 105.95 365.97 105.194 366.336C100.678 368.66 99.4946 377.715 100.24 382.187C100.24 382.56 102.015 388.48 102.081 388.436C101.884 389.861 101.687 391.396 101.511 393.084C101.204 396.197 100.897 399.661 100.788 403.564C100.656 407.703 100.758 411.846 101.095 415.973C101.418 420.604 102.151 425.197 103.287 429.698C103.296 429.748 103.296 429.8 103.287 429.851C102.498 428.601 100.152 425.181 99.933 424.94C96.9738 421.52 89.236 416.631 84.589 418.626C83.8228 418.973 83.1384 419.479 82.5806 420.108C82.0228 420.738 81.6041 421.479 81.3517 422.282C81.0994 423.084 81.0191 423.931 81.1161 424.767C81.2131 425.603 81.4852 426.409 81.9147 427.132C83.6464 430.268 87.7674 431.824 91.1211 432.307C94.8914 432.855 102.826 430.553 103.462 430.377C104.766 434.922 106.37 439.375 108.263 443.707C109.359 446.229 110.455 448.75 111.748 451.249C111.024 450.175 110.367 449.232 110.279 449.057C107.32 445.637 99.5822 440.748 94.9352 442.743C94.1819 443.127 93.5185 443.666 92.9887 444.325C92.4589 444.984 92.0747 445.747 91.8613 446.566C91.648 447.384 91.6105 448.238 91.7511 449.072C91.8918 449.905 92.2075 450.7 92.6774 451.403C94.3872 454.538 98.5301 456.095 101.862 456.577C105.194 457.059 112.055 455.261 113.852 454.735C114.334 455.7 114.795 456.665 115.277 457.607C117.469 462.19 119.902 466.75 122.028 471.288C122.774 472.889 123.453 474.489 124.22 476.09L122.927 474.248C119.968 470.828 112.23 465.961 107.583 467.934C106.818 468.286 106.136 468.795 105.58 469.427C105.024 470.06 104.608 470.803 104.358 471.607C104.108 472.411 104.029 473.259 104.128 474.096C104.227 474.932 104.5 475.739 104.931 476.462C106.662 479.598 110.783 481.154 114.115 481.637C118.076 481.653 122.017 481.061 125.799 479.883C126.456 481.549 127.114 483.215 127.662 484.838C128.034 485.978 128.451 487.03 128.736 488.192C129.021 489.354 129.372 490.384 129.678 491.568C130.204 493.761 130.752 495.953 131.213 498.146C131.542 499.615 131.827 501.04 132.112 502.531C131.366 500.93 129.92 497.817 129.722 497.576C127.311 493.739 120.406 487.753 115.496 489.003C114.688 489.236 113.938 489.637 113.295 490.179C112.651 490.72 112.129 491.391 111.761 492.147C111.393 492.904 111.188 493.729 111.16 494.57C111.131 495.41 111.279 496.248 111.594 497.028C112.822 500.382 116.658 502.552 119.88 503.605C123.453 504.679 131.322 503.605 132.309 503.605C132.791 505.951 133.208 508.253 133.602 510.423C134.917 517.943 135.794 524.28 136.254 528.686C136.254 529.476 136.43 530.177 136.496 530.879H121.152L126.719 639.558H152.716L158.284 530.879H144.058L144.387 530.243C146.338 526.165 149.034 520.333 151.949 513.186C152.892 510.993 153.834 508.516 154.777 506.017C155.741 506.214 163.545 507.792 167.162 506.959C170.472 506.214 174.461 504.35 175.93 501.105C176.304 500.351 176.516 499.526 176.55 498.685C176.584 497.843 176.44 497.004 176.128 496.221C175.816 495.439 175.342 494.732 174.737 494.145C174.132 493.559 173.411 493.106 172.62 492.818C167.819 491.196 160.498 496.655 157.802 500.294C157.648 500.513 156.18 503.035 155.281 504.679L156.443 501.61C157.21 499.527 157.911 497.4 158.635 495.142L159.621 491.788C159.994 490.669 160.235 489.464 160.542 488.28C161.177 485.539 161.704 482.733 162.186 479.883C164.005 480.54 170.559 482.821 173.935 482.579C177.311 482.338 181.541 481.11 183.492 478.194C183.987 477.502 184.328 476.713 184.495 475.879C184.662 475.044 184.649 474.184 184.459 473.355C184.268 472.526 183.903 471.747 183.389 471.069C182.875 470.392 182.223 469.831 181.475 469.425C177.091 467.232 168.893 471.398 165.693 474.577C165.496 474.796 163.501 477.339 162.361 478.765C162.624 477.054 162.887 475.344 163.106 473.59C163.742 468.57 164.202 463.461 164.707 458.375C164.86 456.818 165.035 455.261 165.189 453.705C165.846 453.946 173.562 456.818 177.354 456.555C180.708 456.314 184.939 455.086 186.89 452.17C187.384 451.478 187.726 450.689 187.893 449.854C188.059 449.02 188.047 448.16 187.856 447.331C187.666 446.502 187.301 445.723 186.787 445.045C186.272 444.368 185.62 443.807 184.873 443.4C180.489 441.098 172.313 445.374 169.091 448.553C168.849 448.794 165.912 452.477 165.211 453.442C165.583 450.022 165.978 446.623 166.504 443.269C167.179 438.751 168.153 434.284 169.419 429.895C169.726 429.895 177.749 433.03 181.651 432.767C185.004 432.526 189.235 431.276 191.186 428.382C191.684 427.691 192.029 426.902 192.197 426.067C192.366 425.232 192.354 424.371 192.164 423.54C191.973 422.71 191.607 421.93 191.09 421.253C190.574 420.576 189.919 420.016 189.169 419.612C184.785 417.288 176.609 421.564 173.387 424.765C173.146 425.006 169.989 428.974 169.463 429.72L169.66 428.952C171.052 424.58 172.827 420.34 174.965 416.28C176.127 414.088 177.354 411.895 178.582 409.922C180.029 410.645 186.648 413.868 190.156 414C193.663 414.131 197.872 413.364 200.151 410.602C200.693 409.972 201.098 409.236 201.34 408.441C201.582 407.646 201.655 406.81 201.556 405.985C201.457 405.16 201.188 404.365 200.765 403.65C200.342 402.935 199.774 402.316 199.099 401.832C194.868 399.025 186.385 402.38 182.856 405.208C182.659 405.362 180.862 407.137 179.59 408.453C180.16 407.554 180.73 406.611 181.3 405.778C183.492 402.577 185.552 399.793 187.481 397.315C188.577 395.934 189.673 394.706 190.572 393.566C192.348 393.566 199.516 393.303 202.65 391.834C205.785 390.365 209.226 387.712 209.949 384.226C210.253 383.376 210.359 382.468 210.262 381.57C210.164 380.673 209.865 379.809 209.387 379.043C208.908 378.278 208.262 377.63 207.498 377.15C206.734 376.669 205.871 376.368 204.974 376.268ZM149.187 511.651C146.14 518.667 143.335 524.389 141.34 528.358L140.222 530.55H139.893C139.893 529.783 139.674 528.928 139.542 527.985C138.929 523.6 137.964 517.154 136.452 509.59C135.991 507.2 135.443 504.657 134.852 502.048C137.221 501.092 139.533 500.001 141.778 498.781C144.828 501.429 148.228 503.642 151.883 505.359C150.985 507.485 150.064 509.634 149.187 511.651Z" fill="#263238"/>
<path d="M178.429 408.497C178.429 408.497 180.051 402.599 180.094 402.204C180.73 397.71 179.305 388.699 174.724 386.485C173.963 386.144 173.139 385.966 172.305 385.961C171.471 385.956 170.645 386.125 169.88 386.457C169.115 386.79 168.428 387.277 167.862 387.89C167.295 388.502 166.863 389.226 166.592 390.015C165.364 393.369 166.921 397.491 168.784 400.341C170.976 403.761 178.429 408.497 178.429 408.497Z" fill="#263238"/>
</g>
<defs>
<clipPath id="clip0_648_55">
<rect width="1096" height="650" fill="white"/>
</clipPath>
</defs>
</svg>
