<svg width="70" height="59" viewBox="0 0 70 59" fill="none" xmlns="http://www.w3.org/2000/svg">
<g id="headphones">
<path id="Oval" d="M67.25 34.5834H54.9167C53.8121 34.5834 52.9167 35.4788 52.9167 36.5834V54.0834C52.9167 55.1879 53.8121 56.0834 54.9167 56.0834H65.25C66.3546 56.0834 67.25 55.1879 67.25 54.0834V34.5834C67.25 16.7722 52.8112 2.33337 35 2.33337C17.1888 2.33337 2.75 16.7722 2.75 34.5834V54.0834C2.75 55.1879 3.64543 56.0834 4.75 56.0834H15.0833C16.1879 56.0834 17.0833 55.1879 17.0833 54.0834V36.5834C17.0833 35.4788 16.1879 34.5834 15.0833 34.5834H2.75" stroke="#FF8A00" stroke-width="4"/>
</g>
</svg>
