<svg width="98" height="98" viewBox="0 0 98 98" fill="none" xmlns="http://www.w3.org/2000/svg">
<circle cx="49" cy="49" r="49" fill="#DDF6FE"/>
<path d="M48.1737 25C39.3324 25 30 26.9647 30 30.5995V43.0754V43.1737V55.6496V55.7479V68.3221C30 71.9569 39.3324 73.9216 48.1737 73.9216C57.0149 73.9216 66.3473 71.9569 66.3473 68.3221V55.7479V55.6496V43.1737V43.0754V30.5995C66.2491 26.9647 56.9167 25 48.1737 25ZM48.1737 25.9824C58.292 25.9824 65.365 28.4383 65.365 30.5995C65.365 32.7606 58.292 35.2165 48.1737 35.2165C38.0554 35.2165 30.9824 32.7606 30.9824 30.5995C30.9824 28.4383 38.0554 25.9824 48.1737 25.9824ZM30.9824 45.0402C33.6347 47.3978 41.1007 48.6749 48.1737 48.6749C55.2467 48.6749 62.7126 47.3978 65.365 45.0402V55.6496C65.365 57.8108 58.292 60.2667 48.1737 60.2667C38.0554 60.2667 30.9824 57.8108 30.9824 55.6496V45.0402ZM48.1737 72.9392C38.0554 72.9392 30.9824 70.4833 30.9824 68.3221V57.5161C33.6347 59.8738 41.1007 61.1509 48.1737 61.1509C55.2467 61.1509 62.7126 59.8738 65.365 57.5161V68.3221C65.2668 70.4833 58.292 72.9392 48.1737 72.9392ZM65.2667 43.1737C65.2667 45.3349 58.1937 47.7908 48.0754 47.7908C37.9571 47.7908 30.8841 45.3349 30.8841 43.1737V43.0754V32.4659C33.5365 34.8236 41.0024 36.1007 48.0754 36.1007C55.1484 36.1007 62.6144 34.8236 65.2667 32.4659V43.1737Z" fill="black"/>
<path d="M59.7657 38.4583C58.8816 38.4583 58.0957 39.146 58.0957 40.1284C58.0957 41.1107 58.7834 41.7984 59.7657 41.7984C60.6499 41.7984 61.4358 41.1107 61.4358 40.1284C61.4358 39.146 60.6499 38.4583 59.7657 38.4583Z" fill="black"/>
<path d="M59.7657 54.7655C60.6499 54.7655 61.4358 54.0779 61.4358 53.0955C61.4358 52.2114 60.7481 51.4255 59.7657 51.4255C58.8816 51.4255 58.0957 52.1132 58.0957 53.0955C58.0957 54.0779 58.7834 54.7655 59.7657 54.7655Z" fill="black"/>
<path d="M59.7657 64.3927C58.8816 64.3927 58.0957 65.0803 58.0957 66.0627C58.0957 67.045 58.7834 67.7327 59.7657 67.7327C60.6499 67.7327 61.4358 67.045 61.4358 66.0627C61.4358 65.0803 60.6499 64.3927 59.7657 64.3927Z" fill="black"/>
</svg>
