<svg width="64" height="66" viewBox="0 0 64 66" fill="none" xmlns="http://www.w3.org/2000/svg">
<g clip-path="url(#clip0_551_893)">
<path d="M18.375 9.5C18.375 5.77208 21.3971 2.75 25.125 2.75C28.8529 2.75 31.875 5.77208 31.875 9.5V16.25H48.75V33.125H55.5C59.2279 33.125 62.25 36.1471 62.25 39.875C62.25 43.6029 59.2279 46.625 55.5 46.625H48.75V63.5H31.875V56.75C31.875 53.0221 28.8529 50 25.125 50C21.3971 50 18.375 53.0221 18.375 56.75V63.5H1.5V46.625H8.25C11.9779 46.625 15 43.6029 15 39.875C15 36.1471 11.9779 33.125 8.25 33.125H1.5V16.25H18.375V9.5Z" stroke="#FF8A00" stroke-width="4"/>
</g>
<defs>
<clipPath id="clip0_551_893">
<rect width="64" height="66" fill="white"/>
</clipPath>
</defs>
</svg>
