<svg width="459" height="481" viewBox="0 0 459 481" fill="none" xmlns="http://www.w3.org/2000/svg">
<g clip-path="url(#clip0_651_227)">
<path d="M406.336 167.5C403.671 158.899 400.189 150.568 395.938 142.62C374.014 102.18 335.566 71.67 293.512 53.62C260.122 39.31 218.833 31.83 183.408 44.72C165.494 51.24 148.628 63.72 139.026 80.37C126.513 102.11 127.692 129 117.757 151.85C109.697 170.34 89.6671 181.45 73.9697 192.85C49.4765 210.57 25.346 231.52 16.8525 261.49C5.5278 301.44 8.8829 349 31.8043 384.53C48.9325 411.04 78.2518 419 108.508 419.53C137.062 420.04 171.983 412.88 198.632 425.81C244.032 447.81 303.94 472.51 354.74 455.1C407.132 437.15 432.794 402.19 440.38 356.84C447.967 311.49 427.061 273.71 420.391 237.84C416.24 215.15 413.489 190.1 406.336 167.5Z" fill="#006987"/>
<path opacity="0.8" d="M406.336 167.5C403.671 158.899 400.189 150.568 395.938 142.62C374.014 102.18 335.566 71.67 293.512 53.62C260.122 39.31 218.833 31.83 183.408 44.72C165.494 51.24 148.628 63.72 139.026 80.37C126.513 102.11 127.692 129 117.757 151.85C109.697 170.34 89.6671 181.45 73.9697 192.85C49.4765 210.57 25.346 231.52 16.8525 261.49C5.5278 301.44 8.8829 349 31.8043 384.53C48.9325 411.04 78.2518 419 108.508 419.53C137.062 420.04 171.983 412.88 198.632 425.81C244.032 447.81 303.94 472.51 354.74 455.1C407.132 437.15 432.794 402.19 440.38 356.84C447.967 311.49 427.061 273.71 420.391 237.84C416.24 215.15 413.489 190.1 406.336 167.5Z" fill="white"/>
<path d="M299.95 142.62L300.615 146.57L305.049 146.96L306.378 143.22C307.832 143.09 309.264 142.781 310.64 142.3L313.441 145.12L317.29 142.91L316.232 139.11C317.346 138.169 318.338 137.094 319.184 135.91L323.093 136.63L324.978 132.63L321.905 130.12C322.269 128.715 322.455 127.271 322.459 125.82L326.106 124.18L325.33 119.83L321.3 119.52C320.789 118.182 320.112 116.912 319.285 115.74L321.361 112.26L318.217 109.14L314.691 111.22C312.658 109.858 310.363 108.928 307.95 108.49L306.943 104.49H302.489L301.482 108.49C300.092 108.745 298.738 109.168 297.452 109.75L294.278 107.02L290.631 109.55L292.132 113.45C291.152 114.441 290.296 115.546 289.583 116.74L285.392 116.31L283.87 120.46L287.336 122.79C287.173 123.758 287.093 124.738 287.094 125.72C287.094 126.14 287.094 126.55 287.094 126.96L283.457 128.96L284.606 133.22L288.726 133.17C289.339 134.444 290.1 135.642 290.993 136.74L289.21 140.42L292.616 143.25L295.981 141M314.459 120.38C315.651 122.486 316.113 124.923 315.771 127.314C315.429 129.706 314.304 131.919 312.569 133.613C310.833 135.307 308.584 136.386 306.169 136.685C303.754 136.984 301.307 136.486 299.206 135.267C297.105 134.048 295.466 132.177 294.543 129.942C293.62 127.707 293.464 125.232 294.099 122.9C294.733 120.568 296.124 118.509 298.056 117.039C299.987 115.57 302.353 114.772 304.787 114.77C305.32 114.769 305.852 114.809 306.378 114.89M310.137 116.13C310.989 116.598 311.775 117.176 312.474 117.85" stroke="black" stroke-miterlimit="10"/>
<path d="M310.449 367.86L311.114 371.81L315.547 372.2L316.877 368.46C318.331 368.33 319.763 368.021 321.139 367.54L323.94 370.36L327.789 368.15L326.781 364.35C327.896 363.409 328.887 362.334 329.733 361.15L333.643 361.87L335.527 357.87L332.504 355.36C332.869 353.955 333.055 352.511 333.058 351.06L336.706 349.42L335.93 345.07L331.9 344.76C331.392 343.42 330.715 342.15 329.885 340.98L331.96 337.5L328.817 334.38L325.29 336.46C323.257 335.098 320.962 334.168 318.55 333.73L317.542 329.73H313.089L312.081 333.73C310.691 333.985 309.338 334.408 308.051 334.99L304.847 332.29L301.2 334.82L302.701 338.72C301.721 339.711 300.865 340.815 300.152 342.01L295.961 341.58L294.439 345.73L297.905 348.06C297.743 349.028 297.662 350.008 297.664 350.99C297.664 351.41 297.664 351.82 297.664 352.23L294.026 354.23L295.175 358.49L299.296 358.44C299.908 359.714 300.669 360.912 301.563 362.01L299.81 365.71L303.215 368.54L306.52 366.2M324.998 345.58C326.191 347.686 326.652 350.122 326.31 352.514C325.968 354.906 324.843 357.119 323.108 358.813C321.372 360.507 319.124 361.586 316.708 361.885C314.293 362.184 311.846 361.686 309.745 360.467C307.644 359.248 306.005 357.377 305.082 355.142C304.159 352.907 304.003 350.432 304.638 348.1C305.273 345.768 306.663 343.709 308.595 342.239C310.527 340.77 312.892 339.972 315.326 339.97C315.859 339.969 316.391 340.009 316.918 340.09M320.676 341.33C321.528 341.798 322.314 342.376 323.013 343.05" stroke="black" stroke-miterlimit="10"/>
<path d="M332.051 95.24L332.635 96.76C332.343 97.05 332.061 97.36 331.789 97.67M330.308 99.67C330.227 99.79 330.157 99.91 330.086 100.03L325.895 99.61L324.374 103.75L327.84 106.08C327.674 107.048 327.59 108.028 327.588 109.01C327.588 109.43 327.588 109.84 327.588 110.25L323.94 112.25L325.099 116.51H329.22C329.826 117.79 330.587 118.993 331.487 120.09L329.704 123.76L333.109 126.6L336.414 124.25C337.664 124.965 338.997 125.526 340.383 125.92L341.048 129.87L345.471 130.25L346.811 126.51C348.265 126.384 349.696 126.078 351.073 125.6L353.864 128.41L357.713 126.21L356.705 122.41C357.817 121.467 358.809 120.392 359.658 119.21L363.567 119.92L365.451 115.92L362.378 113.4C362.737 111.998 362.924 110.557 362.932 109.11L366.579 107.46L365.804 103.12L361.773 102.81C361.26 101.47 360.583 100.197 359.758 99.02L361.834 95.55L358.69 92.43L355.164 94.51C353.136 93.1396 350.839 92.2093 348.424 91.78L347.416 87.78H342.973L341.965 91.78C340.576 92.0398 339.223 92.4628 337.935 93.04L334.751 90.31L331.114 92.84L331.578 94.04M356.111 111.28C355.961 112.005 355.735 112.712 355.436 113.39M354.6 114.94C353.168 117.173 350.973 118.819 348.417 119.575C345.862 120.332 343.117 120.148 340.687 119.058C338.257 117.969 336.304 116.046 335.187 113.643C334.069 111.239 333.863 108.517 334.604 105.974C335.346 103.432 336.986 101.24 339.225 99.8014C341.463 98.3625 344.149 97.7728 346.79 98.1406C349.431 98.5083 351.849 99.8088 353.602 101.803C355.355 103.798 356.325 106.353 356.333 109C356.333 109.267 356.333 109.537 356.333 109.81" stroke="black" stroke-miterlimit="10"/>
<path d="M66.2929 231.29L62.958 238.16L69.3256 243.46L75.4917 239.07C77.8304 240.412 80.3281 241.46 82.9273 242.19L84.1565 249.57L92.4385 250.29L94.9271 243.29C97.6456 243.049 100.323 242.472 102.897 241.57L108.116 246.84L115.31 242.72L113.294 235.62C115.379 233.853 117.237 231.838 118.826 229.62L126.13 230.95L129.647 223.48L123.914 218.78C124.582 216.165 124.921 213.478 124.921 210.78L131.732 207.7L130.292 199.58L122.775 199C121.815 196.501 120.553 194.128 119.017 191.93L122.886 185.43L117.012 179.6L110.413 183.49C106.623 180.931 102.331 179.193 97.8187 178.39L95.9145 170.91H87.6023L85.688 178.43C83.1136 178.919 80.6072 179.711 78.2221 180.79L72.2777 175.69L65.4768 180.42L68.2778 187.71C66.4505 189.563 64.8508 191.624 63.5121 193.85L55.6836 193.05L52.8423 200.8L59.3208 205.16C59.0129 206.971 58.8579 208.804 58.8573 210.64C58.8573 211.42 58.8875 212.19 58.948 212.95L52.127 216.73L54.2831 224.73L61.9907 224.64C62.8428 226.442 63.8543 228.165 65.0133 229.79M84.9021 191.27C85.8073 190.955 86.733 190.701 87.6728 190.51M92.7911 190.11C97.8668 190.342 102.68 192.417 106.315 195.941C109.95 199.464 112.155 204.19 112.51 209.221C112.865 214.251 111.346 219.236 108.241 223.228C105.136 227.22 100.662 229.941 95.6685 230.873C90.6751 231.806 85.5105 230.885 81.156 228.287C76.8015 225.688 73.5606 221.592 72.0491 216.777C70.5376 211.963 70.8608 206.764 72.9574 202.171C75.0539 197.577 78.7776 193.908 83.421 191.86" stroke="black" stroke-miterlimit="10"/>
<path d="M172.739 209.09L164.497 203.81" stroke="#0089A6" stroke-width="3" stroke-linecap="round" stroke-linejoin="round"/>
<path d="M187.057 193.21L184.921 191.44" stroke="#0089A6" stroke-width="3" stroke-linecap="round" stroke-linejoin="round"/>
<path d="M162.996 239.77L145.938 235.53" stroke="#0089A6" stroke-width="3" stroke-linecap="round" stroke-linejoin="round"/>
<path d="M255.186 343.83C255.06 343.829 254.934 343.812 254.813 343.78C254.42 343.678 254.083 343.427 253.876 343.08C253.352 342.17 253.07 341.68 257.322 336.84C248.153 342.41 247.176 342.18 246.642 342.05C246.224 341.927 245.865 341.657 245.634 341.29C244.788 339.84 244.627 339.55 261.594 325.77C258.873 327.52 256.042 329.4 253.533 331.06C238.602 340.95 233.957 343.76 231.901 343.29C231.652 343.234 231.418 343.127 231.211 342.978C231.005 342.828 230.832 342.638 230.702 342.42C229.796 340.86 229.796 340.86 249.846 326.48L253.815 323.64C251.498 325.17 249.191 326.73 247.075 328.16C231.297 338.81 224.113 343.41 221.423 342.81C221.142 342.747 220.878 342.625 220.649 342.453C220.419 342.28 220.23 342.061 220.093 341.81C219.086 340.12 218.884 339.74 248.042 320.08L209.695 342.08C209.354 342.269 208.951 342.317 208.574 342.214C208.198 342.111 207.876 341.865 207.68 341.53C207.005 340.37 207.529 338.95 210.3 336.53C205.887 339.05 203.328 340.06 202.068 339.77C201.806 339.71 201.559 339.599 201.341 339.442C201.123 339.286 200.938 339.088 200.799 338.86C199.963 337.42 200.285 336.09 210.955 328.97C199.952 335.8 195.892 337.81 194.31 337.44C194.075 337.385 193.854 337.283 193.66 337.141C193.466 336.998 193.303 336.817 193.182 336.61C192.446 335.36 193.131 334.91 195.66 333.25L201.232 329.64L209.756 324.17C200.366 329.01 198.955 328.68 198.169 328.49C197.904 328.43 197.655 328.318 197.435 328.16C197.215 328.001 197.029 327.801 196.89 327.57C196.704 327.231 196.657 326.834 196.758 326.462C196.859 326.089 197.101 325.77 197.434 325.57C227.005 308.17 272.656 280.26 283.659 271.03C272.686 275.98 239.881 296.2 221.191 307.75C197.121 322.6 197.01 322.57 196.003 322.31C195.795 322.264 195.598 322.176 195.425 322.052C195.252 321.928 195.106 321.771 194.995 321.59C194.179 320.19 194.22 319.29 203.852 313.37C199.418 315.44 196.497 316.37 195.207 316.07C194.925 316.004 194.659 315.882 194.427 315.71C194.194 315.538 194 315.32 193.857 315.07C193.664 314.738 193.608 314.344 193.7 313.972C193.792 313.599 194.025 313.276 194.351 313.07C224.194 294.2 266.178 267.48 283.306 256.19C278.54 258.6 272.142 262.19 265.029 266.42C259.276 270.09 252.455 274.36 244.385 279.34C233.725 285.93 222.944 292.46 213.967 297.86C192.285 311.44 192.023 311.38 190.965 311.12C190.757 311.07 190.561 310.98 190.388 310.855C190.215 310.73 190.069 310.572 189.958 310.39C189.772 310.051 189.725 309.654 189.826 309.282C189.927 308.909 190.169 308.59 190.502 308.39C197.031 304.54 204.234 300.25 211.71 295.75L215.64 293.29C199.983 302.18 191.328 306.07 188.779 305.45C188.484 305.393 188.205 305.274 187.96 305.102C187.715 304.929 187.51 304.707 187.358 304.45C186.421 302.85 187.751 300.81 198.794 293.65C191.671 297.96 188.849 299.24 187.65 298.95C187.422 298.899 187.206 298.801 187.017 298.664C186.828 298.526 186.67 298.351 186.552 298.15C185.917 297.06 185.404 296.15 192.779 290.84C188.809 292.84 186.3 293.65 185.101 293.36C184.829 293.301 184.573 293.188 184.347 293.026C184.122 292.864 183.933 292.658 183.792 292.42C183.69 292.248 183.625 292.058 183.599 291.86C183.573 291.663 183.587 291.462 183.64 291.27C183.747 290.887 184 290.56 184.346 290.36C217.04 271.91 266.551 242.69 281.623 230.9C265.09 239.96 219.509 266.52 187.701 285.24C187.529 285.34 187.339 285.406 187.141 285.434C186.944 285.461 186.743 285.449 186.55 285.399C186.357 285.349 186.176 285.261 186.017 285.141C185.858 285.021 185.725 284.871 185.625 284.7C185.471 284.425 185.374 284.122 185.341 283.809C185.308 283.497 185.34 283.18 185.434 282.88C185.995 281.612 186.843 280.489 187.912 279.6C185.565 280.55 183.993 280.9 183.096 280.68C182.818 280.612 182.556 280.489 182.327 280.317C182.098 280.145 181.907 279.928 181.766 279.68C180.86 278.13 182.593 276.93 185.212 275.12C187.227 273.77 190.079 271.9 194.068 269.42C201.514 264.8 211.731 258.68 222.551 252.21C234.712 244.93 249.16 236.28 260.636 229.12C236.083 243.12 197.413 265.54 178.845 276.32C178.493 276.518 178.077 276.572 177.686 276.47C177.494 276.42 177.314 276.332 177.156 276.212C176.999 276.092 176.867 275.941 176.769 275.77C175.993 274.43 175.762 274.04 189.111 265.7C183.882 268.55 180.578 269.78 178.895 269.39C178.577 269.324 178.277 269.193 178.013 269.006C177.749 268.818 177.528 268.578 177.363 268.3C176.356 266.58 176.356 266.58 200.597 252.61C211.811 246.15 225.191 238.43 237.503 231.01C247.841 224.19 255.931 219.01 262.067 215.41C265.286 213.285 268.34 210.925 271.205 208.35C258.621 213.96 208.93 243.78 177.505 263.18C177.165 263.392 176.755 263.462 176.364 263.374C175.973 263.285 175.633 263.047 175.419 262.71C175.205 262.373 175.135 261.966 175.224 261.578C175.313 261.189 175.553 260.852 175.892 260.64L185.645 254.48C177.585 258.59 174.563 259.28 173.323 258.97C173.042 258.905 172.778 258.782 172.547 258.61C172.316 258.438 172.124 258.22 171.983 257.97C171.788 257.638 171.73 257.244 171.822 256.871C171.914 256.497 172.149 256.174 172.477 255.97L193.948 242.31C176.396 252.15 174.976 251.8 174.109 251.58C173.879 251.527 173.662 251.427 173.471 251.288C173.28 251.149 173.121 250.973 173.001 250.77C172.812 250.435 172.761 250.04 172.856 249.668C172.952 249.296 173.187 248.975 173.515 248.77C196.144 234.88 228.294 214.77 247.065 202.16C231.901 210.83 209.786 223.71 194.23 232.79L176.89 242.79C173.041 245.02 171.177 246.11 170.18 246.61L169.918 246.77C169.223 247.1 169.051 247.05 168.759 246.97C168.475 246.895 168.219 246.738 168.023 246.521C167.826 246.303 167.698 246.033 167.655 245.744C167.611 245.455 167.653 245.16 167.776 244.895C167.898 244.629 168.097 244.405 168.346 244.25C192.346 229.52 227.791 207.32 243.669 196.4C235.216 201.26 222.592 209.25 212.436 215.7C183.963 233.7 175.308 238.88 172.799 238.26C172.561 238.204 172.336 238.1 172.139 237.956C171.941 237.812 171.776 237.629 171.651 237.42C171.026 236.33 170.573 235.56 180.033 228.79C177.454 229.92 175.711 230.35 174.694 230.11C174.406 230.045 174.134 229.923 173.895 229.751C173.656 229.579 173.455 229.361 173.303 229.11C173.116 228.775 173.064 228.383 173.158 228.011C173.251 227.64 173.483 227.318 173.807 227.11C192.396 215.5 220.647 197.3 230.36 189.77C221.856 193.9 203.297 205.77 192.376 212.71C174.532 224 173.867 224.28 172.729 224C172.52 223.952 172.323 223.862 172.15 223.737C171.977 223.612 171.831 223.453 171.721 223.27C170.915 221.9 170.21 220.68 187.681 208.76C185.525 210.12 183.318 211.53 181.061 212.97C180.875 213.12 180.656 213.226 180.422 213.279C180.188 213.333 179.945 213.333 179.711 213.28C179.512 213.233 179.326 213.145 179.163 213.023C179 212.901 178.864 212.747 178.764 212.57C177.686 210.72 179.238 209.13 191.499 199.8C191.274 199.753 191.062 199.659 190.876 199.524C190.69 199.39 190.535 199.218 190.421 199.02C190.234 198.675 190.19 198.272 190.297 197.895C190.404 197.518 190.655 197.197 190.995 197C191.278 196.846 191.601 196.78 191.922 196.81C193.516 195.892 195.06 194.89 196.547 193.81C201.464 190.38 202.854 189.56 204.053 189.81C204.287 189.861 204.508 189.959 204.702 190.098C204.897 190.238 205.06 190.415 205.182 190.62C206.048 192.12 205.373 193.02 197.121 199.36C199.418 197.95 201.786 196.49 204.174 195.05C227.468 180.91 229.272 181.33 230.37 181.59C230.612 181.641 230.84 181.743 231.039 181.888C231.239 182.032 231.406 182.217 231.529 182.43C231.718 182.764 231.771 183.157 231.678 183.529C231.584 183.901 231.35 184.224 231.025 184.43C219.66 191.43 207.852 199.01 197.947 205.56C220.939 190.99 231.992 184.56 235.105 185.34C235.375 185.4 235.63 185.514 235.854 185.676C236.077 185.837 236.265 186.043 236.405 186.28C237.362 187.93 238.057 189.13 206.25 209.91L201.675 212.91C208.083 208.91 214.572 204.71 219.811 201.31C240.214 188.17 243.518 186.24 245.06 186.6C245.271 186.655 245.469 186.751 245.642 186.884C245.815 187.016 245.96 187.181 246.067 187.37C246.26 187.702 246.317 188.096 246.225 188.468C246.133 188.841 245.9 189.164 245.574 189.37C225.846 201.85 197.031 220.48 182.784 230.49C190.441 226.01 201.292 219.14 210.743 213.16C240.697 194.16 250.47 188.41 253.231 189.07C253.478 189.129 253.71 189.236 253.914 189.385C254.119 189.535 254.29 189.723 254.42 189.94C255.155 191.21 255.689 192.11 238.168 203.72C262.722 189.58 263.195 189.72 263.971 189.9C264.169 189.95 264.354 190.039 264.516 190.161C264.679 190.283 264.816 190.435 264.918 190.61C265.926 192.34 266.641 193.61 220.315 222.99C216.95 225.13 213.574 227.26 210.239 229.34C228.577 218.58 250.43 205.34 266.984 195.08C267.157 194.975 267.35 194.905 267.55 194.874C267.751 194.843 267.955 194.852 268.153 194.9C268.549 195 268.889 195.252 269.1 195.6C269.815 196.84 268.757 197.6 267.639 198.36C266.954 198.83 265.946 199.51 264.616 200.36C262.178 201.97 258.571 204.36 253.916 207.36C246.077 212.43 235.126 219.46 221.363 228.26C208.103 236.73 194.743 245.26 185.585 251.07C197.685 244.72 221.222 231 266.561 202.25C273.089 198.12 273.09 198.12 273.754 198.25C273.954 198.299 274.141 198.386 274.306 198.508C274.47 198.63 274.608 198.784 274.712 198.96C275.084 199.6 275.296 199.96 274.087 201.03C272.475 202.43 268.465 205.03 259.316 210.93C272.273 203.88 273.482 204.17 274.268 204.37C274.497 204.421 274.713 204.519 274.902 204.656C275.091 204.794 275.249 204.969 275.367 205.17C275.911 206.11 276.042 207.24 274.026 209.48C274.821 209.234 275.662 209.172 276.485 209.3C276.814 209.368 277.124 209.504 277.397 209.698C277.669 209.893 277.897 210.142 278.067 210.43C279.074 212.15 279.578 213.03 249.644 231.77C281.341 213.55 281.654 213.63 282.409 213.83C282.603 213.879 282.785 213.966 282.944 214.086C283.104 214.207 283.237 214.357 283.336 214.53C284.344 216.19 282.53 217.86 278.198 221C275.407 223 271.467 225.64 266.188 229C283.79 218.09 288.203 215.83 289.774 216.21C289.997 216.264 290.206 216.361 290.389 216.497C290.573 216.633 290.727 216.804 290.842 217C290.943 217.17 291.009 217.359 291.035 217.555C291.061 217.751 291.047 217.95 290.993 218.14C290.942 218.333 290.853 218.514 290.73 218.672C290.607 218.83 290.453 218.962 290.278 219.06C280.001 224.84 269.553 230.82 259.458 236.72L248.999 243.28C228.435 256.2 213.433 265.49 202.905 271.57C199.57 273.84 196.718 275.86 194.431 277.57C203.801 272.07 219.761 262.72 235.74 253.47C286.117 224.21 286.883 224.42 287.84 224.67C288.037 224.72 288.222 224.809 288.385 224.931C288.548 225.053 288.684 225.205 288.787 225.38C288.933 225.636 289.025 225.918 289.058 226.211C289.091 226.503 289.064 226.798 288.978 227.08C288.681 228.048 288.111 228.912 287.336 229.57C290.792 227.86 292.958 227.16 294.026 227.41C294.286 227.469 294.531 227.58 294.745 227.737C294.96 227.893 295.141 228.092 295.275 228.32C296.081 229.7 294.953 230.45 292.464 232.09C290.963 233.09 288.747 234.48 285.674 236.38L285.079 236.75C289.774 234.52 293.069 233.47 294.721 233.87C295.059 233.939 295.378 234.077 295.659 234.275C295.94 234.473 296.176 234.727 296.354 235.02C297.744 237.41 296.354 238.93 247.196 267.79C226.551 280 199.277 296 191.842 302C195.942 300.57 206.159 295.67 231.549 280.42C252.244 267.99 275.034 253.48 285.956 246.51C293.542 241.68 293.532 241.69 294.207 241.85C294.609 241.951 294.953 242.207 295.165 242.56C295.779 243.62 296.404 244.69 288.112 250.82C289.283 250.295 290.569 250.074 291.85 250.18C292.132 250.246 292.397 250.369 292.629 250.541C292.862 250.713 293.056 250.93 293.2 251.18C294.087 252.71 294.087 252.71 277.785 263.31C269.724 268.53 258.541 275.74 244.435 284.74C230.833 293.42 217.121 302.13 207.731 308.08C226.753 297.96 262.4 275.52 278.258 265.54C292.364 256.69 292.364 256.69 293.129 256.88C293.327 256.93 293.512 257.019 293.675 257.141C293.837 257.263 293.974 257.415 294.076 257.59C295.155 259.45 293.442 262.09 286.812 266.98C287.006 266.953 287.203 266.953 287.396 266.98C287.643 267.039 287.876 267.146 288.08 267.295C288.284 267.445 288.456 267.633 288.585 267.85C289.643 269.67 290.842 271.73 246.128 299.52C258.984 291.66 272.324 283.3 283.094 276.37C283.267 276.258 283.46 276.183 283.663 276.148C283.865 276.114 284.073 276.12 284.273 276.168C284.473 276.216 284.661 276.304 284.826 276.426C284.99 276.548 285.128 276.703 285.23 276.88C285.966 278.16 284.948 278.88 283.215 280.08C282.208 280.79 280.686 281.83 278.691 283.15C276.696 284.47 274.218 286.15 271.226 288.07C275.397 285.97 277.976 285.12 279.286 285.44C279.57 285.504 279.838 285.625 280.072 285.798C280.306 285.97 280.502 286.189 280.646 286.44C281.492 287.89 281.301 288.44 271.105 294.98C273.251 294.07 274.772 293.74 275.749 293.98C276.053 294.045 276.34 294.171 276.591 294.352C276.843 294.533 277.054 294.764 277.21 295.03C278.399 297.03 277.503 297.97 250.198 314.38C242.38 319.08 232.536 324.99 224.567 330.09L278.178 299.38C278.349 299.279 278.539 299.214 278.736 299.188C278.934 299.162 279.134 299.176 279.326 299.23C279.711 299.332 280.04 299.58 280.243 299.92C280.989 301.21 279.931 301.98 278.178 303.26C277.12 304.03 275.568 305.12 273.432 306.58C269.452 309.32 263.921 313.03 258.067 316.97C251.246 321.55 242.662 327.32 235.629 332.17C238.863 330.05 242.229 327.78 245.221 325.76C260.808 315.24 267.387 311.03 269.956 311.59C270.225 311.648 270.479 311.761 270.703 311.921C270.927 312.081 271.115 312.285 271.256 312.52C272.132 314.04 272.173 314.11 254.299 326.96C267.266 318.4 271.508 315.96 273.442 316.39C273.691 316.446 273.926 316.552 274.132 316.702C274.338 316.852 274.512 317.041 274.641 317.26C275.346 318.48 275.346 318.48 266.329 325.79C263.609 327.99 259.83 331.05 256.425 333.88C259.185 332.19 262.228 330.27 265.12 328.41C265.292 328.298 265.486 328.223 265.688 328.188C265.891 328.154 266.099 328.16 266.299 328.208C266.499 328.256 266.687 328.344 266.851 328.466C267.016 328.588 267.153 328.743 267.256 328.92C267.82 329.92 267.608 330.12 265.543 332.32C263.86 334.11 262.42 335.68 261.201 337.02C270.349 331.61 270.681 331.7 271.326 331.86C271.522 331.91 271.706 331.999 271.867 332.121C272.028 332.243 272.163 332.396 272.263 332.57C272.364 332.74 272.43 332.929 272.456 333.124C272.483 333.32 272.47 333.519 272.418 333.71C272.367 333.901 272.278 334.079 272.156 334.236C272.034 334.392 271.882 334.522 271.709 334.62C271.563 334.707 271.403 334.768 271.236 334.8C269.896 335.4 262.45 339.75 255.891 343.69C255.67 343.79 255.428 343.838 255.186 343.83ZM269.724 334C269.884 334.268 270.123 334.481 270.409 334.61C270.126 334.477 269.888 334.265 269.724 334ZM232.526 318.73C223.821 324.12 215.257 329.52 209.675 333.37C215.751 329.78 224.577 324 232.526 318.73ZM269.996 292.1C260.112 297.54 244.123 307.76 231.972 315.55C236.445 312.78 241.544 309.65 247.337 306.11C255.317 301.24 263.911 296 269.996 292.1ZM269.352 299.1C263.981 301.94 255.83 307.1 247.881 312.25L248.717 311.75C256.143 307.27 264.203 302.42 269.352 299.08V299.1ZM219.811 276.64C213.161 280.77 207.116 284.66 202.078 288C207.297 284.69 213.484 280.72 219.811 276.64ZM291.537 237.31C288.616 238.31 282.419 241.11 269.311 248.92C256.203 256.73 240.365 267 226.259 276.1C220.103 280.1 214.924 283.4 210.552 286.18C219.035 281 230.43 274.23 245.654 265.29C264.183 254.38 284.898 242.22 291.537 237.31ZM282.077 266.65L279.941 268C272.888 272.447 266.208 276.63 259.901 280.55C268.314 275.53 276.263 270.62 282.077 266.65ZM215.257 260C206.018 265.54 197.041 271 191.076 274.73C194.099 273.2 197.736 271.15 201.847 268.73C205.887 266 210.411 263.05 215.257 260ZM238.914 233.58C235.045 236.14 231.236 238.68 227.67 241.05C220.617 245.77 214.35 249.89 208.92 253.43L214.471 250.03C234.874 237.55 264.334 219.51 272.999 212.97C269.794 214.392 266.687 216.022 263.699 217.85C260.253 220.24 255.871 223.11 250.319 226.59C246.702 228.84 242.863 231.18 238.914 233.56V233.58Z" fill="#006987"/>
<g opacity="0.4">
<path d="M255.186 343.83C255.06 343.829 254.934 343.812 254.813 343.78C254.42 343.678 254.083 343.427 253.876 343.08C253.352 342.17 253.07 341.68 257.322 336.84C248.153 342.41 247.176 342.18 246.642 342.05C246.224 341.927 245.865 341.657 245.634 341.29C244.788 339.84 244.627 339.55 261.594 325.77C258.873 327.52 256.042 329.4 253.533 331.06C238.602 340.95 233.957 343.76 231.901 343.29C231.652 343.234 231.418 343.127 231.211 342.978C231.005 342.828 230.832 342.638 230.702 342.42C229.796 340.86 229.796 340.86 249.846 326.48L253.815 323.64C251.498 325.17 249.191 326.73 247.075 328.16C231.297 338.81 224.113 343.41 221.423 342.81C221.142 342.747 220.878 342.625 220.649 342.453C220.419 342.28 220.23 342.061 220.093 341.81C219.086 340.12 218.884 339.74 248.042 320.08L209.695 342.08C209.354 342.269 208.951 342.317 208.574 342.214C208.198 342.111 207.876 341.865 207.68 341.53C207.005 340.37 207.529 338.95 210.3 336.53C205.887 339.05 203.328 340.06 202.068 339.77C201.806 339.71 201.559 339.599 201.341 339.442C201.123 339.286 200.938 339.088 200.799 338.86C199.963 337.42 200.285 336.09 210.955 328.97C199.952 335.8 195.892 337.81 194.31 337.44C194.075 337.385 193.854 337.283 193.66 337.141C193.466 336.998 193.303 336.817 193.182 336.61C192.446 335.36 193.131 334.91 195.66 333.25L201.232 329.64L209.756 324.17C200.366 329.01 198.955 328.68 198.169 328.49C197.904 328.43 197.655 328.318 197.435 328.16C197.215 328.001 197.029 327.801 196.89 327.57C196.704 327.231 196.657 326.834 196.758 326.462C196.859 326.089 197.101 325.77 197.434 325.57C227.005 308.17 272.656 280.26 283.659 271.03C272.686 275.98 239.881 296.2 221.191 307.75C197.121 322.6 197.01 322.57 196.003 322.31C195.795 322.264 195.598 322.176 195.425 322.052C195.252 321.928 195.106 321.771 194.995 321.59C194.179 320.19 194.22 319.29 203.852 313.37C199.418 315.44 196.497 316.37 195.207 316.07C194.925 316.004 194.659 315.882 194.427 315.71C194.194 315.538 194 315.32 193.857 315.07C193.664 314.738 193.608 314.344 193.7 313.972C193.792 313.599 194.025 313.276 194.351 313.07C224.194 294.2 266.178 267.48 283.306 256.19C278.54 258.6 272.142 262.19 265.029 266.42C259.276 270.09 252.455 274.36 244.385 279.34C233.725 285.93 222.944 292.46 213.967 297.86C192.285 311.44 192.023 311.38 190.965 311.12C190.757 311.07 190.561 310.98 190.388 310.855C190.215 310.73 190.069 310.572 189.958 310.39C189.772 310.051 189.725 309.654 189.826 309.282C189.927 308.909 190.169 308.59 190.502 308.39C197.031 304.54 204.234 300.25 211.71 295.75L215.64 293.29C199.983 302.18 191.328 306.07 188.779 305.45C188.484 305.393 188.205 305.274 187.96 305.102C187.715 304.929 187.51 304.707 187.358 304.45C186.421 302.85 187.751 300.81 198.794 293.65C191.671 297.96 188.849 299.24 187.65 298.95C187.422 298.899 187.206 298.801 187.017 298.664C186.828 298.526 186.67 298.351 186.552 298.15C185.917 297.06 185.404 296.15 192.779 290.84C188.809 292.84 186.3 293.65 185.101 293.36C184.829 293.301 184.573 293.188 184.347 293.026C184.122 292.864 183.933 292.658 183.792 292.42C183.69 292.248 183.625 292.058 183.599 291.86C183.573 291.663 183.587 291.462 183.64 291.27C183.747 290.887 184 290.56 184.346 290.36C217.04 271.91 266.551 242.69 281.623 230.9C265.09 239.96 219.509 266.52 187.701 285.24C187.529 285.34 187.339 285.406 187.141 285.434C186.944 285.461 186.743 285.449 186.55 285.399C186.357 285.349 186.176 285.261 186.017 285.141C185.858 285.021 185.725 284.871 185.625 284.7C185.471 284.425 185.374 284.122 185.341 283.809C185.308 283.497 185.34 283.18 185.434 282.88C185.995 281.612 186.843 280.489 187.912 279.6C185.565 280.55 183.993 280.9 183.096 280.68C182.818 280.612 182.556 280.489 182.327 280.317C182.098 280.145 181.907 279.928 181.766 279.68C180.86 278.13 182.593 276.93 185.212 275.12C187.227 273.77 190.079 271.9 194.068 269.42C201.514 264.8 211.731 258.68 222.551 252.21C234.712 244.93 249.16 236.28 260.636 229.12C236.083 243.12 197.413 265.54 178.845 276.32C178.493 276.518 178.077 276.572 177.686 276.47C177.494 276.42 177.314 276.332 177.156 276.212C176.999 276.092 176.867 275.941 176.769 275.77C175.993 274.43 175.762 274.04 189.111 265.7C183.882 268.55 180.578 269.78 178.895 269.39C178.577 269.324 178.277 269.193 178.013 269.006C177.749 268.818 177.528 268.578 177.363 268.3C176.356 266.58 176.356 266.58 200.597 252.61C211.811 246.15 225.191 238.43 237.503 231.01C247.841 224.19 255.931 219.01 262.067 215.41C265.286 213.285 268.34 210.925 271.205 208.35C258.621 213.96 208.93 243.78 177.505 263.18C177.165 263.392 176.755 263.462 176.364 263.374C175.973 263.285 175.633 263.047 175.419 262.71C175.205 262.373 175.135 261.966 175.224 261.578C175.313 261.189 175.553 260.852 175.892 260.64L185.645 254.48C177.585 258.59 174.563 259.28 173.323 258.97C173.042 258.905 172.778 258.782 172.547 258.61C172.316 258.438 172.124 258.22 171.983 257.97C171.788 257.638 171.73 257.244 171.822 256.871C171.914 256.497 172.149 256.174 172.477 255.97L193.948 242.31C176.396 252.15 174.976 251.8 174.109 251.58C173.879 251.527 173.662 251.427 173.471 251.288C173.28 251.149 173.121 250.973 173.001 250.77C172.812 250.435 172.761 250.04 172.856 249.668C172.952 249.296 173.187 248.975 173.515 248.77C196.144 234.88 228.294 214.77 247.065 202.16C231.901 210.83 209.786 223.71 194.23 232.79L176.89 242.79C173.041 245.02 171.177 246.11 170.18 246.61L169.918 246.77C169.223 247.1 169.051 247.05 168.759 246.97C168.475 246.895 168.219 246.738 168.023 246.521C167.826 246.303 167.698 246.033 167.655 245.744C167.611 245.455 167.653 245.16 167.776 244.895C167.898 244.629 168.097 244.405 168.346 244.25C192.346 229.52 227.791 207.32 243.669 196.4C235.216 201.26 222.592 209.25 212.436 215.7C183.963 233.7 175.308 238.88 172.799 238.26C172.561 238.204 172.336 238.1 172.139 237.956C171.941 237.812 171.776 237.629 171.651 237.42C171.026 236.33 170.573 235.56 180.033 228.79C177.454 229.92 175.711 230.35 174.694 230.11C174.406 230.045 174.134 229.923 173.895 229.751C173.656 229.579 173.455 229.361 173.303 229.11C173.116 228.775 173.064 228.383 173.158 228.011C173.251 227.64 173.483 227.318 173.807 227.11C192.396 215.5 220.647 197.3 230.36 189.77C221.856 193.9 203.297 205.77 192.376 212.71C174.532 224 173.867 224.28 172.729 224C172.52 223.952 172.323 223.862 172.15 223.737C171.977 223.612 171.831 223.453 171.721 223.27C170.915 221.9 170.21 220.68 187.681 208.76C185.525 210.12 183.318 211.53 181.061 212.97C180.875 213.12 180.656 213.226 180.422 213.279C180.188 213.333 179.945 213.333 179.711 213.28C179.512 213.233 179.326 213.145 179.163 213.023C179 212.901 178.864 212.747 178.764 212.57C177.686 210.72 179.238 209.13 191.499 199.8C191.274 199.753 191.062 199.659 190.876 199.524C190.69 199.39 190.535 199.218 190.421 199.02C190.234 198.675 190.19 198.272 190.297 197.895C190.404 197.518 190.655 197.197 190.995 197C191.278 196.846 191.601 196.78 191.922 196.81C193.516 195.892 195.06 194.89 196.547 193.81C201.464 190.38 202.854 189.56 204.053 189.81C204.287 189.861 204.508 189.959 204.702 190.098C204.897 190.238 205.06 190.415 205.182 190.62C206.048 192.12 205.373 193.02 197.121 199.36C199.418 197.95 201.786 196.49 204.174 195.05C227.468 180.91 229.272 181.33 230.37 181.59C230.612 181.641 230.84 181.743 231.039 181.888C231.239 182.032 231.406 182.217 231.529 182.43C231.718 182.764 231.771 183.157 231.678 183.529C231.584 183.901 231.35 184.224 231.025 184.43C219.66 191.43 207.852 199.01 197.947 205.56C220.939 190.99 231.992 184.56 235.105 185.34C235.375 185.4 235.63 185.514 235.854 185.676C236.077 185.837 236.265 186.043 236.405 186.28C237.362 187.93 238.057 189.13 206.25 209.91L201.675 212.91C208.083 208.91 214.572 204.71 219.811 201.31C240.214 188.17 243.518 186.24 245.06 186.6C245.271 186.655 245.469 186.751 245.642 186.884C245.815 187.016 245.96 187.181 246.067 187.37C246.26 187.702 246.317 188.096 246.225 188.468C246.133 188.841 245.9 189.164 245.574 189.37C225.846 201.85 197.031 220.48 182.784 230.49C190.441 226.01 201.292 219.14 210.743 213.16C240.697 194.16 250.47 188.41 253.231 189.07C253.478 189.129 253.71 189.236 253.914 189.385C254.119 189.535 254.29 189.723 254.42 189.94C255.155 191.21 255.689 192.11 238.168 203.72C262.722 189.58 263.195 189.72 263.971 189.9C264.169 189.95 264.354 190.039 264.516 190.161C264.679 190.283 264.816 190.435 264.918 190.61C265.926 192.34 266.641 193.61 220.315 222.99C216.95 225.13 213.574 227.26 210.239 229.34C228.577 218.58 250.43 205.34 266.984 195.08C267.157 194.975 267.35 194.905 267.55 194.874C267.751 194.843 267.955 194.852 268.153 194.9C268.549 195 268.889 195.252 269.1 195.6C269.815 196.84 268.757 197.6 267.639 198.36C266.954 198.83 265.946 199.51 264.616 200.36C262.178 201.97 258.571 204.36 253.916 207.36C246.077 212.43 235.126 219.46 221.363 228.26C208.103 236.73 194.743 245.26 185.585 251.07C197.685 244.72 221.222 231 266.561 202.25C273.089 198.12 273.09 198.12 273.754 198.25C273.954 198.299 274.141 198.386 274.306 198.508C274.47 198.63 274.608 198.784 274.712 198.96C275.084 199.6 275.296 199.96 274.087 201.03C272.475 202.43 268.465 205.03 259.316 210.93C272.273 203.88 273.482 204.17 274.268 204.37C274.497 204.421 274.713 204.519 274.902 204.656C275.091 204.794 275.249 204.969 275.367 205.17C275.911 206.11 276.042 207.24 274.026 209.48C274.821 209.234 275.662 209.172 276.485 209.3C276.814 209.368 277.124 209.504 277.397 209.698C277.669 209.893 277.897 210.142 278.067 210.43C279.074 212.15 279.578 213.03 249.644 231.77C281.341 213.55 281.654 213.63 282.409 213.83C282.603 213.879 282.785 213.966 282.944 214.086C283.104 214.207 283.237 214.357 283.336 214.53C284.344 216.19 282.53 217.86 278.198 221C275.407 223 271.467 225.64 266.188 229C283.79 218.09 288.203 215.83 289.774 216.21C289.997 216.264 290.206 216.361 290.389 216.497C290.573 216.633 290.727 216.804 290.842 217C290.943 217.17 291.009 217.359 291.035 217.555C291.061 217.751 291.047 217.95 290.993 218.14C290.942 218.333 290.853 218.514 290.73 218.672C290.607 218.83 290.453 218.962 290.278 219.06C280.001 224.84 269.553 230.82 259.458 236.72L248.999 243.28C228.435 256.2 213.433 265.49 202.905 271.57C199.57 273.84 196.718 275.86 194.431 277.57C203.801 272.07 219.761 262.72 235.74 253.47C286.117 224.21 286.883 224.42 287.84 224.67C288.037 224.72 288.222 224.809 288.385 224.931C288.548 225.053 288.684 225.205 288.787 225.38C288.933 225.636 289.025 225.918 289.058 226.211C289.091 226.503 289.064 226.798 288.978 227.08C288.681 228.048 288.111 228.912 287.336 229.57C290.792 227.86 292.958 227.16 294.026 227.41C294.286 227.469 294.531 227.58 294.745 227.737C294.96 227.893 295.141 228.092 295.275 228.32C296.081 229.7 294.953 230.45 292.464 232.09C290.963 233.09 288.747 234.48 285.674 236.38L285.079 236.75C289.774 234.52 293.069 233.47 294.721 233.87C295.059 233.939 295.378 234.077 295.659 234.275C295.94 234.473 296.176 234.727 296.354 235.02C297.744 237.41 296.354 238.93 247.196 267.79C226.551 280 199.277 296 191.842 302C195.942 300.57 206.159 295.67 231.549 280.42C252.244 267.99 275.034 253.48 285.956 246.51C293.542 241.68 293.532 241.69 294.207 241.85C294.609 241.951 294.953 242.207 295.165 242.56C295.779 243.62 296.404 244.69 288.112 250.82C289.283 250.295 290.569 250.074 291.85 250.18C292.132 250.246 292.397 250.369 292.629 250.541C292.862 250.713 293.056 250.93 293.2 251.18C294.087 252.71 294.087 252.71 277.785 263.31C269.724 268.53 258.541 275.74 244.435 284.74C230.833 293.42 217.121 302.13 207.731 308.08C226.753 297.96 262.4 275.52 278.258 265.54C292.364 256.69 292.364 256.69 293.129 256.88C293.327 256.93 293.512 257.019 293.675 257.141C293.837 257.263 293.974 257.415 294.076 257.59C295.155 259.45 293.442 262.09 286.812 266.98C287.006 266.953 287.203 266.953 287.396 266.98C287.643 267.039 287.876 267.146 288.08 267.295C288.284 267.445 288.456 267.633 288.585 267.85C289.643 269.67 290.842 271.73 246.128 299.52C258.984 291.66 272.324 283.3 283.094 276.37C283.267 276.258 283.46 276.183 283.663 276.148C283.865 276.114 284.073 276.12 284.273 276.168C284.473 276.216 284.661 276.304 284.826 276.426C284.99 276.548 285.128 276.703 285.23 276.88C285.966 278.16 284.948 278.88 283.215 280.08C282.208 280.79 280.686 281.83 278.691 283.15C276.696 284.47 274.218 286.15 271.226 288.07C275.397 285.97 277.976 285.12 279.286 285.44C279.57 285.504 279.838 285.625 280.072 285.798C280.306 285.97 280.502 286.189 280.646 286.44C281.492 287.89 281.301 288.44 271.105 294.98C273.251 294.07 274.772 293.74 275.749 293.98C276.053 294.045 276.34 294.171 276.591 294.352C276.843 294.533 277.054 294.764 277.21 295.03C278.399 297.03 277.503 297.97 250.198 314.38C242.38 319.08 232.536 324.99 224.567 330.09L278.178 299.38C278.349 299.279 278.539 299.214 278.736 299.188C278.934 299.162 279.134 299.176 279.326 299.23C279.711 299.332 280.04 299.58 280.243 299.92C280.989 301.21 279.931 301.98 278.178 303.26C277.12 304.03 275.568 305.12 273.432 306.58C269.452 309.32 263.921 313.03 258.067 316.97C251.246 321.55 242.662 327.32 235.629 332.17C238.863 330.05 242.229 327.78 245.221 325.76C260.808 315.24 267.387 311.03 269.956 311.59C270.225 311.648 270.479 311.761 270.703 311.921C270.927 312.081 271.115 312.285 271.256 312.52C272.132 314.04 272.173 314.11 254.299 326.96C267.266 318.4 271.508 315.96 273.442 316.39C273.691 316.446 273.926 316.552 274.132 316.702C274.338 316.852 274.512 317.041 274.641 317.26C275.346 318.48 275.346 318.48 266.329 325.79C263.609 327.99 259.83 331.05 256.425 333.88C259.185 332.19 262.228 330.27 265.12 328.41C265.292 328.298 265.486 328.223 265.688 328.188C265.891 328.154 266.099 328.16 266.299 328.208C266.499 328.256 266.687 328.344 266.851 328.466C267.016 328.588 267.153 328.743 267.256 328.92C267.82 329.92 267.608 330.12 265.543 332.32C263.86 334.11 262.42 335.68 261.201 337.02C270.349 331.61 270.681 331.7 271.326 331.86C271.522 331.91 271.706 331.999 271.867 332.121C272.028 332.243 272.163 332.396 272.263 332.57C272.364 332.74 272.43 332.929 272.456 333.124C272.483 333.32 272.47 333.519 272.418 333.71C272.367 333.901 272.278 334.079 272.156 334.236C272.034 334.392 271.882 334.522 271.709 334.62C271.563 334.707 271.403 334.768 271.236 334.8C269.896 335.4 262.45 339.75 255.891 343.69C255.67 343.79 255.428 343.838 255.186 343.83ZM269.724 334C269.884 334.268 270.123 334.481 270.409 334.61C270.126 334.477 269.888 334.265 269.724 334ZM232.526 318.73C223.821 324.12 215.257 329.52 209.675 333.37C215.751 329.78 224.577 324 232.526 318.73ZM269.996 292.1C260.112 297.54 244.123 307.76 231.972 315.55C236.445 312.78 241.544 309.65 247.337 306.11C255.317 301.24 263.911 296 269.996 292.1ZM269.352 299.1C263.981 301.94 255.83 307.1 247.881 312.25L248.717 311.75C256.143 307.27 264.203 302.42 269.352 299.08V299.1ZM219.811 276.64C213.161 280.77 207.116 284.66 202.078 288C207.297 284.69 213.484 280.72 219.811 276.64ZM291.537 237.31C288.616 238.31 282.419 241.11 269.311 248.92C256.203 256.73 240.365 267 226.259 276.1C220.103 280.1 214.924 283.4 210.552 286.18C219.035 281 230.43 274.23 245.654 265.29C264.183 254.38 284.898 242.22 291.537 237.31ZM282.077 266.65L279.941 268C272.888 272.447 266.208 276.63 259.901 280.55C268.314 275.53 276.263 270.62 282.077 266.65ZM215.257 260C206.018 265.54 197.041 271 191.076 274.73C194.099 273.2 197.736 271.15 201.847 268.73C205.887 266 210.411 263.05 215.257 260ZM238.914 233.58C235.045 236.14 231.236 238.68 227.67 241.05C220.617 245.77 214.35 249.89 208.92 253.43L214.471 250.03C234.874 237.55 264.334 219.51 272.999 212.97C269.794 214.392 266.687 216.022 263.699 217.85C260.253 220.24 255.871 223.11 250.319 226.59C246.702 228.84 242.863 231.18 238.914 233.56V233.58Z" fill="white"/>
</g>
<path d="M233.785 183.55H233.11C196.577 184.22 169.041 211.96 169.041 246.09C169.025 256.282 171.53 266.323 176.336 275.33C178.351 280.08 183.227 291.71 188.053 306.75C192.527 320.63 194.864 334.6 194.864 336.75C194.864 336.95 194.864 337.16 194.864 337.39C194.844 338.018 194.951 338.643 195.179 339.228C195.406 339.814 195.75 340.349 196.19 340.8C196.63 341.251 197.157 341.611 197.739 341.856C198.321 342.102 198.947 342.229 199.58 342.23H265.009C265.642 342.229 266.267 342.102 266.85 341.856C267.432 341.611 267.959 341.251 268.398 340.8C268.838 340.349 269.182 339.814 269.41 339.228C269.637 338.643 269.744 338.018 269.724 337.39C269.724 337.16 269.724 336.95 269.724 336.75C269.724 334.64 272.062 320.67 276.525 306.75C281.361 291.75 286.187 280.08 288.243 275.33C293.267 265.894 295.777 255.34 295.531 244.67C295.286 234 292.295 223.57 286.842 214.372C281.389 205.173 273.656 197.512 264.378 192.118C255.1 186.723 244.586 183.773 233.836 183.55H233.785Z" stroke="#0089A6" stroke-width="2" stroke-linecap="round" stroke-linejoin="round"/>
<path d="M255.861 193.59C254.036 192.777 252.166 192.069 250.259 191.47" stroke="#0089A6" stroke-width="3" stroke-linecap="round" stroke-linejoin="round"/>
<path d="M276.858 209.47C276.858 209.47 271.719 201.37 260.425 195.86" stroke="#0089A6" stroke-width="3" stroke-linecap="round" stroke-linejoin="round"/>
<path d="M228.113 313.87V281.75C228.113 281.75 230.602 266.11 222.41 266.11C214.219 266.11 214.844 274.25 224.294 283C233.745 291.75 248.254 283.63 250.148 276.75C252.042 269.87 246.994 266.75 243.841 272.37C240.687 277.99 243.841 341.82 243.841 341.82" stroke="#0089A6" stroke-width="3" stroke-linecap="round" stroke-linejoin="round"/>
<path d="M210.592 167.3L214.078 178.19" stroke="#0089A6" stroke-width="3" stroke-linecap="round" stroke-linejoin="round"/>
<path d="M296.011 191.05L284.535 199.96" stroke="#0089A6" stroke-width="3" stroke-linecap="round" stroke-linejoin="round"/>
<path d="M253.462 159.35L249.14 178.19" stroke="#0089A6" stroke-width="3" stroke-linecap="round" stroke-linejoin="round"/>
<path d="M266.832 346.91H197.725C196.84 346.91 196.123 347.622 196.123 348.5V349.29C196.123 350.168 196.84 350.88 197.725 350.88H266.832C267.717 350.88 268.434 350.168 268.434 349.29V348.5C268.434 347.622 267.717 346.91 266.832 346.91Z" fill="#0089A6" stroke="#0089A6" stroke-linecap="round" stroke-linejoin="round"/>
<path d="M266.832 355.85H197.725C196.84 355.85 196.123 356.562 196.123 357.44V358.23C196.123 359.108 196.84 359.82 197.725 359.82H266.832C267.717 359.82 268.434 359.108 268.434 358.23V357.44C268.434 356.562 267.717 355.85 266.832 355.85Z" fill="#0089A6" stroke="#0089A6" stroke-linecap="round" stroke-linejoin="round"/>
<path d="M266.832 364.79H197.725C196.84 364.79 196.123 365.502 196.123 366.38V367.17C196.123 368.048 196.84 368.76 197.725 368.76H266.832C267.717 368.76 268.434 368.048 268.434 367.17V366.38C268.434 365.502 267.717 364.79 266.832 364.79Z" fill="#0089A6" stroke="#0089A6" stroke-linecap="round" stroke-linejoin="round"/>
<path d="M234.4 373.52H198.915L209.131 387.52C210.007 388.722 211.158 389.701 212.489 390.375C213.82 391.05 215.294 391.401 216.789 391.4H248.022C249.52 391.399 250.996 391.045 252.329 390.367C253.662 389.689 254.814 388.706 255.69 387.5L265.826 373.57L234.4 373.52Z" fill="#0089A6" stroke="#0089A6" stroke-linecap="round" stroke-linejoin="round"/>
<path d="M310.581 224C310.581 224 304.133 231 298.853 234.48C293.574 237.96 289.896 242.59 294.742 244.96C297.654 246.38 301.795 244.38 301.795 244.38C301.795 244.38 295.337 246.12 294.168 251.95C292.999 257.78 305.855 255.42 305.855 255.42C305.855 255.42 296.475 261.82 299.407 264.15C302.339 266.48 308.203 264.73 311.135 264.73C314.067 264.73 328.737 255.42 332.293 255.42C335.85 255.42 342.852 262.99 342.852 268.81C342.852 274.63 352.202 274.05 353.401 256C354.6 237.95 349.885 222.82 342.258 218.16C334.631 213.5 310.581 224 310.581 224Z" fill="white" stroke="#0089A6" stroke-miterlimit="10" stroke-linecap="round"/>
<path d="M307.064 243.77L330.469 235.09C330.469 235.09 340.746 232.88 348.122 244.94" stroke="#0089A6" stroke-miterlimit="10" stroke-linecap="round"/>
<path d="M311.165 250.76L332.323 247.27C332.323 247.27 341.714 246.69 347.577 257.75" stroke="#0089A6" stroke-miterlimit="10" stroke-linecap="round"/>
<path d="M336.978 264.73L321.139 268.23L330.519 305.48C330.519 305.48 338.741 321.78 341.078 328.77C343.416 335.76 367.476 359 367.476 359L395.626 332.22C395.626 332.22 382.73 317.09 382.145 313.59C381.561 310.09 379.203 269.35 379.203 263.53C379.203 257.71 367.476 243.73 367.476 243.73C367.476 243.73 362.66 236.88 360.312 225.24C357.964 213.6 347.214 208.81 341.33 209.39C335.446 209.97 319.376 211.72 312.928 216.39C306.479 221.06 300.605 226.87 306.479 228.62C316.222 231.52 332.161 218.62 339.849 227.54C343.375 231.61 347.537 249.54 348.121 251.91C348.121 251.91 345.189 262.97 336.978 264.71" fill="white"/>
<path d="M336.978 264.73L321.139 268.23L330.519 305.48C330.519 305.48 338.741 321.78 341.078 328.77C343.416 335.76 367.476 359 367.476 359L395.626 332.22C395.626 332.22 382.73 317.09 382.145 313.59C381.561 310.09 379.203 269.35 379.203 263.53C379.203 257.71 367.476 243.73 367.476 243.73C367.476 243.73 362.66 236.88 360.312 225.24C357.964 213.6 347.214 208.81 341.33 209.39C335.446 209.97 319.376 211.72 312.928 216.39C306.479 221.06 300.605 226.87 306.479 228.62C316.222 231.52 332.161 218.62 339.849 227.54C343.375 231.61 347.537 249.54 348.121 251.91C348.121 251.91 345.189 262.97 336.978 264.71" stroke="#0089A6" stroke-miterlimit="10" stroke-linecap="round"/>
<path d="M277.916 210.62C278.096 210.433 278.336 210.316 278.595 210.291C278.854 210.265 279.113 210.332 279.327 210.48L281.725 212.13C281.961 212.295 282.123 212.547 282.174 212.829C282.224 213.112 282.161 213.404 281.997 213.64C281.832 213.874 281.58 214.034 281.297 214.085C281.014 214.135 280.722 214.073 280.485 213.91L278.087 212.25C277.851 212.087 277.69 211.837 277.639 211.556C277.588 211.275 277.652 210.985 277.815 210.75C277.843 210.703 277.877 210.659 277.916 210.62Z" fill="#0089A6" stroke="#0089A6" stroke-miterlimit="10" stroke-linecap="round"/>
<path d="M280.666 212.54C281.073 212.108 281.624 211.837 282.216 211.776C282.809 211.716 283.403 211.87 283.89 212.21L291.407 216.05L365.199 264.23C365.828 264.664 366.365 265.217 366.778 265.857C367.192 266.497 367.475 267.211 367.611 267.96C367.747 268.708 367.732 269.476 367.569 270.219C367.406 270.962 367.097 271.666 366.66 272.29C366.222 272.914 365.665 273.447 365.021 273.858C364.376 274.269 363.656 274.55 362.902 274.684C362.148 274.819 361.374 274.805 360.626 274.643C359.877 274.481 359.168 274.174 358.539 273.74L286.923 221.3L281.069 216.3C280.801 216.115 280.571 215.879 280.394 215.606C280.217 215.333 280.097 215.028 280.038 214.709C279.98 214.389 279.986 214.061 280.056 213.744C280.126 213.427 280.258 213.127 280.445 212.86C280.508 212.746 280.582 212.639 280.666 212.54Z" fill="#006987" stroke="#0089A6" stroke-miterlimit="10" stroke-linecap="round"/>
<path d="M365.209 264.23L343.909 250.33C342.266 250.803 340.816 251.783 339.771 253.127C338.726 254.472 338.139 256.112 338.096 257.81C338.097 258.145 338.124 258.479 338.176 258.81L358.549 273.73C359.819 274.607 361.389 274.946 362.912 274.674C364.435 274.402 365.786 273.541 366.669 272.28C367.553 271.019 367.895 269.461 367.621 267.95C367.347 266.438 366.479 265.097 365.209 264.22V264.23Z" fill="#0089A6" stroke="#0089A6" stroke-miterlimit="10" stroke-linecap="round"/>
<path d="M341.119 328.77C334.671 319.46 326.459 295.59 322.983 290.93C319.507 286.27 310.026 275.93 306.51 265.49C302.994 255.05 300.687 246.69 300.687 237.95C300.687 229.21 308.253 227.71 314.117 237.03C319.981 246.35 327.013 260.66 327.013 260.66C327.013 260.66 331.709 266.48 341.119 264.73" fill="white"/>
<path d="M341.119 328.77C334.671 319.46 326.459 295.59 322.983 290.93C319.507 286.27 310.026 275.93 306.51 265.49C302.994 255.05 300.687 246.69 300.687 237.95C300.687 229.21 308.253 227.71 314.117 237.03C319.981 246.35 327.013 260.66 327.013 260.66C327.013 260.66 331.709 266.48 341.119 264.73" stroke="#0089A6" stroke-miterlimit="10" stroke-linecap="round"/>
<path d="M307.961 234.31L309.976 238.2C309.976 238.2 309.533 238.2 306.399 239.97C304.529 241.028 302.959 242.538 301.835 244.36C301.835 244.36 298.813 235.98 301.483 233.36C302.131 232.68 302.989 232.233 303.921 232.09C304.742 232.005 305.57 232.172 306.293 232.569C307.016 232.966 307.598 233.574 307.961 234.31Z" fill="white" stroke="#0089A6" stroke-miterlimit="10" stroke-linecap="round"/>
<path d="M389.481 320.36C389.481 320.36 373.955 324.92 365.895 332.92C360.557 338.319 355.56 344.04 350.933 350.05L365.32 366.61C365.32 366.61 377.411 352.9 385.471 346.61C390.961 342.425 396.727 338.61 402.73 335.19L389.481 320.36Z" fill="white" stroke="#0089A6" stroke-miterlimit="10" stroke-linecap="round"/>
<path d="M403.898 440.84L358.448 368.32C358.448 368.32 369.954 351.19 379.737 342.63C389.521 334.07 402.175 331.78 402.175 331.78L459 385.91" fill="#0089A6"/>
<path d="M403.898 440.84L358.448 368.32C358.448 368.32 369.954 351.19 379.737 342.63C389.521 334.07 402.175 331.78 402.175 331.78L459 385.91" stroke="#0089A6" stroke-miterlimit="10" stroke-linecap="round"/>
<path d="M316.333 255.49L317.341 255.39" stroke="#0089A6" stroke-miterlimit="10" stroke-linecap="round"/>
<path d="M307.558 260.33C307.558 260.33 308.092 257.14 314.55 255.8" stroke="#0089A6" stroke-miterlimit="10" stroke-linecap="round"/>
<path d="M314.57 258.08C314.57 258.08 314.117 259.43 309.593 261.23" stroke="#0089A6" stroke-miterlimit="10" stroke-linecap="round"/>
<path d="M314.389 253.81C312.125 254.163 309.974 255.028 308.102 256.34" stroke="#0089A6" stroke-miterlimit="10" stroke-linecap="round"/>
<path d="M172.617 154.35C172.617 154.35 182.128 155.12 188.153 157.11C194.178 159.1 200.103 159.11 199.004 153.89C198.35 150.74 194.219 148.73 194.219 148.73C194.219 148.73 199.569 152.73 204.919 150.06C210.269 147.39 200.496 138.73 200.496 138.73C200.496 138.73 211.357 142.15 211.407 138.42C211.458 134.69 206.47 131.17 204.667 128.87C202.863 126.57 186.461 120.8 184.294 118.05C182.128 115.3 183.831 105.13 188.466 101.55C193.1 97.97 186.874 91 171.851 101.14C156.829 111.28 147.671 124.27 148.587 133.14C149.504 142.01 172.617 154.35 172.617 154.35Z" fill="white" stroke="#0089A6" stroke-miterlimit="10" stroke-linecap="round"/>
<path d="M190.522 145L169.242 132C169.242 132 161.182 125.31 166.22 112.13" stroke="#0089A6" stroke-miterlimit="10" stroke-linecap="round"/>
<path d="M193.554 137.45L177.817 123.05C177.817 123.05 171.59 116.05 176.809 104.67" stroke="#0089A6" stroke-miterlimit="10" stroke-linecap="round"/>
<path d="M188.829 108.65L201.323 118.92L225.252 88.69C225.252 88.69 240.667 81.82 244.727 75.69C248.788 69.56 252.244 36.36 252.244 36.36L213.564 31C213.564 31 209.625 50.44 207.227 53.07C204.829 55.7 166.603 72.7 161.978 76.28C157.354 79.86 153.435 97.62 153.435 97.62C151.372 104.841 148.675 111.868 145.374 118.62C136.558 136.34 138.13 134.98 142.19 139.22C146.251 143.46 156.135 152.08 163.802 154.28C171.469 156.48 181.001 164.34 178.865 154.73C176.668 144.88 155.147 140.73 157.515 129.25C158.593 123.99 170.331 109.7 171.822 107.81C171.822 107.81 182.411 103.32 188.849 108.68" fill="white"/>
<path d="M188.829 108.65L201.323 118.92L225.252 88.69C225.252 88.69 240.667 81.82 244.727 75.69C248.788 69.56 252.244 36.36 252.244 36.36L213.564 31C213.564 31 209.625 50.44 207.227 53.07C204.829 55.7 166.603 72.7 161.978 76.28C157.354 79.86 153.435 97.62 153.435 97.62C151.372 104.841 148.675 111.868 145.374 118.62C136.558 136.34 138.13 134.98 142.19 139.22C146.251 143.46 156.135 152.08 163.802 154.28C171.469 156.48 181.001 164.34 178.865 154.73C176.668 144.88 155.147 140.73 157.515 129.25C158.593 123.99 170.331 109.7 171.822 107.81C171.822 107.81 182.411 103.32 188.849 108.68" stroke="#0089A6" stroke-miterlimit="10" stroke-linecap="round"/>
<path d="M182.048 188.15C181.787 188.131 181.542 188.02 181.357 187.836C181.172 187.653 181.06 187.409 181.041 187.15L180.89 184.25C180.87 184.102 180.88 183.952 180.922 183.809C180.963 183.666 181.033 183.532 181.129 183.418C181.225 183.303 181.343 183.209 181.477 183.142C181.611 183.074 181.758 183.035 181.907 183.027C182.057 183.019 182.207 183.041 182.348 183.093C182.488 183.145 182.617 183.226 182.725 183.329C182.833 183.433 182.918 183.557 182.975 183.695C183.032 183.833 183.059 183.981 183.056 184.13L183.217 187.03C183.234 187.313 183.137 187.592 182.949 187.805C182.76 188.018 182.495 188.149 182.21 188.17L182.048 188.15Z" fill="#0089A6" stroke="#0089A6" stroke-miterlimit="10" stroke-linecap="round"/>
<path d="M181.928 184.8C181.334 184.748 180.78 184.484 180.367 184.057C179.954 183.631 179.71 183.071 179.681 182.48L178.129 174.23L171.147 86.84C171.064 85.3057 171.599 83.8016 172.633 82.6586C173.668 81.5156 175.117 80.8272 176.663 80.745C178.209 80.6628 179.725 81.1934 180.876 82.2202C182.028 83.2469 182.721 84.6857 182.804 86.22L185.061 174.53L184.638 182.22C184.656 182.543 184.609 182.867 184.5 183.172C184.392 183.477 184.224 183.758 184.006 183.999C183.788 184.239 183.524 184.435 183.229 184.574C182.935 184.713 182.616 184.793 182.29 184.81C182.169 184.817 182.048 184.813 181.928 184.8Z" fill="#006987" stroke="#0089A6" stroke-miterlimit="10" stroke-linecap="round"/>
<path d="M171.096 86.84L173.111 112.06C174.493 113.064 176.16 113.604 177.872 113.604C179.584 113.604 181.251 113.064 182.633 112.06C182.901 111.852 183.153 111.625 183.388 111.38L182.753 86.26C182.671 84.7258 181.977 83.287 180.825 82.2602C179.674 81.2335 178.158 80.7028 176.613 80.785C175.067 80.8673 173.617 81.5556 172.583 82.6986C171.548 83.8417 171.013 85.3458 171.096 86.88V86.84Z" fill="#0089A6" stroke="#0089A6" stroke-miterlimit="10" stroke-linecap="round"/>
<path d="M244.677 75.65C241.372 86.46 226.783 101.32 224.244 106.56C218.55 118.432 211.963 129.862 204.536 140.75C202.028 144.48 199.317 145.01 197.665 146.35C195.247 148.35 194.008 150.4 189.877 153.58C182.935 158.94 177.091 153.95 180.9 143.64C184.708 133.33 191.7 119 191.7 119C191.7 119 193.453 111.75 186.31 105.47" fill="white"/>
<path d="M244.677 75.65C241.372 86.46 226.783 101.32 224.244 106.56C218.55 118.432 211.963 129.862 204.536 140.75C202.028 144.48 199.317 145.01 197.665 146.35C195.247 148.35 194.008 150.4 189.877 153.58C182.935 158.94 177.091 153.95 180.9 143.64C184.708 133.33 191.7 119 191.7 119C191.7 119 193.453 111.75 186.31 105.47" stroke="#0089A6" stroke-miterlimit="10" stroke-linecap="round"/>
<path d="M182.431 150.06L184.325 146.14C184.325 146.14 184.597 146.49 187.932 147.85C189.92 148.665 192.082 148.968 194.219 148.73C194.219 148.73 189.413 156.25 185.655 155.78C184.718 155.692 183.838 155.294 183.157 154.65C182.569 154.055 182.184 153.293 182.054 152.47C181.924 151.647 182.056 150.805 182.431 150.06Z" fill="white" stroke="#0089A6" stroke-miterlimit="10" stroke-linecap="round"/>
<path d="M210.3 -0.329975L202.29 51.3C202.29 51.3 211.952 59.73 224.788 62C237.624 64.27 261.06 67.71 261.06 67.71L281.573 -0.349976" fill="#0089A6"/>
<path d="M210.3 -0.329975L202.29 51.3C202.29 51.3 211.952 59.73 224.788 62C237.624 64.27 261.06 67.71 261.06 67.71L281.573 -0.349976" stroke="#0089A6" stroke-miterlimit="10" stroke-linecap="round"/>
<path d="M256.929 56.17C256.929 56.9473 256.697 57.7071 256.262 58.3534C255.827 58.9997 255.208 59.5034 254.485 59.8008C253.761 60.0983 252.965 60.1761 252.197 60.0245C251.429 59.8728 250.723 59.4985 250.17 58.9489C249.616 58.3993 249.239 57.699 249.086 56.9367C248.933 56.1744 249.011 55.3842 249.311 54.666C249.611 53.9479 250.118 53.3341 250.77 52.9023C251.421 52.4705 252.186 52.24 252.969 52.24C254.02 52.24 255.027 52.654 255.769 53.3911C256.512 54.1281 256.929 55.1277 256.929 56.17Z" fill="white" stroke="#0089A6" stroke-width="2" stroke-linecap="round" stroke-linejoin="round"/>
<path d="M191.207 137.31L190.532 136.63" stroke="#0089A6" stroke-miterlimit="10" stroke-linecap="round"/>
<path d="M200.437 141.22C200.437 141.22 197.575 142.76 192.548 138.53" stroke="#0089A6" stroke-miterlimit="10" stroke-linecap="round"/>
<path d="M194.34 137.1C194.34 137.1 195.69 136.63 199.901 139.1" stroke="#0089A6" stroke-miterlimit="10" stroke-linecap="round"/>
<path d="M191.065 139.88C192.735 141.431 194.741 142.58 196.929 143.24" stroke="#0089A6" stroke-miterlimit="10" stroke-linecap="round"/>
<path d="M193.958 308.17C193.958 308.17 194.875 317.6 196.981 323.55C199.086 329.5 199.207 335.38 193.898 334.37C190.714 333.76 188.628 329.7 188.628 329.7C188.628 329.7 192.729 334.95 190.129 340.29C187.53 345.63 178.644 336.07 178.644 336.07C178.644 336.07 182.25 346.79 178.502 346.9C174.754 347.01 171.117 342.11 168.78 340.36C166.442 338.61 160.377 322.36 157.566 320.3C154.755 318.24 144.548 320.03 141.022 324.68C137.496 329.33 130.342 323.26 140.357 308.15C150.372 293.04 163.299 283.75 172.205 284.59C181.112 285.43 193.958 308.17 193.958 308.17Z" fill="white" stroke="#0089A6" stroke-miterlimit="10" stroke-linecap="round"/>
<path d="M184.759 326.08L171.339 305.15C171.339 305.15 164.477 297.24 151.269 302.47" stroke="#0089A6" stroke-miterlimit="10" stroke-linecap="round"/>
<path d="M177.242 329.2L162.502 313.79C162.502 313.79 155.359 307.72 143.974 313.05" stroke="#0089A6" stroke-miterlimit="10" stroke-linecap="round"/>
<path d="M148.165 324.93L158.684 337.19L128.588 361.33C128.588 361.33 112.145 369.43 106.04 373.61C99.9341 377.79 66.5947 382 66.5947 382L60.3682 343.8C60.3682 343.8 79.8539 339.43 82.4332 336.99C85.0125 334.55 111.652 303.42 115.148 298.77C118.644 294.12 136.528 289.97 136.528 289.97C136.528 289.97 144.528 287.38 153.465 279.49C162.401 271.6 173.897 274.21 178.23 278.18C182.562 282.15 194.35 293.18 196.678 300.72C199.005 308.26 200.154 316.45 194.411 314.34C184.869 310.83 179.963 291.02 168.416 293.53C163.137 294.68 148.91 306.53 147.036 308.05C147.036 308.05 142.664 318.63 148.165 324.93Z" fill="white" stroke="#0089A6" stroke-miterlimit="10" stroke-linecap="round"/>
<path d="M228.144 317C228.125 316.741 228.013 316.497 227.828 316.313C227.643 316.13 227.397 316.018 227.136 316L224.214 315.89C224.071 315.885 223.929 315.907 223.795 315.957C223.661 316.006 223.538 316.081 223.433 316.178C223.328 316.274 223.244 316.391 223.184 316.52C223.124 316.649 223.091 316.788 223.086 316.93C223.08 317.072 223.103 317.213 223.153 317.346C223.203 317.479 223.279 317.601 223.376 317.705C223.473 317.809 223.59 317.893 223.72 317.952C223.85 318.011 223.991 318.045 224.134 318.05L227.055 318.16C227.337 318.169 227.611 318.07 227.821 317.883C228.031 317.697 228.161 317.438 228.184 317.16C228.176 317.105 228.163 317.052 228.144 317Z" fill="#0089A6" stroke="#0089A6" stroke-miterlimit="10" stroke-linecap="round"/>
<path d="M224.778 316.91C224.714 316.321 224.438 315.775 224.001 315.371C223.565 314.967 222.997 314.733 222.401 314.71L214.068 313.29L125.929 307.66C125.163 307.63 124.398 307.751 123.679 308.015C122.96 308.278 122.3 308.68 121.738 309.197C121.175 309.713 120.72 310.335 120.399 311.026C120.079 311.717 119.898 312.465 119.869 313.225C119.839 313.985 119.96 314.744 120.226 315.458C120.492 316.172 120.896 316.826 121.417 317.385C121.938 317.943 122.564 318.395 123.26 318.713C123.957 319.031 124.71 319.21 125.476 319.24L214.471 320.16L222.209 319.64C222.868 319.664 223.509 319.428 223.992 318.984C224.476 318.54 224.762 317.923 224.788 317.27C224.795 317.15 224.792 317.029 224.778 316.91Z" fill="#006987" stroke="#0089A6" stroke-miterlimit="10" stroke-linecap="round"/>
<path d="M125.928 307.66L151.358 309.29C152.385 310.649 152.95 312.298 152.97 313.997C152.99 315.696 152.464 317.357 151.469 318.74C151.257 319.005 151.032 319.258 150.794 319.5L125.505 319.24C124.739 319.21 123.986 319.031 123.29 318.713C122.593 318.395 121.967 317.943 121.446 317.385C120.926 316.826 120.521 316.172 120.255 315.458C119.99 314.744 119.868 313.985 119.898 313.225C119.928 312.465 120.108 311.717 120.429 311.026C120.749 310.335 121.204 309.713 121.767 309.197C122.33 308.68 122.989 308.278 123.709 308.015C124.428 307.751 125.192 307.63 125.958 307.66H125.928Z" fill="#0089A6" stroke="#0089A6" stroke-miterlimit="10" stroke-linecap="round"/>
<path d="M106.04 373.61C116.841 370.03 137.878 355.88 143.51 354.26C149.142 352.64 162.926 350.06 172.094 343.8C181.263 337.54 188.144 332.26 193.444 325.28C198.743 318.3 193.625 312.59 183.288 316.52C172.951 320.45 158.593 327.64 158.593 327.64C158.593 327.64 151.319 329.48 144.881 322.48" fill="white"/>
<path d="M106.04 373.61C116.841 370.03 137.878 355.88 143.51 354.26C149.142 352.64 162.926 350.06 172.094 343.8C181.263 337.54 188.144 332.26 193.444 325.28C198.743 318.3 193.625 312.59 183.288 316.52C172.951 320.45 158.593 327.64 158.593 327.64C158.593 327.64 151.319 329.48 144.881 322.48" stroke="#0089A6" stroke-miterlimit="10" stroke-linecap="round"/>
<path d="M189.787 318L185.857 319.93C185.857 319.93 186.22 320.2 187.641 323.48C188.502 325.442 188.849 327.589 188.648 329.72C188.648 329.72 196.154 324.84 195.62 321.11C195.517 320.181 195.106 319.312 194.452 318.64C193.84 318.061 193.06 317.688 192.223 317.573C191.386 317.458 190.534 317.608 189.787 318Z" fill="white" stroke="#0089A6" stroke-miterlimit="10" stroke-linecap="round"/>
<path d="M80.3476 335.57C80.3476 335.57 89.9797 348.5 91.5615 359.7C92.5487 367.198 93.0669 374.749 93.1131 382.31L63.7031 389.31C63.7031 389.31 62.3732 371.15 59.7536 361.31C57.909 354.689 55.6202 348.198 52.9023 341.88L80.3476 335.57Z" fill="white" stroke="#0089A6" stroke-miterlimit="10" stroke-linecap="round"/>
<path d="M81.688 358.13C79.0684 345.45 70.3532 336.06 70.3532 336.06L0.762695 347.06V425.06L83.0985 391.35C83.0985 391.35 84.2975 370.81 81.688 358.13Z" fill="#0089A6" stroke="#0089A6" stroke-miterlimit="10" stroke-linecap="round"/>
<path d="M63.0386 392C63.0505 392.61 62.8784 393.21 62.5443 393.722C62.2101 394.235 61.7293 394.636 61.1636 394.875C60.5978 395.114 59.973 395.18 59.3693 395.063C58.7657 394.947 58.2108 394.655 57.7761 394.223C57.3413 393.792 57.0464 393.241 56.9294 392.642C56.8124 392.043 56.8785 391.423 57.1193 390.861C57.3601 390.299 57.7646 389.822 58.2808 389.491C58.7969 389.159 59.4012 388.988 60.016 389C60.8128 389.015 61.5726 389.336 62.1362 389.896C62.6997 390.455 63.0231 391.209 63.0386 392Z" fill="white"/>
<path d="M71.6837 388.36C71.6817 388.965 71.4992 389.555 71.1592 390.057C70.8192 390.559 70.337 390.95 69.7735 391.18C69.21 391.41 68.5904 391.469 67.993 391.35C67.3956 391.231 66.8472 390.938 66.417 390.51C65.9869 390.082 65.6942 389.537 65.5761 388.943C65.4579 388.35 65.5196 387.735 65.7532 387.177C65.9869 386.618 66.382 386.141 66.8888 385.805C67.3956 385.469 67.9913 385.29 68.6006 385.29C69.0063 385.29 69.4081 385.369 69.7828 385.524C70.1575 385.678 70.4978 385.904 70.7842 386.19C71.0707 386.475 71.2975 386.813 71.4519 387.186C71.6062 387.558 71.685 387.957 71.6837 388.36Z" fill="white"/>
<path d="M170.241 329.89L169.556 329.23" stroke="#0089A6" stroke-miterlimit="10" stroke-linecap="round"/>
<path d="M174.32 339C174.32 339 175.832 336.13 171.489 331.2" stroke="#0089A6" stroke-miterlimit="10" stroke-linecap="round"/>
<path d="M170.09 333C170.09 333 169.627 334.35 172.155 338.49" stroke="#0089A6" stroke-miterlimit="10" stroke-linecap="round"/>
<path d="M172.859 329.71C174.451 331.345 175.641 333.323 176.335 335.49" stroke="#0089A6" stroke-miterlimit="10" stroke-linecap="round"/>
</g>
<defs>
<clipPath id="clip0_651_227">
<rect width="458.429" height="481" fill="white" transform="translate(0.571289)"/>
</clipPath>
</defs>
</svg>
