<svg width="49" height="49" viewBox="0 0 49 49" fill="none" xmlns="http://www.w3.org/2000/svg">
<path fill-rule="evenodd" clip-rule="evenodd" d="M24.5 6.125C19.5094 6.125 18.8846 6.14583 16.9246 6.23525C14.9683 6.32468 13.6318 6.63582 12.4632 7.0903C11.2381 7.5509 10.1271 8.27365 9.20832 9.20955C8.27392 10.1272 7.55073 11.2375 7.08908 12.4632C6.63705 13.6318 6.32468 14.9695 6.23525 16.9258C6.14705 18.8846 6.125 19.5081 6.125 24.5C6.125 29.4919 6.14583 30.1154 6.23525 32.0754C6.32468 34.0317 6.63582 35.3682 7.0903 36.5368C7.5509 37.7619 8.27365 38.8729 9.20955 39.7917C10.1273 40.726 11.2375 41.4492 12.4632 41.9109C13.6318 42.3642 14.9683 42.6753 16.9246 42.7648C18.8846 42.8542 19.5094 42.875 24.5 42.875C29.4907 42.875 30.1154 42.8542 32.0754 42.7648C34.0317 42.6753 35.3682 42.3642 36.5368 41.9097C37.7619 41.4491 38.8729 40.7264 39.7917 39.7905C40.7261 38.8728 41.4493 37.7625 41.9109 36.5368C42.3642 35.3682 42.6753 34.0317 42.7648 32.0754C42.8542 30.1154 42.875 29.4907 42.875 24.5C42.875 19.5094 42.8542 18.8846 42.7648 16.9246C42.6753 14.9683 42.3642 13.6318 41.9097 12.4632C41.4484 11.237 40.7252 10.1262 39.7905 9.20832C38.8728 8.27392 37.7625 7.55073 36.5368 7.08908C35.3682 6.63705 34.0305 6.32468 32.0742 6.23525C30.1154 6.14705 29.4919 6.125 24.5 6.125ZM24.5 9.43618C29.4061 9.43618 29.988 9.45455 31.926 9.54275C33.7169 9.62483 34.6896 9.9225 35.3376 10.1761C36.1951 10.508 36.8076 10.9074 37.4507 11.5493C38.0938 12.1924 38.492 12.8049 38.8239 13.6624C39.0763 14.3104 39.3752 15.2831 39.4572 17.074C39.5454 19.012 39.5638 19.5939 39.5638 24.5C39.5638 29.4061 39.5454 29.988 39.4572 31.926C39.3752 33.7169 39.0775 34.6896 38.8239 35.3376C38.5298 36.1357 38.0606 36.8578 37.4507 37.4507C36.8579 38.0607 36.1358 38.53 35.3376 38.8239C34.6896 39.0763 33.7169 39.3752 31.926 39.4572C29.988 39.5454 29.4074 39.5638 24.5 39.5638C19.5927 39.5638 19.012 39.5454 17.074 39.4572C15.2831 39.3752 14.3104 39.0775 13.6624 38.8239C12.8643 38.5298 12.1422 38.0606 11.5493 37.4507C10.9395 36.8577 10.4702 36.1357 10.1761 35.3376C9.92372 34.6896 9.62483 33.7169 9.54275 31.926C9.45455 29.988 9.43618 29.4061 9.43618 24.5C9.43618 19.5939 9.45455 19.012 9.54275 17.074C9.62483 15.2831 9.9225 14.3104 10.1761 13.6624C10.508 12.8049 10.9074 12.1924 11.5493 11.5493C12.1421 10.9393 12.8642 10.47 13.6624 10.1761C14.3104 9.92372 15.2831 9.62483 17.074 9.54275C19.012 9.45455 19.5939 9.43618 24.5 9.43618Z" fill="#6B6B6B"/>
<path fill-rule="evenodd" clip-rule="evenodd" d="M24.4999 30.6311C23.6948 30.6311 22.8975 30.4725 22.1536 30.1644C21.4098 29.8562 20.7339 29.4046 20.1646 28.8353C19.5952 28.266 19.1436 27.5901 18.8355 26.8462C18.5274 26.1024 18.3688 25.3051 18.3688 24.4999C18.3688 23.6948 18.5274 22.8975 18.8355 22.1537C19.1436 21.4098 19.5952 20.7339 20.1646 20.1646C20.7339 19.5952 21.4098 19.1436 22.1536 18.8355C22.8975 18.5274 23.6948 18.3688 24.4999 18.3688C26.126 18.3688 27.6855 19.0148 28.8353 20.1646C29.9851 21.3144 30.631 22.8739 30.631 24.4999C30.631 26.126 29.9851 27.6855 28.8353 28.8353C27.6855 29.9851 26.126 30.6311 24.4999 30.6311ZM24.4999 15.0552C21.995 15.0552 19.5927 16.0503 17.8215 17.8215C16.0502 19.5927 15.0552 21.995 15.0552 24.4999C15.0552 27.0048 16.0502 29.4071 17.8215 31.1784C19.5927 32.9496 21.995 33.9447 24.4999 33.9447C27.0048 33.9447 29.4071 32.9496 31.1784 31.1784C32.9496 29.4071 33.9447 27.0048 33.9447 24.4999C33.9447 21.995 32.9496 19.5927 31.1784 17.8215C29.4071 16.0503 27.0048 15.0552 24.4999 15.0552ZM36.6923 14.8837C36.6923 15.4758 36.4571 16.0437 36.0384 16.4623C35.6198 16.881 35.0519 17.1162 34.4598 17.1162C33.8677 17.1162 33.2998 16.881 32.8811 16.4623C32.4624 16.0437 32.2272 15.4758 32.2272 14.8837C32.2272 14.2916 32.4624 13.7237 32.8811 13.305C33.2998 12.8863 33.8677 12.6511 34.4598 12.6511C35.0519 12.6511 35.6198 12.8863 36.0384 13.305C36.4571 13.7237 36.6923 14.2916 36.6923 14.8837Z" fill="#6B6B6B"/>
</svg>
