<svg width="65" height="69" viewBox="0 0 65 69" fill="none" xmlns="http://www.w3.org/2000/svg">
<g id="settings">
<path id="Combined Shape" d="M25.1276 4.74254L23.2303 4.11009L23.2303 4.11009L25.1276 4.74254ZM22.57 12.4155L23.3912 14.2391L24.1902 13.8793L24.4673 13.048L22.57 12.4155ZM18.3451 14.8591L17.9441 16.8185L18.8041 16.9945L19.5158 16.4807L18.3451 14.8591ZM10.4157 13.2365L10.8166 11.2771H10.8166L10.4157 13.2365ZM8.28268 14.1959L6.55063 13.1959L8.28268 14.1959ZM2.80753 23.6791L4.53958 24.6791L2.80753 23.6791ZM3.04317 26.0061L4.53958 24.6791H4.53958L3.04317 26.0061ZM8.41307 32.0618L10.4031 32.2608L10.4903 31.3898L9.90947 30.7348L8.41307 32.0618ZM8.41307 36.9382L9.90947 38.2652L10.4903 37.6102L10.4031 36.7392L8.41307 36.9382ZM3.04317 42.9939L4.53957 44.3209L4.53957 44.3209L3.04317 42.9939ZM2.80752 45.3209L1.07547 46.3209H1.07547L2.80752 45.3209ZM8.28267 54.8041L10.0147 53.8041H10.0147L8.28267 54.8041ZM10.4157 55.7635L10.8166 57.7229H10.8166L10.4157 55.7635ZM18.3451 54.1409L19.5158 52.5193L18.8041 52.0055L17.9441 52.1815L18.3451 54.1409ZM22.57 56.5845L24.4673 55.952L24.1902 55.1207L23.3912 54.7609L22.57 56.5845ZM25.1276 64.2575L27.025 63.625H27.025L25.1276 64.2575ZM39.8727 64.2575L41.77 64.8899L39.8727 64.2575ZM42.4303 56.5845L41.6091 54.7609L40.81 55.1207L40.5329 55.952L42.4303 56.5845ZM46.6552 54.1409L47.0562 52.1815L46.1962 52.0055L45.4845 52.5193L46.6552 54.1409ZM54.5846 55.7635L54.1836 57.7229L54.5846 55.7635ZM56.7176 54.8041L54.9856 53.8041L54.9855 53.8041L56.7176 54.8041ZM62.1928 45.3209L63.9248 46.3209L63.9248 46.3209L62.1928 45.3209ZM61.9571 42.9939L60.4607 44.3209L60.4607 44.3209L61.9571 42.9939ZM56.5872 36.9382L54.5971 36.7392L54.51 37.6102L55.0908 38.2652L56.5872 36.9382ZM56.5872 32.0618L55.0908 30.7348L54.51 31.3898L54.5971 32.2608L56.5872 32.0618ZM61.9571 26.0061L60.4607 24.6791L61.9571 26.0061ZM62.1928 23.6791L63.9248 22.6791V22.6791L62.1928 23.6791ZM56.7176 14.1959L54.9855 15.1959V15.1959L56.7176 14.1959ZM54.5846 13.2365L54.1836 11.2771H54.1836L54.5846 13.2365ZM46.6552 14.8591L45.4845 16.4807L46.1962 16.9945L47.0562 16.8185L46.6552 14.8591ZM42.4303 12.4155L40.5329 13.048L40.81 13.8793L41.6091 14.2391L42.4303 12.4155ZM39.8727 4.74254L41.77 4.11009V4.11009L39.8727 4.74254ZM27.025 5.375V5.375V1.375C25.3033 1.375 23.7747 2.47672 23.2303 4.11009L27.025 5.375ZM24.4673 13.048L27.025 5.375L23.2303 4.11009L20.6726 11.7831L24.4673 13.048ZM19.5158 16.4807C20.7228 15.6093 22.0203 14.8565 23.3912 14.2391L21.7487 10.5919C20.1294 11.3212 18.5979 12.2098 17.1744 13.2376L19.5158 16.4807ZM10.0147 15.1959L17.9441 16.8185L18.746 12.8997L10.8166 11.2771L10.0147 15.1959ZM10.0147 15.1959L10.0147 15.1959L10.8166 11.2771C9.12988 10.9319 7.41149 11.7048 6.55063 13.1959L10.0147 15.1959ZM4.53958 24.6791L10.0147 15.1959L6.55063 13.1959L1.07548 22.6791L4.53958 24.6791ZM4.53958 24.6791L4.53958 24.6791L1.07548 22.6791C0.214617 24.1702 0.404455 26.0448 1.54677 27.333L4.53958 24.6791ZM9.90947 30.7348L4.53958 24.6791L1.54677 27.333L6.91666 33.3887L9.90947 30.7348ZM10.2918 34.5C10.2918 33.7436 10.3295 32.9966 10.4031 32.2608L6.423 31.8627C6.33619 32.7306 6.2918 33.6104 6.2918 34.5H10.2918ZM10.4031 36.7392C10.3295 36.0034 10.2918 35.2564 10.2918 34.5H6.2918C6.2918 35.3896 6.33619 36.2694 6.423 37.1373L10.4031 36.7392ZM4.53957 44.3209L9.90947 38.2652L6.91666 35.6113L1.54676 41.667L4.53957 44.3209ZM4.53958 44.3209L4.53957 44.3209L1.54677 41.667C0.404451 42.9552 0.214613 44.8298 1.07547 46.3209L4.53958 44.3209ZM10.0147 53.8041L4.53957 44.3209L1.07547 46.3209L6.55062 55.8041L10.0147 53.8041ZM10.0147 53.8041H10.0147L6.55062 55.8041C7.41148 57.2952 9.12988 58.0681 10.8166 57.7229L10.0147 53.8041ZM17.9441 52.1815L10.0147 53.8041L10.8166 57.7229L18.746 56.1003L17.9441 52.1815ZM23.3912 54.7609C22.0203 54.1435 20.7228 53.3907 19.5158 52.5193L17.1744 55.7624C18.5979 56.7902 20.1294 57.6788 21.7487 58.4081L23.3912 54.7609ZM27.025 63.625L24.4673 55.952L20.6726 57.2169L23.2303 64.8899L27.025 63.625ZM27.025 63.625H27.025L23.2303 64.8899C23.7747 66.5233 25.3033 67.625 27.025 67.625V63.625ZM37.9753 63.625H27.025V67.625H37.9753V63.625ZM37.9753 63.625V67.625C39.697 67.625 41.2256 66.5233 41.77 64.8899L37.9753 63.625ZM40.5329 55.952L37.9753 63.625L41.77 64.8899L44.3277 57.2169L40.5329 55.952ZM45.4845 52.5193C44.2775 53.3907 42.98 54.1435 41.6091 54.7609L43.2516 58.4081C44.8709 57.6788 46.4023 56.7902 47.8259 55.7624L45.4845 52.5193ZM54.9856 53.8041L47.0562 52.1815L46.2542 56.1003L54.1836 57.7229L54.9856 53.8041ZM54.9855 53.8041L54.9856 53.8041L54.1836 57.7229C55.8704 58.0681 57.5888 57.2952 58.4497 55.8041L54.9855 53.8041ZM60.4607 44.3209L54.9856 53.8041L58.4497 55.8041L63.9248 46.3209L60.4607 44.3209ZM60.4607 44.3209L60.4607 44.3209L63.9248 46.3209C64.7857 44.8298 64.5958 42.9552 63.4535 41.667L60.4607 44.3209ZM55.0908 38.2652L60.4607 44.3209L63.4535 41.667L58.0836 35.6113L55.0908 38.2652ZM54.7085 34.5C54.7085 35.2564 54.6707 36.0034 54.5971 36.7392L58.5773 37.1373C58.6641 36.2694 58.7085 35.3896 58.7085 34.5H54.7085ZM54.5971 32.2608C54.6707 32.9966 54.7085 33.7436 54.7085 34.5H58.7085C58.7085 33.6104 58.6641 32.7306 58.5773 31.8627L54.5971 32.2608ZM60.4607 24.6791L55.0908 30.7348L58.0836 33.3887L63.4535 27.333L60.4607 24.6791ZM60.4607 24.6791V24.6791L63.4535 27.333C64.5958 26.0448 64.7857 24.1702 63.9248 22.6791L60.4607 24.6791ZM54.9855 15.1959L60.4607 24.6791L63.9248 22.6791L58.4497 13.1959L54.9855 15.1959ZM54.9855 15.1959V15.1959L58.4497 13.1959C57.5888 11.7048 55.8704 10.9319 54.1836 11.2771L54.9855 15.1959ZM47.0562 16.8185L54.9856 15.1959L54.1836 11.2771L46.2542 12.8997L47.0562 16.8185ZM41.6091 14.2391C42.98 14.8565 44.2775 15.6093 45.4845 16.4807L47.8259 13.2376C46.4023 12.2098 44.8709 11.3212 43.2516 10.5919L41.6091 14.2391ZM37.9753 5.375L40.5329 13.048L44.3277 11.7831L41.77 4.11009L37.9753 5.375ZM37.9753 5.375V5.375L41.77 4.11009C41.2256 2.47672 39.697 1.375 37.9753 1.375V5.375ZM27.025 5.375H37.9753V1.375H27.025V5.375Z" fill="#FF8A00"/>
<path id="Oval" fill-rule="evenodd" clip-rule="evenodd" d="M32.4998 37.9583C34.4098 37.9583 35.9582 36.4099 35.9582 34.5C35.9582 32.59 34.4098 31.0416 32.4998 31.0416C30.5899 31.0416 29.0415 32.59 29.0415 34.5C29.0415 36.4099 30.5899 37.9583 32.4998 37.9583Z" stroke="#FF8A00" stroke-width="4"/>
</g>
</svg>
