<svg width="49" height="49" viewBox="0 0 49 49" fill="none" xmlns="http://www.w3.org/2000/svg">
<path d="M42.875 8.82721V40.1728C42.875 40.8895 42.5903 41.5768 42.0835 42.0835C41.5768 42.5903 40.8895 42.875 40.1728 42.875H8.82721C8.11054 42.875 7.42322 42.5903 6.91646 42.0835C6.4097 41.5768 6.125 40.8895 6.125 40.1728V8.82721C6.125 8.11054 6.4097 7.42322 6.91646 6.91646C7.42322 6.4097 8.11054 6.125 8.82721 6.125H40.1728C40.8895 6.125 41.5768 6.4097 42.0835 6.91646C42.5903 7.42322 42.875 8.11054 42.875 8.82721V8.82721ZM16.9338 20.1765H11.5294V37.4706H16.9338V20.1765ZM17.4202 14.2316C17.4231 13.8228 17.3454 13.4175 17.1916 13.0387C17.0377 12.6599 16.8108 12.3152 16.5238 12.0241C16.2367 11.733 15.8951 11.5013 15.5185 11.3423C15.1419 11.1832 14.7377 11.0999 14.3289 11.0971H14.2316C13.4003 11.0971 12.603 11.4273 12.0151 12.0151C11.4273 12.603 11.0971 13.4003 11.0971 14.2316C11.0971 15.063 11.4273 15.8602 12.0151 16.4481C12.603 17.0359 13.4003 17.3662 14.2316 17.3662V17.3662C14.6404 17.3762 15.0472 17.3056 15.4288 17.1584C15.8103 17.0112 16.1591 16.7903 16.4552 16.5082C16.7513 16.2261 16.989 15.8885 17.1545 15.5146C17.3201 15.1406 17.4104 14.7377 17.4202 14.3289V14.2316ZM37.4706 26.9644C37.4706 21.7654 34.1631 19.7441 30.8772 19.7441C29.8013 19.6902 28.7302 19.9194 27.7705 20.4087C26.8108 20.898 25.9962 21.6304 25.4079 22.5328H25.2566V20.1765H20.1765V37.4706H25.5809V28.2723C25.5028 27.3302 25.7995 26.3954 26.4067 25.6708C27.0138 24.9463 27.8823 24.4906 28.8235 24.4027H29.0289C30.7475 24.4027 32.0229 25.4836 32.0229 28.2074V37.4706H37.4274L37.4706 26.9644Z" fill="#6B6B6B"/>
</svg>
