<svg width="407" height="449" viewBox="0 0 407 449" fill="none" xmlns="http://www.w3.org/2000/svg">
<g clip-path="url(#clip0_660_657)">
<path d="M357.05 101.844C356.992 101.856 356.933 101.856 356.875 101.844C356.716 101.798 356.582 101.69 356.502 101.544C356.422 101.399 356.404 101.228 356.45 101.069C367.638 63.7853 359.6 31.0296 334.95 13.2822C312.35 -2.91428 281.525 -2.66415 258.238 13.9326C192.35 60.8712 141.988 69.9638 89.7876 44.362C89.7138 44.3259 89.6477 44.2756 89.5933 44.2139C89.5389 44.1522 89.4971 44.0804 89.4704 44.0026C89.4437 43.9248 89.4326 43.8425 89.4377 43.7604C89.4428 43.6783 89.464 43.598 89.5001 43.5241C89.5362 43.4502 89.5866 43.3841 89.6482 43.3296C89.7098 43.2752 89.7816 43.2334 89.8593 43.2067C89.9371 43.18 90.0194 43.1689 90.1014 43.174C90.1835 43.1791 90.2638 43.2003 90.3376 43.2364C142.063 68.613 192.05 59.4955 257.513 12.907C281.263 -3.98988 312.65 -4.24003 335.675 12.2692C360.788 30.2792 369 63.5477 357.65 101.431C357.606 101.554 357.524 101.66 357.416 101.734C357.309 101.808 357.181 101.847 357.05 101.844Z" fill="#83A9FF"/>
<path d="M315.688 293.501C303.054 293.442 290.611 290.413 279.363 284.658C233.113 261.358 197.138 262.408 183.275 287.46C183.236 287.532 183.183 287.596 183.119 287.648C183.055 287.7 182.981 287.738 182.902 287.762C182.823 287.785 182.74 287.792 182.659 287.784C182.577 287.775 182.497 287.75 182.425 287.71C182.281 287.628 182.175 287.494 182.128 287.335C182.082 287.177 182.099 287.006 182.175 286.86C196.413 261.145 232.95 259.907 279.925 283.533C291.156 289.349 303.634 292.339 316.279 292.245C328.925 292.152 341.357 288.977 352.5 282.995C380.113 268.624 400.838 239.646 405.3 209.204C405.312 209.123 405.341 209.044 405.383 208.974C405.425 208.903 405.481 208.842 405.548 208.793C405.614 208.744 405.689 208.709 405.769 208.69C405.849 208.67 405.931 208.666 406.013 208.679C406.175 208.706 406.321 208.796 406.419 208.929C406.517 209.062 406.559 209.228 406.538 209.391C402.013 240.259 381.025 269.587 353.075 284.133C341.552 290.232 328.724 293.446 315.688 293.501Z" fill="#83A9FF"/>
<path d="M393.25 220.435H393.038C392.882 220.379 392.755 220.263 392.684 220.112C392.614 219.962 392.606 219.79 392.663 219.635C406.075 182.752 386.938 168.018 368.425 153.76C350.925 140.253 332.738 126.245 343.075 93.802C343.099 93.7231 343.139 93.6498 343.192 93.5866C343.245 93.5233 343.31 93.4715 343.384 93.4341C343.457 93.3967 343.537 93.3746 343.62 93.3691C343.702 93.3635 343.785 93.3746 343.863 93.4018C343.94 93.4259 344.012 93.4653 344.074 93.5175C344.136 93.5697 344.187 93.6337 344.225 93.7058C344.262 93.778 344.284 93.8568 344.291 93.9377C344.297 94.0186 344.288 94.1001 344.263 94.1772C334.25 125.795 351.188 138.827 369.25 152.735C388.113 167.255 407.625 182.276 393.9 220.022C393.857 220.156 393.769 220.271 393.65 220.347C393.531 220.422 393.39 220.453 393.25 220.435Z" fill="#83A9FF"/>
<path opacity="0.1" d="M381.412 226.451C372.275 257.531 337.425 281.344 305.9 273.977C267.675 264.985 247.525 232.392 254.3 200.711C261.075 169.031 296.362 185.303 328.05 178.512C368.7 169.744 390.5 195.359 381.412 226.451Z" fill="#83A9FF"/>
<path d="M199.488 47.8513C199.594 48.7003 199.446 49.5618 199.061 50.3261C198.677 51.0905 198.074 51.7233 197.33 52.144C196.585 52.5648 195.732 52.7546 194.88 52.6892C194.027 52.6239 193.213 52.3064 192.541 51.777C191.869 51.2477 191.37 50.5305 191.106 49.7165C190.843 48.9024 190.827 48.0284 191.061 47.2055C191.295 46.3826 191.769 45.6478 192.421 45.0947C193.074 44.5416 193.876 44.1951 194.726 44.0992C195.853 43.972 196.985 44.2945 197.877 44.9968C198.768 45.6992 199.347 46.7248 199.488 47.8513Z" fill="#263238"/>
<path d="M195.2 53.2547C194.25 53.2535 193.32 52.9773 192.523 52.4593C191.726 51.9413 191.096 51.2037 190.709 50.3353C190.322 49.467 190.194 48.5051 190.34 47.5656C190.487 46.6261 190.903 45.7492 191.536 45.0406C192.17 44.3321 192.995 43.8221 193.912 43.5723C194.829 43.3225 195.799 43.3434 196.704 43.6326C197.61 43.9219 198.412 44.467 199.015 45.2023C199.617 45.9376 199.994 46.8317 200.1 47.7766C200.228 49.0733 199.845 50.3687 199.032 51.3871C198.22 52.4054 197.042 53.0665 195.75 53.2296C195.568 53.2502 195.384 53.2585 195.2 53.2547ZM195.2 44.6374H194.8C194.078 44.7184 193.397 45.0117 192.841 45.4803C192.286 45.9488 191.882 46.5716 191.68 47.2699C191.478 47.9682 191.487 48.7107 191.707 49.4036C191.927 50.0965 192.347 50.7087 192.914 51.1628C193.482 51.6169 194.171 51.8926 194.895 51.955C195.618 52.0174 196.344 51.8637 196.981 51.5134C197.618 51.1631 198.136 50.6318 198.471 49.9867C198.806 49.3417 198.942 48.6117 198.863 47.8892C198.743 46.998 198.308 46.1794 197.635 45.5826C196.963 44.9858 196.099 44.6503 195.2 44.6374Z" fill="#83A9FF"/>
<path d="M348 93.4769C348.106 94.3265 347.958 95.1885 347.573 95.9534C347.188 96.7182 346.585 97.3513 345.84 97.772C345.094 98.1927 344.241 98.382 343.388 98.3159C342.534 98.2498 341.72 97.9311 341.048 97.4006C340.377 96.87 339.878 96.1515 339.616 95.3365C339.354 94.5215 339.339 93.6469 339.575 92.8238C339.811 92.0008 340.287 91.2667 340.941 90.7148C341.595 90.1629 342.399 89.8183 343.25 89.7248C344.375 89.6011 345.504 89.9252 346.393 90.6272C347.282 91.3292 347.859 92.3528 348 93.4769Z" fill="#263238"/>
<path d="M343.663 98.8925C342.869 98.9005 342.085 98.7168 341.377 98.3571C340.67 97.9974 340.059 97.4723 339.597 96.8262C339.135 96.1801 338.836 95.4322 338.725 94.6458C338.613 93.8593 338.693 93.0576 338.957 92.3086C339.221 91.5596 339.662 90.8853 340.242 90.343C340.822 89.8007 341.524 89.4063 342.289 89.1932C343.054 88.9802 343.859 88.9548 344.635 89.1192C345.412 89.2836 346.137 89.6329 346.75 90.1376C347.769 90.9607 348.424 92.1507 348.575 93.4519C348.712 94.7518 348.336 96.0536 347.525 97.079C346.702 98.0616 345.526 98.6815 344.25 98.8049C344.057 98.8484 343.861 98.8777 343.663 98.8925ZM343.663 90.2752C343.526 90.2627 343.388 90.2627 343.25 90.2752C342.764 90.3203 342.292 90.4631 341.863 90.6953C341.433 90.9274 341.055 91.2439 340.75 91.6259C340.447 92.004 340.221 92.4384 340.086 92.9042C339.951 93.37 339.909 93.8579 339.963 94.3399C340.088 95.3025 340.581 96.179 341.339 96.7854C342.097 97.3917 343.059 97.6808 344.025 97.5917C345.006 97.4838 345.904 96.9941 346.525 96.2285C346.828 95.8524 347.052 95.4198 347.185 94.9559C347.318 94.492 347.357 94.0062 347.3 93.527C347.207 92.6248 346.782 91.7896 346.107 91.1839C345.433 90.5782 344.557 90.2454 343.65 90.2502L343.663 90.2752Z" fill="#83A9FF"/>
<path d="M390.938 253.891C391.042 254.738 390.892 255.596 390.507 256.357C390.122 257.117 389.52 257.747 388.778 258.165C388.035 258.583 387.184 258.77 386.335 258.704C385.485 258.637 384.675 258.32 384.006 257.791C383.337 257.263 382.84 256.548 382.578 255.736C382.316 254.925 382.301 254.054 382.535 253.234C382.769 252.414 383.241 251.682 383.892 251.131C384.542 250.58 385.341 250.235 386.188 250.139C387.314 250.015 388.443 250.34 389.331 251.042C390.22 251.744 390.797 252.767 390.938 253.891Z" fill="#263238"/>
<path d="M386.65 259.332C385.697 259.331 384.764 259.054 383.964 258.534C383.165 258.014 382.533 257.274 382.145 256.403C381.756 255.531 381.629 254.566 381.777 253.624C381.925 252.681 382.343 251.802 382.979 251.092C383.616 250.382 384.445 249.872 385.365 249.623C386.285 249.373 387.258 249.396 388.166 249.688C389.073 249.98 389.877 250.529 390.48 251.268C391.083 252.007 391.459 252.905 391.562 253.854C391.634 254.498 391.577 255.149 391.396 255.771C391.216 256.393 390.914 256.974 390.509 257.479C390.104 257.984 389.603 258.405 389.035 258.716C388.467 259.028 387.844 259.224 387.2 259.294C387.018 259.32 386.834 259.332 386.65 259.332ZM386.65 250.714C386.513 250.703 386.375 250.703 386.237 250.714C385.516 250.798 384.836 251.093 384.282 251.563C383.729 252.033 383.327 252.656 383.127 253.354C382.927 254.052 382.938 254.794 383.159 255.486C383.38 256.178 383.8 256.789 384.368 257.242C384.935 257.695 385.624 257.969 386.348 258.031C387.071 258.093 387.796 257.938 388.432 257.588C389.068 257.238 389.586 256.707 389.921 256.062C390.255 255.417 390.392 254.688 390.312 253.966C390.205 252.986 389.715 252.087 388.95 251.465C388.293 250.965 387.488 250.7 386.662 250.714H386.65Z" fill="#83A9FF"/>
<path d="M346.838 253.291C346.442 254.043 345.832 254.662 345.085 255.068C344.338 255.474 343.488 255.649 342.641 255.572C341.795 255.495 340.99 255.168 340.329 254.634C339.668 254.099 339.18 253.38 338.927 252.568C338.674 251.756 338.667 250.888 338.908 250.072C339.148 249.256 339.624 248.53 340.277 247.985C340.929 247.44 341.729 247.1 342.574 247.01C343.419 246.919 344.272 247.081 345.025 247.475C345.529 247.735 345.976 248.092 346.34 248.526C346.704 248.96 346.979 249.462 347.147 250.004C347.316 250.545 347.376 251.114 347.322 251.678C347.269 252.243 347.105 252.791 346.838 253.291Z" fill="#263238"/>
<path d="M343 256.23C342.204 256.227 341.42 256.034 340.713 255.667C339.567 255.046 338.708 254.001 338.321 252.756C337.933 251.511 338.047 250.163 338.638 249.001C339.256 247.86 340.298 247.009 341.538 246.631C342.778 246.252 344.117 246.377 345.266 246.978C346.415 247.579 347.281 248.608 347.678 249.843C348.075 251.078 347.971 252.42 347.388 253.578C346.964 254.375 346.332 255.043 345.56 255.509C344.787 255.976 343.903 256.225 343 256.23ZM343 247.612C342.349 247.612 341.71 247.785 341.147 248.113C340.585 248.442 340.119 248.914 339.799 249.481C339.479 250.048 339.315 250.691 339.324 251.342C339.333 251.994 339.516 252.631 339.852 253.189C340.188 253.747 340.667 254.205 341.239 254.517C341.81 254.829 342.454 254.984 343.105 254.965C343.756 254.946 344.391 254.754 344.943 254.41C345.496 254.065 345.947 253.58 346.25 253.003C346.695 252.132 346.782 251.121 346.492 250.186C346.203 249.252 345.56 248.467 344.7 248C344.17 247.748 343.588 247.624 343 247.637V247.612Z" fill="#83A9FF"/>
<path d="M359.138 236.219C359.022 236.216 358.912 236.171 358.825 236.094L333.601 213.306C333.529 213.218 333.491 213.108 333.493 212.995C333.496 212.882 333.538 212.773 333.614 212.689C333.689 212.604 333.792 212.549 333.904 212.534C334.016 212.519 334.13 212.544 334.226 212.606L358.788 234.793L362.175 208.016C362.183 207.955 362.203 207.896 362.234 207.842C362.264 207.789 362.305 207.743 362.354 207.705C362.403 207.668 362.459 207.641 362.518 207.625C362.578 207.61 362.64 207.607 362.701 207.615C362.761 207.623 362.82 207.643 362.874 207.673C362.927 207.704 362.973 207.745 363.011 207.794C363.048 207.843 363.075 207.899 363.09 207.958C363.106 208.018 363.109 208.08 363.1 208.141L359.6 235.806C359.591 235.891 359.558 235.971 359.505 236.037C359.452 236.103 359.381 236.153 359.301 236.181C359.25 236.207 359.194 236.22 359.138 236.219Z" fill="#263238"/>
<path d="M343 251.765C342.937 251.764 342.874 251.751 342.816 251.725C342.758 251.699 342.706 251.662 342.663 251.615C342.577 251.526 342.528 251.407 342.528 251.283C342.528 251.16 342.577 251.041 342.663 250.952L358.775 235.406C358.864 235.32 358.983 235.271 359.107 235.271C359.23 235.271 359.349 235.32 359.438 235.406C359.482 235.449 359.517 235.501 359.541 235.557C359.565 235.614 359.578 235.676 359.578 235.737C359.578 235.799 359.565 235.86 359.541 235.917C359.517 235.974 359.482 236.026 359.438 236.069L343.325 251.615C343.284 251.661 343.234 251.698 343.178 251.724C343.123 251.749 343.062 251.764 343 251.765Z" fill="#263238"/>
<path d="M337.238 214.694C336.902 215.36 336.376 215.911 335.726 216.276C335.077 216.641 334.333 216.804 333.59 216.745C332.848 216.685 332.139 216.406 331.556 215.942C330.973 215.478 330.541 214.851 330.315 214.14C330.09 213.429 330.081 212.668 330.29 211.952C330.499 211.237 330.917 210.599 331.489 210.122C332.061 209.645 332.763 209.349 333.504 209.272C334.245 209.196 334.992 209.342 335.65 209.692C336.516 210.152 337.167 210.934 337.464 211.869C337.761 212.804 337.679 213.818 337.238 214.694Z" fill="#83A9FF"/>
<path d="M364.988 209.304C364.746 209.769 364.371 210.151 363.912 210.403C363.452 210.655 362.928 210.765 362.406 210.719C361.884 210.673 361.387 210.473 360.978 210.145C360.57 209.816 360.268 209.374 360.11 208.874C359.953 208.374 359.948 207.838 360.095 207.335C360.241 206.831 360.534 206.383 360.936 206.046C361.338 205.709 361.83 205.499 362.351 205.442C362.872 205.385 363.398 205.484 363.863 205.727C364.172 205.888 364.446 206.108 364.669 206.375C364.893 206.642 365.062 206.95 365.166 207.282C365.271 207.614 365.309 207.964 365.278 208.311C365.248 208.657 365.149 208.995 364.988 209.304Z" fill="#263238"/>
<path d="M213.438 156.262C213.458 155.411 213.73 154.586 214.219 153.889C214.707 153.193 215.392 152.658 216.185 152.351C216.978 152.044 217.844 151.979 218.674 152.164C219.504 152.349 220.26 152.777 220.847 153.392C221.434 154.008 221.826 154.784 221.973 155.622C222.119 156.46 222.014 157.322 221.67 158.101C221.327 158.879 220.761 159.538 220.043 159.994C219.325 160.451 218.488 160.684 217.638 160.664C217.073 160.653 216.515 160.53 215.998 160.302C215.48 160.074 215.013 159.746 214.623 159.337C214.232 158.928 213.927 158.446 213.723 157.918C213.52 157.39 213.423 156.827 213.438 156.262Z" fill="#263238"/>
<path d="M217.737 161.34H217.612C216.314 161.31 215.08 160.767 214.18 159.83C213.281 158.892 212.789 157.636 212.812 156.337C212.842 155.036 213.384 153.8 214.321 152.898C215.257 151.996 216.512 151.501 217.812 151.522C219.078 151.599 220.265 152.161 221.128 153.091C221.99 154.021 222.463 155.247 222.447 156.515C222.431 157.784 221.927 158.997 221.041 159.905C220.155 160.812 218.954 161.344 217.687 161.39L217.737 161.34ZM217.737 152.722C216.778 152.722 215.856 153.097 215.169 153.768C214.482 154.439 214.085 155.352 214.062 156.312C214.042 157.285 214.409 158.226 215.081 158.93C215.753 159.633 216.677 160.041 217.65 160.064C218.133 160.083 218.615 160.003 219.067 159.829C219.518 159.654 219.929 159.39 220.275 159.051C220.805 158.546 221.173 157.894 221.33 157.179C221.488 156.464 221.429 155.719 221.16 155.037C220.892 154.356 220.426 153.771 219.823 153.356C219.22 152.941 218.507 152.716 217.775 152.71L217.737 152.722Z" fill="#83A9FF"/>
<path d="M201.851 156.337C201.735 156.338 201.622 156.296 201.535 156.22C201.447 156.144 201.391 156.039 201.376 155.924L199.938 142.917C199.926 142.855 199.926 142.791 199.938 142.729L204.938 125.345C204.98 125.237 205.062 125.148 205.166 125.097C205.27 125.046 205.389 125.036 205.501 125.069C205.622 125.104 205.724 125.186 205.785 125.296C205.846 125.406 205.86 125.536 205.826 125.657L200.901 142.954L202.338 155.862C202.349 155.985 202.312 156.108 202.236 156.206C202.159 156.304 202.048 156.368 201.926 156.387L201.851 156.337Z" fill="#263238"/>
<path d="M217.737 156.837C217.633 156.834 217.532 156.799 217.449 156.737L200.112 143.217C200.015 143.138 199.953 143.025 199.939 142.901C199.925 142.777 199.96 142.652 200.037 142.554C200.075 142.506 200.121 142.467 200.174 142.437C200.228 142.407 200.286 142.389 200.346 142.382C200.407 142.375 200.468 142.38 200.526 142.396C200.585 142.413 200.639 142.441 200.687 142.479L217.999 155.999C218.095 156.075 218.157 156.186 218.173 156.307C218.19 156.428 218.159 156.55 218.087 156.649C218.045 156.704 217.993 156.749 217.932 156.781C217.872 156.814 217.805 156.833 217.737 156.837Z" fill="#263238"/>
<path d="M201.601 125.37C201.618 124.628 201.855 123.908 202.281 123.301C202.708 122.694 203.305 122.227 203.996 121.959C204.688 121.691 205.443 121.635 206.167 121.797C206.891 121.958 207.55 122.331 208.062 122.868C208.574 123.405 208.916 124.081 209.044 124.812C209.171 125.543 209.08 126.295 208.78 126.974C208.48 127.653 207.986 128.228 207.36 128.626C206.734 129.023 206.005 129.227 205.263 129.209C204.771 129.198 204.285 129.09 203.835 128.891C203.384 128.692 202.977 128.405 202.637 128.049C202.297 127.692 202.03 127.272 201.852 126.813C201.675 126.353 201.589 125.863 201.601 125.37Z" fill="#83A9FF"/>
<path d="M199.25 155.787C199.261 155.259 199.427 154.746 199.729 154.313C200.031 153.88 200.455 153.547 200.946 153.355C201.438 153.164 201.975 153.123 202.49 153.237C203.005 153.352 203.475 153.617 203.839 153.999C204.203 154.381 204.446 154.862 204.536 155.383C204.626 155.903 204.56 156.438 204.345 156.92C204.131 157.402 203.778 157.81 203.332 158.092C202.885 158.373 202.365 158.515 201.838 158.501C201.136 158.481 200.471 158.185 199.986 157.676C199.501 157.168 199.237 156.489 199.25 155.787Z" fill="#263238"/>
<path d="M325.088 138.927L334.488 160.189C334.614 160.477 334.681 160.787 334.686 161.101C334.691 161.416 334.634 161.728 334.518 162.02C334.401 162.312 334.228 162.578 334.009 162.802C333.789 163.027 333.527 163.206 333.238 163.328C332.656 163.575 331.999 163.583 331.412 163.349C330.824 163.114 330.353 162.658 330.1 162.078L320.688 140.816C320.441 140.233 320.433 139.577 320.668 138.989C320.902 138.401 321.358 137.929 321.938 137.677C322.521 137.425 323.181 137.416 323.771 137.651C324.362 137.885 324.835 138.344 325.088 138.927Z" fill="#83A9FF"/>
<path d="M263.688 261.595L295.8 259.344C296.183 259.32 296.56 259.449 296.848 259.702C297.136 259.955 297.312 260.312 297.338 260.695C297.362 261.076 297.235 261.451 296.985 261.739C296.734 262.027 296.381 262.204 296 262.233L263.888 264.485C263.698 264.498 263.507 264.474 263.327 264.413C263.147 264.352 262.98 264.256 262.837 264.131C262.694 264.005 262.577 263.852 262.494 263.681C262.41 263.51 262.361 263.324 262.35 263.134C262.337 262.945 262.361 262.755 262.421 262.575C262.481 262.396 262.575 262.229 262.7 262.087C262.824 261.944 262.975 261.827 263.145 261.742C263.314 261.658 263.499 261.608 263.688 261.595Z" fill="#263238"/>
<path d="M208.125 85.2849L239.113 94.0397C239.295 94.0915 239.466 94.179 239.615 94.2972C239.763 94.4153 239.887 94.5618 239.979 94.7281C240.071 94.8943 240.129 95.0772 240.149 95.266C240.17 95.4548 240.153 95.6459 240.1 95.8282C239.995 96.195 239.75 96.5057 239.418 96.693C239.086 96.8802 238.693 96.929 238.325 96.8288L207.338 88.0739C207.155 88.0221 206.984 87.9346 206.836 87.8165C206.687 87.6984 206.563 87.5519 206.471 87.3856C206.379 87.2193 206.321 87.0365 206.301 86.8476C206.28 86.6588 206.297 86.4677 206.35 86.2854C206.455 85.9186 206.7 85.608 207.032 85.4207C207.365 85.2334 207.757 85.1846 208.125 85.2849Z" fill="#263238"/>
<path d="M185.013 67.5374L168.763 77.9182C168.322 78.1957 167.791 78.2883 167.283 78.1759C166.775 78.0635 166.332 77.7552 166.05 77.3179C165.769 76.8766 165.674 76.3416 165.786 75.8305C165.899 75.3193 166.21 74.8737 166.65 74.5914L182.9 64.2106C183.343 63.9336 183.878 63.8426 184.388 63.9574C184.898 64.0721 185.343 64.3832 185.625 64.8234C185.763 65.0417 185.857 65.2852 185.901 65.5399C185.946 65.7946 185.939 66.0555 185.882 66.3077C185.825 66.5599 185.719 66.7983 185.57 67.0093C185.421 67.2203 185.231 67.3998 185.013 67.5374Z" fill="#83A9FF"/>
<path d="M269.163 142.754C269.061 142.753 268.963 142.72 268.882 142.659C268.801 142.599 268.742 142.514 268.713 142.417C268.682 142.296 268.7 142.167 268.764 142.06C268.827 141.952 268.93 141.874 269.05 141.841L290.55 136.051C290.667 136.03 290.787 136.053 290.887 136.117C290.988 136.18 291.061 136.278 291.092 136.393C291.123 136.507 291.111 136.629 291.057 136.735C291.003 136.841 290.911 136.922 290.8 136.964L269.25 142.742L269.163 142.754Z" fill="#263238"/>
<path d="M289.25 137.289C289.097 137.015 289.028 136.703 289.052 136.39C289.075 136.078 289.191 135.779 289.385 135.532C289.578 135.286 289.84 135.101 290.137 135.003C290.435 134.905 290.755 134.897 291.057 134.981C291.359 135.064 291.629 135.235 291.834 135.472C292.039 135.709 292.17 136.001 292.209 136.312C292.249 136.623 292.195 136.939 292.056 137.219C291.916 137.5 291.697 137.733 291.425 137.889C291.243 137.995 291.042 138.064 290.834 138.091C290.625 138.119 290.413 138.104 290.211 138.048C290.008 137.992 289.819 137.896 289.654 137.766C289.489 137.635 289.351 137.473 289.25 137.289Z" fill="#83A9FF"/>
<path d="M267.775 143.08C267.569 142.71 267.517 142.273 267.632 141.865C267.747 141.457 268.019 141.111 268.388 140.903C268.569 140.799 268.769 140.732 268.976 140.706C269.183 140.68 269.394 140.695 269.595 140.751C269.796 140.807 269.984 140.902 270.148 141.031C270.312 141.161 270.449 141.321 270.55 141.504C270.673 141.687 270.757 141.893 270.797 142.11C270.836 142.327 270.831 142.55 270.78 142.764C270.73 142.979 270.635 143.181 270.503 143.357C270.371 143.533 270.204 143.681 270.013 143.789C269.821 143.898 269.609 143.966 269.39 143.989C269.171 144.012 268.949 143.99 268.739 143.923C268.529 143.857 268.335 143.747 268.169 143.602C268.003 143.457 267.869 143.279 267.775 143.08Z" fill="#83A9FF"/>
<path d="M304.738 193.083C304.942 192.582 304.985 192.03 304.861 191.504C304.738 190.977 304.455 190.502 304.051 190.144L266.276 159.889C266.104 159.737 265.897 159.629 265.674 159.576C265.45 159.524 265.217 159.527 264.996 159.587C264.774 159.646 264.57 159.76 264.403 159.917C264.236 160.075 264.111 160.272 264.038 160.49L252.001 188.005L228.001 206.052C227.802 206.171 227.637 206.337 227.519 206.536C227.401 206.735 227.335 206.961 227.326 207.192C227.317 207.423 227.367 207.652 227.469 207.86C227.572 208.067 227.724 208.245 227.913 208.379L265.688 238.633C266.126 238.945 266.651 239.112 267.188 239.112C267.726 239.112 268.25 238.945 268.688 238.633L292.751 220.548L304.738 193.083Z" fill="#83A9FF"/>
<path d="M291.538 219.622L250.838 187.029L262.888 159.514C262.959 159.296 263.082 159.099 263.248 158.941C263.414 158.784 263.617 158.67 263.838 158.61C264.059 158.551 264.291 158.547 264.514 158.6C264.736 158.653 264.942 158.761 265.113 158.914L302.9 189.168C303.303 189.528 303.583 190.004 303.704 190.53C303.825 191.056 303.78 191.607 303.575 192.107L291.538 219.622Z" fill="#83A9FF"/>
<path d="M290.6 216.033C290.531 216.033 290.464 216.006 290.413 215.958L253.888 186.717C253.77 186.595 253.688 186.442 253.653 186.276C253.617 186.11 253.629 185.938 253.688 185.779L264.25 161.578C264.271 161.533 264.3 161.494 264.337 161.461C264.373 161.429 264.416 161.405 264.463 161.39C264.51 161.381 264.56 161.381 264.607 161.392C264.654 161.403 264.699 161.424 264.738 161.452L301.25 190.694C301.373 190.813 301.457 190.965 301.493 191.132C301.528 191.299 301.513 191.473 301.45 191.632L290.838 215.845C290.819 215.889 290.79 215.928 290.753 215.959C290.716 215.989 290.672 216.01 290.625 216.02L290.6 216.033ZM254.35 186.241L290.5 215.22L300.938 191.357C300.956 191.287 300.956 191.214 300.938 191.144L264.75 162.178L254.25 186.029C254.227 186.098 254.227 186.172 254.25 186.241H254.35Z" fill="#263238"/>
<path d="M291.538 219.622L250.838 187.029L226.75 205.114C226.555 205.235 226.392 205.402 226.276 205.601C226.16 205.8 226.095 206.024 226.086 206.254C226.077 206.484 226.125 206.712 226.226 206.919C226.327 207.126 226.477 207.305 226.663 207.44L264.45 237.695C264.888 238.008 265.412 238.177 265.95 238.177C266.488 238.177 267.013 238.008 267.45 237.695L291.538 219.622Z" fill="#83A9FF"/>
<path opacity="0.3" d="M239.25 200.111L249.013 192.782C249.484 192.442 250.05 192.258 250.631 192.258C251.213 192.258 251.779 192.442 252.25 192.782L284.125 218.297C284.324 218.443 284.483 218.636 284.59 218.859C284.696 219.082 284.747 219.327 284.737 219.574C284.727 219.82 284.657 220.061 284.533 220.274C284.409 220.488 284.235 220.667 284.025 220.798L274.275 228.127C273.801 228.465 273.233 228.647 272.65 228.647C272.068 228.647 271.5 228.465 271.025 228.127L239.163 202.613C238.969 202.464 238.813 202.27 238.709 202.049C238.605 201.827 238.555 201.584 238.563 201.34C238.572 201.095 238.639 200.856 238.758 200.642C238.878 200.429 239.046 200.247 239.25 200.111Z" fill="#263238"/>
<path opacity="0.3" d="M240.999 214.757L245.924 211.005C246.137 210.851 246.393 210.769 246.656 210.769C246.918 210.769 247.174 210.851 247.387 211.005L260.499 221.548C260.592 221.611 260.668 221.696 260.721 221.795C260.773 221.895 260.801 222.005 260.801 222.117C260.801 222.23 260.773 222.34 260.721 222.439C260.668 222.539 260.592 222.623 260.499 222.686L255.499 226.376C255.286 226.53 255.031 226.612 254.768 226.612C254.506 226.612 254.25 226.53 254.037 226.376L240.949 215.895C240.859 215.828 240.787 215.74 240.738 215.638C240.69 215.537 240.668 215.425 240.673 215.313C240.677 215.2 240.71 215.091 240.767 214.994C240.824 214.897 240.904 214.816 240.999 214.757Z" fill="#263238"/>
<path opacity="0.4" d="M331.75 72.3777C333.58 65.8671 333.73 58.9989 332.188 52.4142C330.646 45.8296 327.461 39.7434 322.931 34.7239C318.402 29.7044 312.674 25.9152 306.284 23.7103C299.894 21.5053 293.05 20.9565 286.391 22.1151C279.732 23.2736 273.474 26.1017 268.203 30.3353C262.932 34.5689 258.819 40.0699 256.249 46.3248C253.678 52.5796 252.734 59.3842 253.503 66.1032C254.273 72.8222 256.732 79.2365 260.65 84.7471C262.056 86.6712 263.017 88.8842 263.463 91.2257C263.973 94.0712 265.271 96.7165 267.209 98.861C269.147 101.005 271.647 102.563 274.425 103.357L287.163 106.972C289.944 107.765 292.892 107.76 295.67 106.957C298.448 106.154 300.945 104.586 302.875 102.432C304.461 100.681 306.422 99.3125 308.613 98.4297C314.183 96.1139 319.158 92.5675 323.165 88.056C327.171 83.5445 330.106 78.1847 331.75 72.3777Z" fill="#83A9FF"/>
<path d="M288.813 116.89L267.888 110.937C267.13 110.718 266.49 110.209 266.106 109.521C265.722 108.832 265.626 108.019 265.838 107.26C265.947 106.877 266.131 106.52 266.379 106.209C266.627 105.898 266.935 105.64 267.284 105.449C267.633 105.258 268.016 105.139 268.412 105.097C268.807 105.056 269.207 105.094 269.588 105.209L290.5 111.162C291.258 111.38 291.898 111.889 292.282 112.578C292.666 113.267 292.763 114.079 292.55 114.839C292.443 115.221 292.26 115.578 292.013 115.889C291.766 116.199 291.46 116.458 291.112 116.649C290.764 116.84 290.381 116.959 289.986 117.001C289.592 117.042 289.193 117.005 288.813 116.89Z" fill="#83A9FF"/>
<path d="M284.413 124.632L267.563 119.842C266.805 119.621 266.164 119.109 265.78 118.418C265.396 117.728 265.3 116.913 265.513 116.152C265.731 115.394 266.24 114.754 266.928 114.369C267.617 113.985 268.429 113.889 269.188 114.101L286.038 118.904C286.795 119.122 287.436 119.631 287.82 120.32C288.204 121.009 288.3 121.821 288.088 122.581C287.87 123.339 287.361 123.979 286.673 124.364C285.984 124.748 285.172 124.844 284.413 124.632Z" fill="#83A9FF"/>
<path d="M287.214 107.56H287.101C286.938 107.529 286.793 107.437 286.698 107.301C286.602 107.166 286.563 106.998 286.589 106.834C286.789 105.584 290.051 86.3731 296.251 71.8775C294.526 71.5523 292.664 71.1146 290.664 70.5518C288.664 69.9889 286.839 69.3761 285.201 68.7382C282.864 84.3219 275.514 102.394 275.051 103.558C274.988 103.712 274.866 103.835 274.713 103.899C274.559 103.964 274.386 103.965 274.232 103.902C274.078 103.839 273.955 103.717 273.891 103.563C273.826 103.41 273.826 103.237 273.889 103.082C274.001 102.795 281.651 83.9717 284.001 68.2505C271.864 63.2477 270.064 56.694 269.901 53.855C269.766 52.2875 270.121 50.7169 270.915 49.3594C271.71 48.002 272.906 46.9246 274.339 46.2757C277.189 45.1001 280.351 46.0506 282.801 48.7771C286.101 52.5292 286.439 59.5831 285.389 67.4625C287.051 68.1254 288.926 68.7132 291.001 69.3511C293.076 69.9889 295.001 70.3767 296.776 70.7018C300.026 63.4478 304.039 57.5945 308.801 56.1687C312.339 55.1057 315.526 55.9686 317.326 58.4575C318.193 59.7627 318.637 61.3037 318.597 62.8705C318.557 64.4373 318.034 65.9536 317.101 67.2124C315.464 69.5512 310.514 74.1287 297.526 72.0401C291.276 86.6482 287.876 106.672 287.826 106.985C287.816 107.14 287.748 107.287 287.634 107.394C287.52 107.501 287.37 107.56 287.214 107.56ZM298.051 70.9144C310.489 72.7905 314.914 68.2129 316.076 66.562C316.874 65.5104 317.326 64.2365 317.369 62.9166C317.411 61.5967 317.042 60.2963 316.314 59.1954C314.839 57.1443 312.164 56.4564 309.151 57.3694C304.839 58.6952 301.114 64.1232 298.001 70.952L298.051 70.9144ZM276.751 47.0387C276.074 47.038 275.403 47.1697 274.776 47.4264C273.578 47.9799 272.58 48.892 271.922 50.0368C271.264 51.1816 270.977 52.5026 271.101 53.8174C271.226 55.8436 272.576 62.0595 284.151 66.9998C285.126 59.5831 284.814 53.017 281.826 49.6401C281.213 48.8715 280.443 48.2421 279.568 47.7936C278.693 47.3451 277.733 47.0878 276.751 47.0387Z" fill="#263238"/>
<path opacity="0.3" d="M157.907 282.955C187.4 268.3 187.985 209.428 159.213 151.46C130.441 93.4926 83.2079 58.3809 53.7147 73.0361C24.2215 87.6912 23.6368 146.564 52.4087 204.531C81.1806 262.499 128.414 297.61 157.907 282.955Z" fill="#0E91AD"/>
<path d="M80.1504 439.82L89.4004 439.67L91.5254 418.208L82.2754 418.346L80.1504 439.82Z" fill="#FFBF9D"/>
<path d="M18.001 422.923L26.8135 425.725L36.751 406.401L27.9385 403.6L18.001 422.923Z" fill="#FFBF9D"/>
<path opacity="0.2" d="M91.5258 418.208L90.4258 429.277L81.1758 429.427L82.2758 418.358L91.5258 418.208Z" fill="#679AA7"/>
<path opacity="0.2" d="M27.9258 403.6L36.7508 406.401L31.6258 416.357L22.8008 413.568L27.9258 403.6Z" fill="#679AA7"/>
<path d="M93.8637 427.088L78.2012 427.326C78.2012 427.326 84.4512 366.454 86.4137 337.688C86.929 326.213 86.7955 314.717 86.0137 303.256C85.0762 286.472 84.4762 279.756 83.2137 258.544C82.3137 243.411 81.2137 233.618 81.2137 233.618L113.626 236.282C113.626 236.282 114.876 309.71 111.226 337.713C107.401 366.829 93.8637 427.088 93.8637 427.088Z" fill="#0089A6"/>
<path opacity="0.2" d="M90.1262 253.954C94.1887 269.062 90.2512 302.869 86.4387 312.061C86.3262 309.185 86.1762 306.245 86.0137 303.306C85.0762 286.522 84.4637 279.806 83.2012 258.594C83.2012 258.169 83.2012 257.756 83.2012 257.343C85.2974 255.823 87.6401 254.677 90.1262 253.954Z" fill="#679AA7"/>
<path d="M96.1377 234.843C96.1377 234.843 81.1377 310.285 73.6377 336.337C65.4377 364.878 36.3502 415.619 36.3502 415.619L20.2002 410.504C20.2002 410.504 38.8002 367.542 45.6627 339.426C53.4877 307.384 64.3127 232.229 64.3127 232.229L96.1377 234.843Z" fill="#0089A6"/>
<path d="M28.6886 425.112L18.4886 420.309C18.3215 420.231 18.1326 420.211 17.9531 420.254C17.7736 420.298 17.6142 420.401 17.501 420.547L12.3635 427.213C12.2379 427.376 12.151 427.566 12.1093 427.768C12.0676 427.97 12.0721 428.179 12.1227 428.378C12.1732 428.578 12.2684 428.764 12.401 428.922C12.5337 429.08 12.7004 429.205 12.8886 429.289C16.2011 430.765 18.6761 431.703 22.8136 433.641C25.3136 434.892 31.2635 437.869 34.7761 439.52C38.2885 441.171 40.3261 437.994 39.0886 436.918C33.5761 432.141 31.001 429.089 29.8135 426.262C29.5941 425.753 29.1932 425.342 28.6886 425.112Z" fill="#006987"/>
<path d="M89.3252 438.594L79.2252 438.757C79.0409 438.76 78.8631 438.826 78.7219 438.944C78.5807 439.063 78.4847 439.226 78.4502 439.407L76.7502 447.65C76.7063 447.849 76.7084 448.055 76.7565 448.253C76.8045 448.452 76.8972 448.636 77.0275 448.793C77.1577 448.95 77.3221 449.075 77.508 449.159C77.6939 449.242 77.8965 449.282 78.1002 449.275C81.7502 449.163 87.0002 448.863 91.5877 448.788C96.9377 448.713 97.5502 448.925 103.825 448.788C107.575 448.788 108.613 444.873 107.025 444.548C99.7627 443.084 97.8752 443.009 91.5627 439.245C90.8891 438.83 90.116 438.606 89.3252 438.594Z" fill="#006987"/>
<path d="M72.6754 150.621C84.2946 149.77 95.9721 150.189 107.5 151.872C110.932 152.418 114.076 154.116 116.416 156.687C118.756 159.257 120.152 162.548 120.375 166.017C121.163 178.212 120.888 202.175 115.15 247.125C108.025 250.252 76.9254 247.238 61.6504 242.435C62.4754 237.295 67.3129 195.821 63.7629 161.14C63.6414 159.86 63.7769 158.57 64.1617 157.344C64.5464 156.117 65.1725 154.981 66.0031 154.001C66.8336 153.02 67.8519 152.216 68.9978 151.636C70.1437 151.056 71.3941 150.711 72.6754 150.621Z" fill="#006987"/>
<path d="M75.2377 167.231L73.3377 171.121C72.7127 172.455 72.1002 173.805 71.5002 175.173C70.2502 177.887 69.1877 180.626 68.1252 183.377C67.0627 186.129 66.1502 188.905 65.3127 191.669C64.5192 194.402 63.8683 197.174 63.3627 199.974L62.1127 195.709C63.1805 197.11 64.6114 198.191 66.2502 198.836C68.351 199.673 70.561 200.204 72.8127 200.412C75.3034 200.677 77.8109 200.748 80.3127 200.624C82.8981 200.525 85.4766 200.292 88.0377 199.924H88.2252C88.9729 199.821 89.7325 199.993 90.3628 200.409C90.9931 200.824 91.4509 201.455 91.6512 202.183C91.8515 202.911 91.7805 203.687 91.4515 204.367C91.1225 205.046 90.5578 205.583 89.8627 205.877C88.4002 206.503 87.0877 206.966 85.6752 207.416C84.2627 207.866 82.8752 208.266 81.4377 208.591C78.5093 209.292 75.5207 209.711 72.5127 209.842C69.2509 210.004 65.9844 209.641 62.8377 208.767C59.1827 207.767 55.8931 205.735 53.3627 202.913C52.8947 202.375 52.5423 201.747 52.3273 201.067C52.1123 200.387 52.0392 199.67 52.1127 198.961V198.648C52.4337 195.282 52.9723 191.94 53.7252 188.643C54.4877 185.429 55.3752 182.264 56.4252 179.188C57.4752 176.111 58.6377 173.072 59.9252 170.107C60.5752 168.619 61.2377 167.156 61.9377 165.693C62.6377 164.229 63.3377 162.816 64.2002 161.265C65.0052 159.879 66.3116 158.855 67.8495 158.405C69.3874 157.955 71.0394 158.113 72.4641 158.846C73.8889 159.58 74.9776 160.833 75.5054 162.347C76.0332 163.861 75.9597 165.52 75.3002 166.981L75.2377 167.231Z" fill="#FFBF9D"/>
<path d="M84.9883 200.549L89.9883 194.934L98.1758 202.438C98.1758 202.438 92.6133 208.616 86.7133 205.377L84.9883 200.549Z" fill="#FFBF9D"/>
<path d="M98.1504 192.77L101.438 196.209C101.706 196.492 101.911 196.829 102.039 197.197C102.167 197.566 102.215 197.957 102.179 198.345C102.144 198.734 102.026 199.11 101.833 199.449C101.641 199.788 101.378 200.082 101.063 200.312L98.1504 202.425L89.9629 194.921L94.8629 192.245C95.3929 191.96 96.0014 191.858 96.5951 191.953C97.1889 192.048 97.7351 192.335 98.1504 192.77Z" fill="#FFBF9D"/>
<path d="M68.2266 152.072C60.7266 156.675 53.2266 181.101 53.2266 181.101L72.9766 188.355C76.6338 182.555 79.3784 176.228 81.1141 169.594C84.1016 158.276 76.5141 147.007 68.2266 152.072Z" fill="#006987"/>
<path d="M110.737 152.448C110.575 152.448 110.962 152.448 111.15 152.448L111.912 152.51C112.462 152.51 113.012 152.585 113.6 152.585C114.762 152.585 115.975 152.585 117.187 152.585C119.687 152.51 122.187 152.235 124.687 151.935C125.937 151.772 127.187 151.585 128.437 151.347C129.687 151.109 130.937 150.884 132.262 150.647L136.112 149.796L139.95 148.846L135.325 154.474C135.717 152.216 135.877 149.923 135.8 147.632C135.71 145.143 135.464 142.662 135.062 140.203C134.662 137.702 134.142 135.15 133.5 132.549C132.887 130.048 132.112 127.371 131.4 124.957L131.325 124.732C131.083 123.884 131.147 122.979 131.505 122.173C131.864 121.368 132.495 120.715 133.287 120.329C134.079 119.942 134.981 119.847 135.836 120.06C136.691 120.273 137.444 120.78 137.962 121.493C139.665 123.933 141.186 126.496 142.512 129.16C143.851 131.823 145.012 134.572 145.987 137.389C147.001 140.297 147.771 143.284 148.287 146.319C148.844 149.548 149.008 152.832 148.775 156.1C148.678 157.316 148.233 158.479 147.493 159.448C146.752 160.418 145.748 161.153 144.6 161.565L144.15 161.728L139.975 163.229C138.562 163.691 137.15 164.129 135.712 164.479C132.835 165.326 129.914 166.019 126.962 166.555C123.931 167.118 120.866 167.481 117.787 167.644C116.212 167.644 114.637 167.756 113 167.644C112.187 167.644 111.35 167.556 110.5 167.468L109.175 167.306C108.675 167.231 108.362 167.193 107.512 167.006C105.631 166.525 104.009 165.334 102.987 163.681C101.966 162.028 101.625 160.044 102.036 158.145C102.448 156.246 103.579 154.581 105.193 153.499C106.806 152.418 108.776 152.005 110.687 152.347L110.737 152.448Z" fill="#FFBF9D"/>
<path d="M130.163 124.732L126.525 118.629L137.15 115.489C137.15 115.489 139.325 120.392 138.4 123.756C138.208 124.401 137.831 124.975 137.315 125.406C136.8 125.838 136.168 126.108 135.5 126.183L133.6 126.42C132.926 126.502 132.242 126.386 131.631 126.086C131.021 125.786 130.511 125.316 130.163 124.732Z" fill="#FFBF9D"/>
<path d="M129.125 108.898L132.062 108.561C132.947 108.47 133.835 108.697 134.567 109.201C135.3 109.705 135.83 110.454 136.062 111.312L137.15 115.489L126.525 118.629L125.862 113.013C125.76 112.036 126.044 111.059 126.654 110.289C127.264 109.52 128.151 109.021 129.125 108.898Z" fill="#FFBF9D"/>
<path d="M99.363 150.209C108.113 150.972 127.138 148.783 127.138 148.783L128.238 172.696C121.767 174.807 114.828 175.024 108.238 173.322C96.8381 170.42 89.7005 149.371 99.363 150.209Z" fill="#006987"/>
<path d="M84.7506 126.783C85.7756 133.612 86.5381 146.056 81.6006 150.359C85.1131 154.173 90.2006 159.114 98.2256 159.777C103.313 157.538 104.601 154.324 102.613 151.309C95.1131 149.171 95.6006 143.58 97.1506 138.39L84.7506 126.783Z" fill="#FFBF9D"/>
<path opacity="0.2" d="M89.8139 131.523L97.1514 138.377C96.7696 139.602 96.4936 140.857 96.3264 142.129C93.4764 141.592 89.6639 138.24 89.4889 135.213C89.3614 133.974 89.4717 132.721 89.8139 131.523Z" fill="#679AA7"/>
<path d="M99.5011 103.808C108.851 110.061 100.851 120.067 100.851 120.067C100.851 120.067 96.2136 111.862 99.5011 103.808Z" fill="#006987"/>
<path d="M79.8134 119.491C82.0384 128.396 82.8884 133.724 88.2884 137.502C96.4259 143.192 106.776 137.001 107.263 127.608C107.688 119.154 103.976 105.996 94.5009 104.045C92.4104 103.599 90.2406 103.697 88.1986 104.329C86.1566 104.961 84.3108 106.107 82.8375 107.656C81.3641 109.206 80.3125 111.107 79.7831 113.179C79.2536 115.251 79.2641 117.425 79.8134 119.491Z" fill="#FFBF9D"/>
<path opacity="0.2" d="M94.5752 119.104C93.8986 119.054 93.2188 119.139 92.5752 119.354C91.9315 119.569 91.3368 119.909 90.8252 120.355C92.1452 120.188 93.4195 119.763 94.5752 119.104Z" fill="#679AA7"/>
<path opacity="0.2" d="M94.8137 120.067C94.2055 120.151 93.623 120.367 93.107 120.699C92.5909 121.032 92.1538 121.473 91.8262 121.993C92.9486 121.573 93.9675 120.916 94.8137 120.067Z" fill="#679AA7"/>
<path opacity="0.2" d="M95.0633 125.82C94.8602 125.734 94.6402 125.695 94.4199 125.706C94.1995 125.717 93.9845 125.778 93.7909 125.883C93.5973 125.989 93.4302 126.138 93.302 126.317C93.1739 126.497 93.088 126.703 93.0508 126.921C93.6157 126.387 94.3089 126.008 95.0633 125.82Z" fill="#679AA7"/>
<path opacity="0.2" d="M100.363 109.586C97.1287 109.919 93.9317 110.552 90.8135 111.475C96.176 110.587 100.363 109.586 100.363 109.586Z" fill="#679AA7"/>
<path opacity="0.2" d="M101.963 110.199C101.963 110.199 94.6883 111.7 91.4883 113.476C95.0411 112.59 98.5388 111.496 101.963 110.199Z" fill="#679AA7"/>
<path d="M82.3378 125.708C86.0878 125.332 84.4128 119.592 82.9628 118.291C85.8753 117.04 88.3253 112.15 86.2879 109.536C97.0753 110.374 103.238 109.223 104.063 99.5306C100.975 100.156 97.7254 97.0292 93.5754 99.9433C93.8773 99.3423 94.0522 98.6855 94.0889 98.0138C94.1256 97.3422 94.0235 96.6702 93.7889 96.0398C93.5542 95.4094 93.1921 94.8343 92.7252 94.3503C92.2583 93.8663 91.6967 93.484 91.0754 93.2271C91.0754 93.2271 90.4004 99.4805 85.6629 100.419C80.9254 101.357 75.9128 104.683 75.6003 108.185C74.4753 105.296 73.3128 105.109 73.3128 105.109C73.8455 106.19 74.1225 107.38 74.1225 108.586C74.1225 109.791 73.8455 110.981 73.3128 112.063C71.5378 116.052 74.5628 117.365 74.5628 117.365C74.5628 117.365 70.6879 117.366 73.1254 122.593C74.9254 126.245 81.5003 130.936 82.3378 125.708Z" fill="black"/>
<path d="M77.388 127.859C78.5664 129.684 80.4173 130.969 82.538 131.436C85.3505 132.023 86.563 129.46 85.6255 126.896C84.7755 124.594 82.3005 121.518 79.5505 122.08C78.952 122.212 78.3961 122.492 77.9332 122.894C77.4703 123.296 77.1153 123.807 76.9004 124.382C76.6854 124.956 76.6175 125.575 76.7027 126.182C76.7878 126.789 77.0234 127.366 77.388 127.859Z" fill="#FFBF9D"/>
<path d="M38.1883 416.582L19.1758 410.554L20.9758 404.875L42.3383 409.641L38.1883 416.582Z" fill="#0089A6"/>
<path opacity="0.3" d="M38.1883 416.582L19.1758 410.554L20.9758 404.875L42.3383 409.641L38.1883 416.582Z" fill="#679AA7"/>
<path d="M95.8377 427.413L77.1752 427.713L77.0752 421.672L97.0377 421.035L95.8377 427.413Z" fill="#0089A6"/>
<path opacity="0.3" d="M95.8377 427.413L77.1752 427.713L77.0752 421.672L97.0377 421.035L95.8377 427.413Z" fill="#679AA7"/>
<path d="M95.3381 119.204C95.4506 119.942 95.9256 120.455 96.4131 120.455C96.9006 120.455 97.2006 119.729 97.0881 118.991C96.9756 118.254 96.5006 117.741 96.0131 117.741C95.5256 117.741 95.2256 118.466 95.3381 119.204Z" fill="#006987"/>
<path d="M103.676 117.966C103.788 118.704 104.263 119.216 104.751 119.216C105.238 119.216 105.538 118.491 105.426 117.753C105.313 117.015 104.838 116.502 104.351 116.502C103.863 116.502 103.563 117.228 103.676 117.966Z" fill="#006987"/>
<path d="M101.088 118.716C102.298 120.845 103.8 122.794 105.55 124.507C105.1 124.943 104.561 125.275 103.969 125.48C103.378 125.685 102.748 125.759 102.125 125.695L101.088 118.716Z" fill="black"/>
<path d="M99.4136 128.534C98.5844 128.662 97.7377 128.617 96.9268 128.401C96.1158 128.186 95.3581 127.806 94.7011 127.283C94.6798 127.265 94.6624 127.242 94.6499 127.216C94.6374 127.19 94.6301 127.163 94.6283 127.134C94.6266 127.106 94.6305 127.077 94.6397 127.05C94.649 127.023 94.6635 126.998 94.6824 126.977C94.7013 126.956 94.7242 126.938 94.7498 126.926C94.7754 126.913 94.8032 126.906 94.8316 126.904C94.8601 126.902 94.8886 126.906 94.9155 126.916C94.9424 126.925 94.9673 126.939 94.9886 126.958C95.7333 127.512 96.5979 127.882 97.5123 128.038C98.4266 128.195 99.365 128.133 100.251 127.859C100.278 127.851 100.307 127.849 100.334 127.853C100.362 127.856 100.389 127.865 100.414 127.879C100.438 127.893 100.46 127.912 100.477 127.934C100.494 127.956 100.506 127.982 100.514 128.009C100.523 128.037 100.527 128.066 100.524 128.096C100.522 128.125 100.513 128.154 100.499 128.179C100.485 128.205 100.466 128.228 100.442 128.246C100.419 128.264 100.392 128.277 100.364 128.284C100.053 128.39 99.7359 128.474 99.4136 128.534Z" fill="#006987"/>
<path d="M90.8884 117.266C90.8187 117.284 90.7455 117.284 90.6759 117.266C90.6228 117.242 90.5753 117.207 90.5362 117.164C90.497 117.121 90.4672 117.07 90.4484 117.015C90.4297 116.96 90.4225 116.902 90.4272 116.844C90.4319 116.786 90.4485 116.729 90.4759 116.678C90.7737 116.05 91.2172 115.502 91.7695 115.08C92.3217 114.658 92.9668 114.374 93.6509 114.251C93.7664 114.241 93.8816 114.275 93.9725 114.347C94.0633 114.42 94.1227 114.524 94.1384 114.639C94.1491 114.755 94.1148 114.87 94.0426 114.961C93.9704 115.052 93.8659 115.111 93.7509 115.127C93.2075 115.225 92.6961 115.454 92.2606 115.794C91.8252 116.134 91.4787 116.575 91.2509 117.078C91.2082 117.134 91.1535 117.18 91.0908 117.213C91.0281 117.245 90.9589 117.263 90.8884 117.266Z" fill="#006987"/>
<path d="M105.276 114.414C105.204 114.418 105.132 114.404 105.066 114.373C105.001 114.343 104.944 114.297 104.901 114.239C104.588 113.785 104.172 113.413 103.688 113.152C103.203 112.891 102.663 112.749 102.113 112.738C101.997 112.738 101.886 112.692 101.804 112.61C101.722 112.527 101.676 112.416 101.676 112.3C101.676 112.184 101.722 112.073 101.804 111.991C101.886 111.908 101.997 111.862 102.113 111.862C102.808 111.866 103.491 112.036 104.107 112.358C104.722 112.68 105.252 113.145 105.651 113.713C105.685 113.759 105.71 113.812 105.725 113.867C105.739 113.923 105.742 113.981 105.734 114.038C105.726 114.095 105.706 114.15 105.677 114.199C105.648 114.248 105.609 114.292 105.563 114.326C105.48 114.387 105.379 114.417 105.276 114.414Z" fill="#006987"/>
<path d="M30.7763 427.876C30.0444 427.509 29.3566 427.06 28.7263 426.538C28.6915 426.513 28.6654 426.478 28.6519 426.437C28.6384 426.397 28.6382 426.353 28.6513 426.312C28.6632 426.27 28.6873 426.232 28.7206 426.203C28.754 426.174 28.7951 426.156 28.8388 426.15C29.2263 426.15 32.7138 425.712 33.4138 426.625C33.493 426.727 33.542 426.849 33.5553 426.977C33.5686 427.105 33.5455 427.235 33.4888 427.35C33.4193 427.555 33.301 427.739 33.1442 427.887C32.9873 428.036 32.7967 428.143 32.5888 428.201C31.9653 428.299 31.3269 428.185 30.7763 427.876ZM29.4263 426.488C30.2455 427.28 31.3371 427.727 32.4763 427.738C32.6176 427.698 32.7466 427.624 32.8514 427.521C32.9562 427.418 33.0336 427.291 33.0763 427.15C33.0763 426.988 33.0763 426.913 33.0763 426.863C32.7013 426.487 30.8263 426.412 29.4263 426.488Z" fill="#0089A6"/>
<path d="M28.7633 426.575C28.7281 426.553 28.6983 426.523 28.6758 426.487C28.6572 426.453 28.6475 426.414 28.6475 426.375C28.6475 426.336 28.6572 426.297 28.6758 426.262C28.6758 426.162 30.0633 423.848 31.4133 423.498C31.5751 423.453 31.7448 423.443 31.9108 423.469C32.0769 423.495 32.2354 423.556 32.3758 423.648C32.521 423.722 32.6378 423.842 32.7079 423.989C32.778 424.136 32.7975 424.302 32.7633 424.461C32.5008 425.474 29.9633 426.525 28.8758 426.588L28.7633 426.575ZM32.0508 423.974C31.8772 423.91 31.6869 423.91 31.5133 423.974C30.6508 424.199 29.7258 425.474 29.3008 426.137C30.4633 425.887 32.1758 424.999 32.3383 424.399C32.3383 424.399 32.3383 424.224 32.1383 424.061L32.0508 423.974Z" fill="#0089A6"/>
<path d="M90.2502 439.857C90.2133 439.845 90.1801 439.824 90.1538 439.796C90.1276 439.767 90.1091 439.732 90.1002 439.695C90.095 439.649 90.1028 439.602 90.1227 439.56C90.1426 439.518 90.1737 439.482 90.2127 439.457C90.6252 439.244 94.3252 437.293 95.4502 437.906C95.5584 437.96 95.6503 438.041 95.7162 438.143C95.7822 438.244 95.8198 438.361 95.8252 438.482C95.8491 438.68 95.8254 438.881 95.7558 439.068C95.6862 439.255 95.5728 439.423 95.4252 439.557C94.4252 440.47 91.7752 440.145 90.2752 439.87L90.2502 439.857ZM95.1627 438.256C94.4627 438.019 92.4627 438.819 91.0002 439.507C93.0502 439.82 94.5752 439.707 95.1377 439.194C95.2322 439.103 95.3041 438.992 95.3475 438.868C95.391 438.744 95.4047 438.612 95.3877 438.482C95.3896 438.435 95.3775 438.388 95.353 438.348C95.3286 438.308 95.2928 438.276 95.2502 438.256H95.1627Z" fill="#0089A6"/>
<path d="M90.2504 439.857H90.1879C90.1555 439.836 90.13 439.806 90.1144 439.77C90.0989 439.735 90.094 439.695 90.1004 439.657C90.1004 439.557 90.3129 437.056 91.4754 436.08C91.6445 435.93 91.843 435.817 92.0582 435.748C92.2734 435.679 92.5007 435.656 92.7254 435.68C93.3254 435.68 93.5129 436.03 93.5504 436.28C93.7379 437.331 91.5629 439.357 90.4504 439.882C90.4181 439.898 90.3822 439.903 90.3467 439.899C90.3113 439.895 90.2779 439.88 90.2504 439.857ZM92.8754 436.105H92.6504C92.4907 436.09 92.3295 436.108 92.1769 436.157C92.0242 436.207 91.8833 436.287 91.7629 436.393C91.0833 437.207 90.6728 438.212 90.5879 439.27C91.7129 438.569 93.1879 436.968 93.0879 436.343C93.0754 436.293 93.0629 436.193 92.8754 436.13V436.105Z" fill="#0089A6"/>
<path d="M10.0629 130.398C8.58233 117.131 9.26199 103.712 12.0754 90.6631L13.3254 90.9507C10.5453 103.869 9.8741 117.152 11.3379 130.285L10.0629 130.398ZM16.3129 80.8451L15.1504 80.4199C16.3035 77.2849 17.6735 74.2342 19.2504 71.2898L20.3629 71.8776C18.8016 74.7702 17.4401 77.7664 16.2879 80.8451H16.3129Z" fill="#0089A6"/>
<path d="M54.1387 49.2775C95.7387 40.9604 151.901 88.7245 179.601 155.949C207.301 223.174 196.039 284.421 154.464 292.726C112.889 301.03 56.7512 253.279 29.0012 186.054C1.25122 118.829 12.5637 57.5321 54.1387 49.2775ZM50.8637 181.689C75.3387 241.109 122.114 283.908 155.189 277.279C188.264 270.651 195.339 217.121 170.864 157.7C146.389 98.2798 99.6137 55.4685 66.5262 62.0972C33.4387 68.7258 26.3762 122.256 50.8637 181.689ZM17.5012 149.333C20.1012 144.768 35.4887 138.69 38.8887 142.079L17.5012 149.333ZM172.639 267.236C176.551 266.761 180.401 276.191 177.789 279.681L172.639 267.236ZM114.626 78.8815C117.251 78.1686 119.551 74.5541 119.864 72.4404L114.626 78.8815Z" fill="#A3CEE1"/>
<path d="M144.813 294.289C104.35 294.289 54.0754 248.551 28.4254 186.291C10.5754 142.992 8.31293 99.6054 22.5004 73.0656C29.5879 59.8083 40.4879 51.3661 54.0129 48.6646C95.8129 40.3099 152.413 88.3241 180.175 155.712C198.013 199.023 200.288 242.41 186.088 268.937C183.972 272.95 181.351 276.674 178.288 280.018C172.025 286.866 163.73 291.522 154.625 293.301C151.395 293.955 148.108 294.286 144.813 294.289ZM18.2004 149.396C20.8888 161.854 24.696 174.043 29.5754 185.816C57.0754 252.666 113.088 300.355 154.338 292.125C163.18 290.393 171.236 285.874 177.325 279.23C178.575 277.317 177.838 273.365 176.313 270.738C175.263 268.912 174 267.862 172.875 267.862C168.263 273.017 162.098 276.529 155.313 277.867C121.95 284.558 74.8379 241.484 50.3129 181.901C45.0117 169.162 41.004 155.921 38.3504 142.379C37.5504 141.729 35.9379 141.541 33.7629 141.829C28.0004 142.579 20.2004 146.431 18.2004 149.396ZM51.4379 181.451C75.7754 240.509 122.263 283.233 155.075 276.666C164.725 274.74 172.25 268.837 177.45 259.157C189.475 236.644 186.725 197.873 170.275 157.988C145.938 98.9175 99.4629 56.2063 66.6504 62.7599C56.9879 64.686 49.4504 70.6018 44.2504 80.2696C32.2379 102.757 34.9879 141.516 51.4379 181.451ZM173.838 266.748C175.398 267.387 176.667 268.581 177.4 270.1C178.639 272.197 179.278 274.594 179.25 277.029C181.457 274.336 183.387 271.428 185.013 268.349C199.038 242.147 196.75 199.161 179.05 156.187C164.963 121.993 143.425 92.8141 120.3 73.5659C119.497 75.8624 117.931 77.8137 115.863 79.094C137.225 96.2911 157.85 124.319 171.513 157.463C188.1 197.723 190.825 236.894 178.638 259.695C177.28 262.202 175.672 264.565 173.838 266.748ZM54.2504 49.8902C41.1004 52.5167 30.5004 60.7338 23.5879 73.6535C13.7504 92.0512 11.9379 118.679 17.8629 147.807C20.9129 144.555 28.4254 141.291 33.5504 140.603C35.0351 140.328 36.5635 140.405 38.0129 140.828C33.5879 116.315 35.2004 94.5526 43.1379 79.6693C48.4504 69.7388 56.4879 63.4103 66.3879 61.4717C80.8754 58.5826 97.9629 65.0612 114.663 78.206C116.763 77.4681 118.7 74.5665 119.163 72.6904C97.3254 54.893 74.0879 45.9255 54.2504 49.8902Z" fill="#0089A6"/>
<path d="M110.601 120.38L149.564 116.352L148.639 109.273L109.951 115.377L110.601 120.38Z" fill="#0089A6"/>
<path opacity="0.2" d="M132.451 111.825L133.264 118.028L149.551 116.352L148.626 109.273L132.451 111.825Z" fill="#679AA7"/>
<path d="M135.363 117.666C135.414 117.959 135.568 118.225 135.797 118.415C136.026 118.606 136.315 118.708 136.613 118.704L181.801 114.526C183.601 114.289 182.063 102.52 180.276 102.757L135.513 110.261C135.213 110.325 134.947 110.496 134.765 110.742C134.583 110.989 134.498 111.294 134.526 111.6L135.363 117.666Z" fill="#0089A6"/>
<path d="M110.738 121.405C110.942 121.38 111.127 121.275 111.254 121.113C111.38 120.952 111.438 120.746 111.413 120.542L110.688 115.014C110.66 114.809 110.552 114.623 110.389 114.497C110.225 114.371 110.018 114.314 109.813 114.339C109.61 114.37 109.428 114.479 109.304 114.642C109.18 114.805 109.125 115.011 109.15 115.214L109.875 120.742C109.888 120.843 109.92 120.94 109.97 121.028C110.02 121.116 110.088 121.193 110.168 121.255C110.248 121.316 110.34 121.361 110.438 121.387C110.536 121.413 110.638 121.419 110.738 121.405Z" fill="#0089A6"/>
</g>
<defs>
<clipPath id="clip0_660_657">
<rect width="407" height="449" fill="white"/>
</clipPath>
</defs>
</svg>
