<svg width="450" height="443" viewBox="0 0 450 443" fill="none" xmlns="http://www.w3.org/2000/svg">
<g clip-path="url(#clip0_662_1033)">
<path d="M449.691 248.679C449.691 248.679 449.623 112.661 376.735 47.6975C312.392 -9.65122 223.812 -21.3005 164.327 45.0144C143.131 68.6411 117.502 93.2715 90.8785 109.775C61.0394 128.287 26.1789 136.741 5.83235 198.028C-14.5142 259.314 16.9761 349.198 63.1156 381.019C109.255 412.84 181.554 401.017 243.695 387.707C305.836 374.398 444.273 417.463 449.691 248.679Z" fill="#A8D7DE"/>
<path opacity="0.7" d="M449.691 248.679C449.691 248.679 449.623 112.661 376.735 47.6975C312.392 -9.65122 223.812 -21.3005 164.327 45.0144C143.131 68.6411 117.502 93.2715 90.8785 109.775C61.0394 128.287 26.1789 136.741 5.83235 198.028C-14.5142 259.314 16.9761 349.198 63.1156 381.019C109.255 412.84 181.554 401.017 243.695 387.707C305.836 374.398 444.273 417.463 449.691 248.679Z" fill="white"/>
<path opacity="0.16" d="M228.148 442.817C309.955 442.817 376.272 434.732 376.272 424.759C376.272 414.786 309.955 406.701 228.148 406.701C146.342 406.701 80.0249 414.786 80.0249 424.759C80.0249 434.732 146.342 442.817 228.148 442.817Z" fill="#428C98"/>
<path opacity="0.07" d="M376.735 47.6877C366.614 38.6337 355.634 30.5881 343.95 23.6653L247.558 168.437L378.54 49.3477C377.951 48.7879 377.353 48.2571 376.735 47.6877ZM290.472 2.71209C275.441 -0.416216 259.993 -1.00668 244.767 0.965183L247.558 168.427L290.472 2.71209ZM189.444 22.6423C180.237 29.1042 171.812 36.6117 164.337 45.0142C161.723 47.9418 159.035 50.8759 156.273 53.8163L247.567 168.446L189.444 22.6423ZM110.366 96.2054C104.106 101.053 97.6049 105.582 90.888 109.775C76.432 118.712 60.8365 125.343 46.2067 136.741L247.558 168.446L110.366 96.2054ZM-0.106588 229.52C-1.87376 255.647 3.08011 283.925 12.6692 309.502L247.558 168.446L-0.106588 229.52ZM247.558 168.446L79.8698 390.265C104.263 400.881 133.59 402.812 163.979 400.476L247.558 168.446ZM247.558 168.446L255.534 385.873C272.771 384.03 293.823 384.599 315.627 383.663L247.558 168.446ZM435.804 319.105L247.558 168.446L394.126 365.924C411.19 356.379 425.858 341.718 435.804 319.105ZM443.771 189.168L247.558 168.446L449.507 241.536C448.702 223.977 446.786 206.486 443.771 189.168ZM411.991 92.9625L247.558 168.446L429.247 132.08C424.603 118.58 418.831 105.495 411.991 92.9625Z" fill="#428C98"/>
<path d="M417.747 305.255C417.747 305.255 407.327 301.732 404.227 299.58C401.128 297.428 393.199 289.475 391.355 283.346C389.764 277.689 388.707 271.895 388.197 266.041C387.734 261.293 385.745 260.067 382.828 263.744C379.912 267.421 378.966 273.396 379.767 277.256C380.569 281.117 382.983 285.527 382.664 286.299C382.345 287.072 381.892 288.596 381.892 288.596C381.892 288.596 372.544 287.525 367.339 286.299C362.134 285.074 357.991 284.61 357.682 287.062C357.373 289.513 358.445 293.345 358.754 295.951C359.063 298.557 363.042 310.042 365.041 312.638C366.457 314.659 368.1 316.511 369.937 318.159C371.163 319.076 371.163 319.838 374.079 320.147C376.55 320.368 379.006 320.726 381.438 321.218C382.51 321.527 383.581 322.598 388.642 322.444C391.822 322.335 394.992 322.028 398.134 321.527L413.305 327.183L417.747 305.255Z" fill="white" stroke="#263238" stroke-width="0.75" stroke-miterlimit="10"/>
<path d="M412.841 302.34L406.555 329.605L416.829 333.736L422.034 305.409L412.841 302.34Z" fill="white" stroke="#263238" stroke-width="0.75" stroke-miterlimit="10"/>
<path d="M438.721 307.552L418.664 302.649L411.306 335.116L438.605 347.847L438.721 345.385V307.552Z" fill="#263238" stroke="#263238" stroke-width="0.75" stroke-miterlimit="10"/>
<path d="M381.272 289.938C381.272 289.938 379.892 298.229 379.892 300.159C379.892 302.089 384.179 307.513 385.686 307.812" stroke="#263238" stroke-width="0.75" stroke-miterlimit="10"/>
<path d="M378.202 310.775C378.202 310.775 380.356 311.538 379.738 313.381C379.12 315.225 374.523 317.821 372.379 319.047C370.236 320.272 369.482 320.118 367.02 318.738C365.573 317.938 364.478 316.626 363.949 315.061C365.494 315.022 367.033 314.87 368.555 314.607L378.202 310.775Z" fill="white" stroke="#263238" stroke-width="0.75" stroke-miterlimit="10"/>
<path d="M360.579 306.78C360.579 306.78 360.579 313.825 362.269 314.443C363.882 315.065 365.599 315.376 367.329 315.36C368.401 315.205 375.605 312.754 376.985 311.837C378.366 310.92 379.747 308.942 378.984 307.089L378.212 305.255C375.883 305.653 373.525 305.857 371.162 305.863C367.3 305.863 360.897 304.637 360.434 305.1C359.97 305.564 360.579 306.78 360.579 306.78Z" fill="white" stroke="#263238" stroke-width="0.75" stroke-miterlimit="10"/>
<path d="M358.262 297.263C357.956 297.459 357.709 297.733 357.547 298.058C357.386 298.383 357.315 298.745 357.344 299.107C357.344 300.487 355.51 304.618 357.653 305.998C359.797 307.378 366.537 308.449 367.918 308.449C369.299 308.449 377.421 305.554 378.183 305.236C378.946 304.917 378.956 302.166 378.647 301.095C378.338 300.024 375.586 299.715 375.586 299.715C375.586 299.715 363.805 299.435 358.262 297.263Z" fill="white" stroke="#263238" stroke-width="0.75" stroke-miterlimit="10"/>
<path d="M362.269 287.94C362.269 287.94 367.174 291.617 368.063 291.926L375.576 294.532C375.576 294.532 376.541 294.986 376.541 296.829C376.525 297.623 376.223 298.384 375.691 298.974C375.159 299.564 374.433 299.944 373.644 300.043C372.119 300.352 366.595 301.269 364.606 300.506C361.894 299.166 359.283 297.631 356.794 295.912C355.413 294.947 355.258 293.76 356.021 292.052C356.684 290.401 357.249 288.712 357.711 286.994" fill="white"/>
<path d="M362.269 287.94C362.269 287.94 367.174 291.617 368.063 291.926L375.576 294.532C375.576 294.532 376.541 294.986 376.541 296.829C376.525 297.623 376.223 298.384 375.691 298.974C375.159 299.564 374.433 299.944 373.644 300.043C372.119 300.352 366.595 301.269 364.606 300.506C361.894 299.166 359.283 297.631 356.794 295.912C355.413 294.947 355.258 293.76 356.021 292.052C356.684 290.401 357.249 288.712 357.711 286.994" stroke="#263238" stroke-width="0.75" stroke-miterlimit="10"/>
<path d="M387.232 68.4092C387.232 68.4092 376.696 71.6038 372.959 71.6424C369.222 71.681 358.098 69.8376 353.038 65.9191C348.433 62.2607 344.185 58.1761 340.349 53.7197C337.21 50.1197 334.873 50.2838 334.642 54.9647C334.41 59.6457 337.143 65.0408 340.001 67.7143C342.86 70.3877 347.427 72.54 347.63 73.37C347.833 74.2 348.345 75.6863 348.345 75.6863C348.345 75.6863 340.117 80.2515 335.163 82.2783C330.209 84.3051 326.578 86.3512 327.757 88.5227C328.935 90.6943 332.034 93.1844 333.802 95.1243C335.569 97.0642 345.496 104.081 348.634 105.046C350.963 105.859 353.377 106.406 355.828 106.677C357.364 106.677 357.76 107.333 360.357 105.895C362.491 104.632 364.696 103.495 366.963 102.488C368.015 102.112 369.512 102.363 373.529 99.2937C376.055 97.3536 378.458 95.2584 380.723 93.0203L396.367 88.8026L387.232 68.4092Z" fill="white" stroke="#263238" stroke-width="0.75" stroke-miterlimit="10"/>
<path d="M381.534 68.8917L392.301 94.7189L403.059 92.113L390.795 66.0349L381.534 68.8917Z" fill="white" stroke="#263238" stroke-width="0.75" stroke-miterlimit="10"/>
<path d="M405.619 58.0823L386.45 65.7551L399.371 96.437L428.978 90.9164L427.645 88.851L405.619 58.0823Z" fill="#263238" stroke="#263238" stroke-width="0.75" stroke-miterlimit="10"/>
<path d="M348.605 77.2112C348.605 77.2112 352.304 84.7393 353.434 86.3607C354.564 87.9822 361.159 89.8449 362.627 89.1982" stroke="#263238" stroke-width="0.75" stroke-miterlimit="10"/>
<path d="M358.262 95.8867C358.262 95.8867 360.454 95.2593 361.023 97.1124C361.593 98.9655 359.372 103.753 358.339 106.001C357.306 108.25 356.601 108.569 353.8 108.897C352.158 109.091 350.503 108.661 349.165 107.69C350.399 106.763 351.561 105.743 352.641 104.641L358.262 95.8867Z" fill="white" stroke="#263238" stroke-width="0.75" stroke-miterlimit="10"/>
<path d="M341.623 102.894C341.623 102.894 345.718 108.626 347.417 108.144C349.092 107.71 350.671 106.967 352.072 105.953C352.854 105.2 357.287 99.0233 357.866 97.4694C358.445 95.9155 358.416 93.5027 356.726 92.4507L355.037 91.3987C353.374 93.0794 351.575 94.6193 349.658 96.0024C346.539 98.2222 340.59 100.973 340.484 101.61C340.378 102.247 341.623 102.894 341.623 102.894Z" fill="white" stroke="#263238" stroke-width="0.75" stroke-miterlimit="10"/>
<path d="M334.217 96.5141C334.083 96.8516 334.043 97.219 334.101 97.5774C334.159 97.9358 334.312 98.272 334.545 98.5505C335.347 99.6701 336.254 104.1 338.804 103.975C341.353 103.849 347.495 100.799 348.586 99.9982C349.677 99.1972 354.612 92.1034 355.066 91.4085C355.519 90.7136 353.897 88.5131 353.028 87.7795C352.159 87.046 349.735 88.4455 349.735 88.4455C349.735 88.4455 339.914 95.0471 334.217 96.5141Z" fill="white" stroke="#263238" stroke-width="0.75" stroke-miterlimit="10"/>
<path d="M332.024 86.5925C332.024 86.5925 338.147 86.7276 339.074 86.4477C340.001 86.1678 346.703 84.1989 346.703 84.1989C346.703 84.1989 347.716 84.0348 348.788 85.5308C349.24 86.1874 349.439 86.9857 349.346 87.7773C349.254 88.569 348.877 89.3003 348.286 89.8353C347.224 90.9839 343.274 94.9313 341.208 95.4718C338.218 95.9585 335.198 96.2294 332.169 96.2825C330.518 96.2825 329.678 95.4235 329.272 93.609C328.848 91.8842 328.322 90.1858 327.698 88.5228" fill="white"/>
<path d="M332.024 86.5925C332.024 86.5925 338.147 86.7276 339.074 86.4477C340.001 86.1678 346.703 84.1989 346.703 84.1989C346.703 84.1989 347.716 84.0348 348.788 85.5308C349.24 86.1874 349.439 86.9857 349.346 87.7773C349.254 88.569 348.877 89.3003 348.286 89.8353C347.224 90.9839 343.274 94.9313 341.208 95.4718C338.218 95.9585 335.198 96.2294 332.169 96.2825C330.518 96.2825 329.678 95.4235 329.272 93.609C328.848 91.8842 328.322 90.1858 327.698 88.5228" stroke="#263238" stroke-width="0.75" stroke-miterlimit="10"/>
<path d="M50.0601 301.79C50.0601 301.79 60.4796 298.267 63.5794 296.125C66.6792 293.982 74.5783 286.01 76.4131 279.891C78.0322 274.237 79.1121 268.443 79.6384 262.586C80.0922 257.838 82.0912 256.612 84.9978 260.289C87.9045 263.966 88.8605 269.94 88.059 273.801C87.2575 277.662 84.8433 282.072 85.162 282.835C85.4807 283.597 85.9249 285.132 85.9249 285.132C85.9249 285.132 95.2725 284.06 100.487 282.835C105.702 281.609 109.835 281.146 110.144 283.597C110.453 286.049 109.371 289.88 109.072 292.486C108.772 295.092 104.775 306.577 102.785 309.183C101.367 311.202 99.7206 313.051 97.8798 314.694C96.6534 315.659 96.6534 316.383 93.7468 316.682C91.2766 316.908 88.8203 317.266 86.3884 317.754C85.3165 318.062 84.2446 319.134 79.1845 318.979C76.0012 318.87 72.8278 318.564 69.6824 318.062L54.5118 323.728L50.0601 301.79Z" fill="white" stroke="#263238" stroke-width="0.75" stroke-miterlimit="10"/>
<path d="M54.9655 298.875L61.2423 326.141L50.9773 330.281L45.7627 301.945L54.9655 298.875Z" fill="white" stroke="#263238" stroke-width="0.75" stroke-miterlimit="10"/>
<path d="M29.0762 304.087L49.133 299.184L56.4914 331.651L29.2017 344.382L29.0762 341.921V304.087Z" fill="#263238" stroke="#263238" stroke-width="0.75" stroke-miterlimit="10"/>
<path d="M86.5332 286.473C86.5332 286.473 87.9141 294.745 87.9141 296.733C87.9141 298.721 83.6169 304.087 82.1201 304.396" stroke="#263238" stroke-width="0.75" stroke-miterlimit="10"/>
<path d="M89.5943 307.301C89.5943 307.301 87.4505 308.073 88.0589 309.907C88.6673 311.741 93.2735 314.347 95.4173 315.572C97.561 316.798 98.3143 316.644 100.786 315.263C102.233 314.47 103.326 313.16 103.848 311.596C102.306 311.558 100.769 311.404 99.2509 311.133L89.5943 307.301Z" fill="white" stroke="#263238" stroke-width="0.75" stroke-miterlimit="10"/>
<path d="M107.189 303.325C107.189 303.325 107.189 310.37 105.508 310.978C103.899 311.621 102.181 311.949 100.448 311.943C99.3764 311.789 92.1726 309.347 90.7917 308.421C89.4108 307.494 88.0299 305.525 88.8024 303.672L89.5653 301.838C91.894 302.237 94.252 302.44 96.6147 302.446C100.477 302.446 106.88 301.221 107.343 301.684C107.807 302.147 107.189 303.325 107.189 303.325Z" fill="white" stroke="#263238" stroke-width="0.75" stroke-miterlimit="10"/>
<path d="M109.516 293.828C109.835 294.01 110.095 294.279 110.266 294.604C110.437 294.929 110.512 295.296 110.482 295.661C110.482 297.042 112.326 301.172 110.182 302.553C108.038 303.933 101.24 304.985 99.8593 304.985C98.4784 304.985 90.3571 302.089 89.5943 301.771C88.8314 301.452 88.8314 298.702 89.1404 297.63C89.4494 296.559 92.2016 296.26 92.2016 296.26C92.2016 296.26 104.002 295.97 109.516 293.828Z" fill="white" stroke="#263238" stroke-width="0.75" stroke-miterlimit="10"/>
<path d="M105.538 284.485C105.538 284.485 100.632 288.153 99.7437 288.462C98.8553 288.77 92.2308 291.067 92.2308 291.067C92.2308 291.067 91.2651 291.531 91.2651 293.364C91.2801 294.159 91.5813 294.921 92.1134 295.512C92.6456 296.102 93.373 296.481 94.1621 296.578C95.6975 296.887 101.211 297.804 103.21 297.042C105.933 295.701 108.554 294.162 111.052 292.438C112.433 291.521 112.587 290.295 111.814 288.577C111.156 286.926 110.595 285.237 110.134 283.52" fill="white"/>
<path d="M105.538 284.485C105.538 284.485 100.632 288.153 99.7437 288.462C98.8553 288.77 92.2308 291.067 92.2308 291.067C92.2308 291.067 91.2651 291.531 91.2651 293.364C91.2801 294.159 91.5813 294.921 92.1134 295.512C92.6456 296.102 93.373 296.481 94.1621 296.578C95.6975 296.887 101.211 297.804 103.21 297.042C105.933 295.701 108.554 294.162 111.052 292.438C112.433 291.521 112.587 290.295 111.814 288.577C111.156 286.926 110.595 285.237 110.134 283.52" stroke="#263238" stroke-width="0.75" stroke-miterlimit="10"/>
<path d="M61.3871 77.5781C61.3871 77.5781 71.9129 80.7727 75.6597 80.8113C79.4065 80.85 90.5116 79.0065 95.5814 75.0881C100.186 71.4296 104.434 67.345 108.27 62.8887C111.409 59.2887 113.746 59.4528 113.968 64.1337C114.19 68.8146 111.467 74.2098 108.618 76.8832C105.769 79.5567 101.182 81.7089 100.989 82.5389C100.796 83.369 100.274 84.8553 100.274 84.8553C100.274 84.8553 108.502 89.4108 113.456 91.4472C118.41 93.4837 122.041 95.5105 120.862 97.682C119.684 99.8536 116.585 102.344 114.817 104.284C113.05 106.224 103.123 113.25 99.9848 114.215C97.6559 115.028 95.2425 115.575 92.7906 115.846C91.2552 115.846 90.8592 116.502 88.2616 115.055C86.1226 113.801 83.9177 112.664 81.6565 111.648C80.6039 111.281 79.1071 111.522 75.0803 108.463C72.5587 106.521 70.1593 104.426 67.8957 102.189L52.252 97.9716L61.3871 77.5781Z" fill="white" stroke="#263238" stroke-width="0.75" stroke-miterlimit="10"/>
<path d="M67.075 78.0607L56.3078 103.888L45.5503 101.282L57.8142 75.2039L67.075 78.0607Z" fill="white" stroke="#263238" stroke-width="0.75" stroke-miterlimit="10"/>
<path d="M42.9913 67.2512L62.1597 74.9241L49.2391 105.606L19.6318 100.085L20.9645 98.0103L42.9913 67.2512Z" fill="#263238" stroke="#263238" stroke-width="0.75" stroke-miterlimit="10"/>
<path d="M99.9751 86.332C99.9751 86.332 96.2766 93.8601 95.1467 95.4719C94.0169 97.0837 87.4214 98.9561 85.9536 98.3673" stroke="#263238" stroke-width="0.75" stroke-miterlimit="10"/>
<path d="M90.3377 105.056C90.3377 105.056 88.1456 104.428 87.5759 106.281C87.0062 108.134 89.2272 112.922 90.2604 115.161C91.2937 117.4 91.9986 117.728 94.7991 118.056C96.4405 118.245 98.0934 117.815 99.4343 116.85C98.2002 115.922 97.038 114.903 95.9579 113.8L90.3377 105.056Z" fill="white" stroke="#263238" stroke-width="0.75" stroke-miterlimit="10"/>
<path d="M106.986 112.063C106.986 112.063 102.882 117.796 101.192 117.313C99.5143 116.883 97.9344 116.136 96.5375 115.113C95.7553 114.369 91.3229 108.183 90.7435 106.639C90.1641 105.094 90.2027 102.662 91.8926 101.62L93.5826 100.568C95.241 102.25 97.0405 103.787 98.9613 105.162C102.08 107.391 108.029 110.142 108.135 110.779C108.241 111.416 106.986 112.063 106.986 112.063Z" fill="white" stroke="#263238" stroke-width="0.75" stroke-miterlimit="10"/>
<path d="M114.383 105.673C114.52 106.01 114.563 106.377 114.507 106.736C114.451 107.095 114.298 107.431 114.064 107.71C113.263 108.829 112.346 113.259 109.806 113.134C107.266 113.008 101.115 109.959 100.024 109.158C98.9325 108.356 93.9883 101.263 93.5441 100.568C93.0999 99.8729 94.7029 97.6723 95.5816 96.9388C96.4604 96.2053 98.8745 97.5951 98.8745 97.5951C98.8745 97.5951 108.647 104.235 114.383 105.673Z" fill="white" stroke="#263238" stroke-width="0.75" stroke-miterlimit="10"/>
<path d="M116.585 95.7615C116.585 95.7615 110.453 95.8966 109.526 95.6167C108.599 95.3368 101.907 93.3583 101.907 93.3583C101.907 93.3583 100.941 93.2039 99.8209 94.6998C99.3697 95.356 99.1711 96.1531 99.2616 96.9442C99.3521 97.7352 99.7257 98.4669 100.313 99.0044C101.385 100.143 105.335 104.1 107.401 104.641C110.39 105.129 113.412 105.397 116.44 105.442C118.091 105.5 118.931 104.593 119.289 102.778C119.714 101.05 120.239 99.3486 120.863 97.6821" fill="white"/>
<path d="M116.585 95.7615C116.585 95.7615 110.453 95.8966 109.526 95.6167C108.599 95.3368 101.907 93.3583 101.907 93.3583C101.907 93.3583 100.941 93.2039 99.8209 94.6998C99.3697 95.356 99.1711 96.1531 99.2616 96.9442C99.3521 97.7352 99.7257 98.4669 100.313 99.0044C101.385 100.143 105.335 104.1 107.401 104.641C110.39 105.129 113.412 105.397 116.44 105.442C118.091 105.5 118.931 104.593 119.289 102.778C119.714 101.05 120.239 99.3486 120.863 97.6821" stroke="#263238" stroke-width="0.75" stroke-miterlimit="10"/>
<path d="M202.79 217.495C202.79 217.495 196.03 247.086 195.76 261.003C195.49 274.921 196.262 325.079 196.523 335.84C196.784 346.602 201.515 381.53 201.515 384.677C201.515 387.823 202.307 393.865 202.307 393.865L200.202 405.157C198.142 406.748 195.944 408.153 193.636 409.355C188.904 411.98 183.39 415.397 181.816 417.231C181.624 417.452 181.488 417.715 181.42 417.999C181.351 418.283 181.352 418.58 181.422 418.864C181.492 419.148 181.629 419.41 181.822 419.63C182.015 419.85 182.258 420.02 182.53 420.126C184.403 420.859 186.376 421.305 188.382 421.448C192.844 421.709 200.202 421.709 204.142 420.657C208.082 419.605 211.24 416.198 213.074 414.866L214.919 413.554L215.18 416.449C216.064 416.319 216.941 416.142 217.806 415.918C219.734 415.363 221.586 414.572 223.32 413.563C223.32 413.563 223.581 409.095 223.581 406.469C223.581 403.844 222.267 399.115 222.007 398.073C221.746 397.03 222.007 387.562 221.225 384.416C220.442 381.27 219.911 382.051 219.38 376.28C218.849 370.508 223.581 315.881 223.32 314.308C223.059 312.735 230.002 265.414 230.002 265.414C230.002 265.414 243.28 327.183 247.481 339.006C251.682 350.829 253.787 373.664 253.787 375.247C253.787 376.83 256.153 395.457 257.205 398.092C258.258 400.727 261.145 408.853 261.145 408.853C261.145 408.853 265.346 415.156 267.181 418.302C269.015 421.448 275.331 424.093 280.053 424.865C284.775 425.637 288.464 425.917 288.744 419.615C289.024 413.312 286.648 409.114 282.699 406.228C278.749 403.342 277.977 400.717 277.977 400.717C278.263 396.862 278.263 392.991 277.977 389.136C277.446 384.667 274.558 381.25 274.298 372.062C274.037 362.874 272.192 314.559 270.618 306.944C269.044 299.329 266.968 248.389 267.229 241.314C267.49 234.24 266.563 214.474 266.563 214.474L202.597 213.75L202.79 217.495Z" fill="#263238" stroke="#263238" stroke-width="0.75" stroke-miterlimit="10"/>
<path d="M227.898 111.706C227.898 111.706 218.135 117.497 211.221 120.913C204.306 124.33 195.866 126.318 195.007 128.258C194.148 130.198 179.228 161.97 176.418 166.284C173.608 170.599 166.906 179.034 168.2 183.782C169.494 188.531 174.902 195.017 178.359 194.592C181.816 194.167 188.74 192.208 191.55 187.247C194.36 182.286 201.062 166.284 201.062 166.284C201.062 166.284 202.143 181.196 201.921 188.541C201.699 195.885 201.709 201.937 201.274 205.604C200.84 209.272 198.899 213.818 199.758 215.111C200.618 216.404 201.689 217.707 202.79 217.495C203.891 217.282 220.085 217.061 225.001 217.273C229.916 217.485 252.454 217.273 257.215 217.495C261.976 217.717 266.08 215.333 266.505 214.464C266.93 213.596 267.809 212.302 267.374 207.554C266.939 202.805 267.809 188.328 269.103 182.711C270.397 177.094 278.18 155.484 278.18 155.484C278.18 155.484 298.719 171.689 303.046 172.982C307.372 174.276 319.037 172.336 322.929 167.587C326.82 162.839 328.114 159.152 325.739 155.919C323.363 152.686 314.711 149.655 305.634 139.926C296.556 130.198 293.08 125.671 286.832 122.641C280.584 119.61 267.809 115.518 264.776 114.215C261.744 112.912 260.914 112.285 258.982 111.406C257.051 110.528 252.493 108.82 244.063 108.598C238.526 108.599 233.04 109.653 227.898 111.706Z" fill="#A8D7DE" stroke="#263238" stroke-width="0.75" stroke-miterlimit="10"/>
<path d="M196.697 150.977C196.996 152.02 201.052 166.284 201.052 166.284L195.065 154.423" stroke="#263238" stroke-width="0.75" stroke-miterlimit="10"/>
<path d="M278.218 155.484C277.32 155.484 268.822 150.659 268.822 150.659" stroke="#263238" stroke-width="0.75" stroke-miterlimit="10"/>
<path d="M264.496 150.089C264.496 150.089 267.924 154.558 270.908 155.446" stroke="#263238" stroke-width="0.75" stroke-miterlimit="10"/>
<path d="M226.68 124.957L229.394 135.197C229.394 135.197 220.799 178.136 219.448 185.385C218.624 189.764 218.07 194.189 217.787 198.636L225.319 213.547L234.821 197.429C234.821 197.429 233.913 177.094 233.614 160.831C233.315 144.569 233.913 136.703 233.759 136.278C233.604 135.853 243.261 128.74 243.261 128.74C243.261 128.74 248.833 122.563 249.132 121.511C249.431 120.459 245.221 121.811 244.304 122.718C243.277 123.586 242.06 124.202 240.752 124.515C239.444 124.829 238.081 124.831 236.772 124.523C232.851 123.77 227.723 119.407 226.97 121.511C226.519 122.602 226.418 123.806 226.68 124.957Z" fill="#263238" stroke="#263238" stroke-width="0.75" stroke-miterlimit="10"/>
<path d="M233.16 107.488C232.706 107.787 229.095 108.694 227.888 111.706C226.681 114.717 220.5 128.576 218.694 130.835C216.889 133.093 219.747 132.186 222.161 130.68C224.575 129.175 226.681 123.307 228.032 125.855C229.384 128.403 233.315 129.464 233.315 129.464C233.315 129.464 241.446 127.959 243.261 126.752C244.498 125.889 245.658 124.92 246.728 123.857C246.728 123.857 253.661 134.251 255.612 135.149C257.563 136.046 257.881 134.551 258.026 132.89C258.74 126.839 259.899 120.849 261.493 114.968C263.424 108.492 259.687 106.378 257.273 103.676C254.859 100.973 252.145 102.768 249.441 103.068C246.737 103.367 233.16 107.488 233.16 107.488Z" fill="#A8D7DE" stroke="#263238" stroke-width="0.75" stroke-miterlimit="10"/>
<path d="M229.027 61.1033C229.027 61.1033 224.315 68.255 225.165 69.9922C226.015 71.7295 226.034 74.0072 225.165 75.2233C224.508 76.0228 224.029 76.9521 223.757 77.9502C223.486 78.9483 223.429 79.9925 223.591 81.0141C223.938 83.9771 222.2 98.9658 224.817 100.713C226.5 101.807 228.313 102.686 230.215 103.328C230.215 103.328 233.18 128.422 234.232 127.727C235.285 127.032 250.301 111.657 252.039 108.337C253.777 105.017 255.902 100.327 255.902 100.327C255.902 100.327 261.831 88.9959 265.317 84.286C268.803 79.5761 272.82 70.8705 271.604 66.3343C270.387 61.7982 264.1 58.4877 261.136 56.0459C258.171 53.6041 260.093 48.0352 255.902 45.246C251.711 42.4567 246.66 41.7618 243.348 42.9779C240.036 44.194 239.862 46.8385 235.845 44.194C231.828 41.5495 228.004 38.9726 221.901 41.9355C215.798 44.8985 214.571 55.351 218.231 58.1403C221.891 60.9295 229.027 61.1033 229.027 61.1033Z" fill="white" stroke="#263238" stroke-width="0.75" stroke-miterlimit="10"/>
<path d="M261.116 56.0459C258.152 53.6138 260.073 48.0352 255.882 45.246C251.691 42.4567 246.641 41.7618 243.329 42.9779C240.016 44.194 239.843 46.8385 235.825 44.194C231.808 41.5495 227.984 38.9726 221.881 41.9355C215.778 44.8985 214.552 55.351 218.212 58.1403C221.872 60.9295 229.027 61.1033 229.027 61.1033C229.027 61.1033 234.261 58.6615 237.718 56.7505C241.175 54.8395 249.055 57.9665 250.446 59.1923C251.836 60.418 249.75 59.5397 249.403 61.7982C249.055 64.0566 253.41 67.7338 255.332 69.5193C257.254 71.3048 254.984 72.4823 254.463 74.7504C253.941 77.0184 256.027 77.8871 257.254 77.0184C258.48 76.1498 262.304 71.2276 263.704 74.0555C265.104 76.8833 267.19 81.0238 263.357 83.9868C259.523 86.9497 256.722 86.2548 256.722 86.2548C256.722 86.2548 255.477 93.8023 259.098 94.391C260.978 90.9334 263.038 87.5766 265.269 84.3342C268.764 79.634 272.772 70.9187 271.555 66.3826C270.338 61.8464 264.081 58.4877 261.116 56.0459Z" fill="#263238" stroke="#263238" stroke-width="0.75" stroke-miterlimit="10"/>
<path d="M238.442 70.3396C239.555 69.9245 240.743 69.747 241.928 69.8184" stroke="#263238" stroke-width="0.5" stroke-miterlimit="10"/>
<path d="M229.519 72.0576C228.659 72.2397 227.827 72.5384 227.047 72.9455" stroke="#263238" stroke-width="0.5" stroke-miterlimit="10"/>
<path d="M229.578 67.2996C230.198 68.4861 230.379 69.8532 230.089 71.1601C229.52 73.0904 224.122 77.3081 224.189 78.1284C224.257 78.9488 227.356 80.6668 227.299 81.3617C227.241 82.0566 227.047 83.2051 227.047 83.2051" stroke="#263238" stroke-width="0.75" stroke-miterlimit="10"/>
<path d="M241.378 72.7525C242.008 72.7525 242.518 72.126 242.518 71.3531C242.518 70.5802 242.008 69.9536 241.378 69.9536C240.749 69.9536 240.239 70.5802 240.239 71.3531C240.239 72.126 240.749 72.7525 241.378 72.7525Z" fill="#263238" stroke="#263238" stroke-width="0.5" stroke-miterlimit="10"/>
<path d="M239.157 73.6405C240.69 72.9989 242.325 72.633 243.986 72.5596" stroke="#263238" stroke-width="0.75" stroke-miterlimit="10"/>
<path d="M235.13 65.2437C235.13 65.2437 238.867 61.7788 241.764 62.4737C244.661 63.1686 245.762 65.9579 245.299 65.9675C244.835 65.9772 243.367 63.8249 241.784 63.6608C240.2 63.4968 239.07 64.2496 237.699 64.9445C236.328 65.6394 235.488 66.1219 235.13 65.2437Z" fill="#263238" stroke="#263238" stroke-width="0.5" stroke-miterlimit="10"/>
<path d="M229.829 67.9944C229.786 67.7589 229.694 67.535 229.559 67.3374C229.423 67.1397 229.248 66.9727 229.044 66.8471C228.84 66.7215 228.612 66.6402 228.375 66.6084C228.137 66.5766 227.896 66.595 227.666 66.6625C225.957 66.9231 224.663 70.0309 225.184 69.9922C225.706 69.9536 226.275 67.9944 227.608 67.811C228.941 67.6277 229.829 69.7124 229.829 67.9944Z" fill="#263238" stroke="#263238" stroke-width="0.5" stroke-miterlimit="10"/>
<path d="M226.932 87.1427C226.932 87.1427 229.664 86.8242 233.218 86.3803C236.772 85.9363 241.774 85.2414 242.604 82.7031C243.078 81.4733 243.291 80.1589 243.232 78.8425" stroke="#263238" stroke-width="0.75" stroke-miterlimit="10"/>
<path d="M241.311 78.6495C242.351 78.5644 243.398 78.6294 244.42 78.8425" stroke="#263238" stroke-width="0.75" stroke-miterlimit="10"/>
<path d="M255.95 91.177C255.45 93.5297 254.068 95.6019 252.087 96.9679C248.92 98.985 225.657 101.292 226.429 101.581C227.202 101.871 230.225 103.318 230.225 103.318L231.132 111.57C234.796 108.329 238.871 105.584 243.251 103.405C250.957 99.4097 255.766 98.0874 255.95 91.177Z" fill="#263238" stroke="#263238" stroke-width="0.5" stroke-miterlimit="10"/>
<path d="M268.928 203.877C268.928 203.877 264.602 203.664 263.521 203.452C262.439 203.24 258.982 199.987 257.466 200.209C255.95 200.431 253.149 203.452 252.068 206C250.986 208.548 250.552 209.861 250.552 209.861C250.552 209.861 246.689 213.316 248.62 215.651C250.552 217.987 252.734 217.167 252.734 217.167C252.734 217.167 254.028 219.329 255.757 219.541C257.039 219.683 258.329 219.757 259.619 219.763C260.738 220.106 261.908 220.252 263.076 220.197C264 219.995 264.88 219.628 265.674 219.116C266.591 219.223 267.516 218.99 268.272 218.46C269.064 217.833 272.897 213.914 274.877 211.897L276.045 210.691L268.928 203.877Z" fill="white" stroke="#263238" stroke-width="0.75" stroke-miterlimit="10"/>
<path d="M305.025 159.374C305.025 159.374 297.029 168.234 294.403 172.548C290.217 179.131 285.671 185.478 280.787 191.561C277.764 195.017 267.171 203.452 267.171 203.452C267.171 203.452 270.406 210.362 272.791 211.443C274.179 212.082 275.624 212.586 277.108 212.949L285.799 206.473C285.799 206.473 302.215 193.926 310.906 186.813C319.597 179.7 331.658 170.174 332.527 166.072C333.396 161.97 332.74 159.808 328.423 156.565C325.737 154.578 322.742 153.046 319.558 152.029" fill="#A8D7DE"/>
<path d="M305.025 159.374C305.025 159.374 297.029 168.234 294.403 172.548C290.217 179.131 285.671 185.478 280.787 191.561C277.764 195.017 267.171 203.452 267.171 203.452C267.171 203.452 270.406 210.362 272.791 211.443C274.179 212.082 275.624 212.586 277.108 212.949L285.799 206.473C285.799 206.473 302.215 193.926 310.906 186.813C319.597 179.7 331.658 170.174 332.527 166.072C333.396 161.97 332.74 159.808 328.423 156.565C325.737 154.578 322.742 153.046 319.558 152.029" stroke="#263238" stroke-width="0.75" stroke-miterlimit="10"/>
<path d="M273.902 198.047C273.902 198.047 275.834 207.554 282.545 207.554" stroke="#263238" stroke-width="0.75" stroke-miterlimit="10"/>
<path d="M179.711 128.045C179.711 128.045 180.599 135.641 181.053 139.067C181.182 140.794 181.69 142.471 182.54 143.98C182.54 143.98 175.539 159.615 175.24 160.069C174.94 160.522 167.64 174.218 166.442 175.849C165.245 177.48 162.425 182.701 164.212 185.983C165.998 189.264 168.828 195.962 172.555 196.107C176.283 196.252 181.497 194.022 185.109 191.938C188.72 189.853 189.879 188.512 190.178 182.557C190.478 176.602 190.323 165.879 191.376 160.214C192.428 154.548 193.162 148.632 193.906 146.364C194.649 144.096 198.976 144.877 200.463 143.98C201.95 143.082 203.292 141.152 205.977 139.955C208.305 139.071 210.837 138.866 213.277 139.367C214.175 139.666 215.807 138.324 215.363 136.683C214.919 135.043 211.935 134.155 208.951 134.444C205.967 134.734 203.292 135.641 202.549 135.197C201.805 134.753 201.062 126.849 201.062 126.849C201.062 126.849 190.439 127.746 186.75 127.891C183.062 128.036 179.711 128.045 179.711 128.045Z" fill="white" stroke="#263238" stroke-width="0.75" stroke-miterlimit="10"/>
<path d="M196.098 122.235C196.098 122.235 196.253 132.07 196.253 132.958C196.255 133.165 196.299 133.37 196.384 133.559C196.468 133.748 196.591 133.917 196.744 134.057C196.898 134.196 197.078 134.303 197.274 134.369C197.47 134.436 197.678 134.462 197.885 134.444C198.638 134.3 200.569 135.043 201.023 132.813C201.477 130.584 202.356 124.32 201.911 122.834C201.467 121.347 197.44 120.749 196.098 122.235Z" fill="white" stroke="#263238" stroke-width="0.75" stroke-miterlimit="10"/>
<path d="M196.098 122.235C196.098 122.235 191.337 121.048 189.995 121.791C188.653 122.534 190.739 133.112 190.884 134C191.028 134.888 193.124 135.342 194.012 135.043C194.901 134.743 196.253 134.155 196.253 132.958C196.253 131.761 196.098 122.235 196.098 122.235Z" fill="white" stroke="#263238" stroke-width="0.75" stroke-miterlimit="10"/>
<path d="M188.952 122.091C188.952 122.091 185.823 121.492 184.925 122.535C184.027 123.577 183.737 125.063 184.027 127.746C184.421 130.387 185.226 132.95 186.412 135.342C187.011 136.24 188.952 136.384 190.14 135.94C191.328 135.496 190.883 134.01 190.883 134.01C190.883 134.01 190.285 133.412 190.14 128.798C189.995 124.185 189.995 121.801 189.995 121.801L188.952 122.091Z" fill="white" stroke="#263238" stroke-width="0.75" stroke-miterlimit="10"/>
<path d="M183.737 123.876C183.139 124.021 179.411 124.175 179.266 125.661C179.121 127.148 180.454 134.155 181.053 134.898C181.651 135.641 183.283 135.342 183.882 135.043C184.481 134.743 185.524 134.3 185.369 133.402C185.215 132.504 183.737 123.876 183.737 123.876Z" fill="white" stroke="#263238" stroke-width="0.75" stroke-miterlimit="10"/>
<path d="M184.925 153.361C183.855 153.191 182.847 152.745 182 152.068C181.154 151.392 180.498 150.507 180.097 149.5C178.05 154.056 175.442 159.818 175.268 160.117C174.969 160.561 167.669 174.266 166.471 175.897C165.274 177.528 162.454 182.75 164.241 186.031C166.027 189.313 168.856 196.011 172.584 196.155C176.311 196.3 181.526 194.071 185.138 191.986C188.749 189.901 189.908 188.56 190.207 182.605C190.507 176.65 190.352 165.927 191.405 160.262C191.907 157.482 192.37 154.645 192.757 152.193C190.242 153.068 187.586 153.464 184.925 153.361Z" fill="#A8D7DE" stroke="#263238" stroke-width="0.75" stroke-miterlimit="10"/>
<path d="M191.782 136.983C191.782 136.983 189.242 139.212 188.952 141.152C188.802 142.392 189.063 143.646 189.696 144.723" fill="white"/>
<path d="M191.782 136.983C191.782 136.983 189.242 139.212 188.952 141.152C188.802 142.392 189.063 143.646 189.696 144.723" stroke="#263238" stroke-width="0.75" stroke-miterlimit="10"/>
</g>
<defs>
<clipPath id="clip0_662_1033">
<rect width="450" height="443" fill="white"/>
</clipPath>
</defs>
</svg>
