<svg width="507" height="502" viewBox="0 0 507 502" fill="none" xmlns="http://www.w3.org/2000/svg">
<g clip-path="url(#clip0_655_402)">
<path d="M383.561 305.125H393.474V293.868H383.561V305.125Z" fill="white"/>
<path d="M434.841 247.09H425.498V260.692H434.841V247.09Z" fill="#FAFAFA"/>
<path d="M434.841 296.9H425.498V310.502H434.841V296.9Z" fill="#FAFAFA"/>
<path d="M398.207 311.131C398.059 311.131 397.945 297.106 397.945 279.809C397.945 262.511 398.059 248.486 398.207 248.486C398.355 248.486 398.469 262.511 398.469 279.809C398.469 297.106 398.355 311.131 398.207 311.131Z" fill="#E0E0E0"/>
<path d="M354.29 410.899H371.384V391.474H354.29V410.899Z" fill="white"/>
<path d="M442.751 310.765H426.636V334.24H442.751V310.765Z" fill="#FAFAFA"/>
<path d="M442.751 396.691H426.636V420.166H442.751V396.691Z" fill="#FAFAFA"/>
<path d="M379.567 421.253C379.316 421.253 379.111 397.057 379.111 367.21C379.111 337.363 379.316 313.167 379.567 313.167C379.817 313.167 380.01 337.363 380.01 367.21C380.01 397.057 379.817 421.253 379.567 421.253Z" fill="#E0E0E0"/>
<path d="M481.537 81.6562L489.139 97.1346L506.13 99.6171L493.839 111.675L496.741 128.686L481.537 120.655L466.332 128.686L469.234 111.675L456.943 99.6171L473.935 97.1346L481.537 81.6562Z" fill="#A3CEE1"/>
<path d="M28.9202 281.582L33.7114 291.34L44.4205 292.896L36.6704 300.492L38.5027 311.223L28.9202 306.155L19.3378 311.223L21.1701 300.492L13.4199 292.896L24.129 291.34L28.9202 281.582Z" fill="#A3CEE1"/>
<path d="M34.8607 196.571L45.5015 218.238L69.2869 221.716L52.0795 238.579L56.1424 262.397L34.8607 251.151L13.5905 262.397L17.6533 238.579L0.43457 221.716L24.2199 218.238L34.8607 196.571Z" fill="#A3CEE1"/>
<path d="M474.764 151.566L479.35 160.913L489.604 162.411L482.184 169.676L483.937 179.937L474.764 175.098L465.591 179.937L467.344 169.676L459.924 162.411L470.178 160.913L474.764 151.566Z" fill="#A3CEE1"/>
<path d="M324.29 0.272095L328.877 9.60713L339.131 11.1058L331.711 18.3816L333.463 28.6433L324.29 23.7927L315.118 28.6433L316.87 18.3816L309.45 11.1058L319.704 9.60713L324.29 0.272095Z" fill="#A3CEE1"/>
<path d="M429.185 100.189L432.19 106.298L438.904 107.282L434.045 112.041L435.194 118.756L429.185 115.587L423.188 118.756L424.337 112.041L419.478 107.282L426.192 106.298L429.185 100.189Z" fill="#A3CEE1"/>
<path d="M152.297 408.726L158.146 420.623L171.211 422.534L161.754 431.8L163.996 444.888L152.297 438.71L140.609 444.888L142.84 431.8L133.382 422.534L146.459 420.623L152.297 408.726Z" fill="#A3CEE1"/>
<path d="M167.729 396.885L170.141 401.805L175.547 402.594L171.632 406.426L172.554 411.838L167.729 409.275L162.903 411.838L163.825 406.426L159.91 402.594L165.316 401.805L167.729 396.885Z" fill="#A3CEE1"/>
<path d="M383.561 351.309L388.705 361.776L400.199 363.458L391.88 371.603L393.849 383.112L383.561 377.678L373.284 383.112L375.253 371.603L366.934 363.458L378.428 361.776L383.561 351.309Z" fill="#0E91AD"/>
<path d="M408.086 342.031L410.51 346.961L415.916 347.751L412.001 351.595L412.923 357.017L408.086 354.455L403.238 357.017L404.171 351.595L400.245 347.751L405.662 346.961L408.086 342.031Z" fill="#0E91AD"/>
<path d="M375.947 69.587L379.998 56.9344C376.137 49.1179 374.965 40.2348 376.664 31.6766C378.364 23.1185 382.84 15.3689 389.391 9.64191C395.942 3.91493 404.197 0.534151 412.864 0.029221C421.532 -0.475709 430.12 1.92374 437.286 6.85165C444.451 11.7796 449.787 18.9575 452.459 27.261C455.131 35.5644 454.987 44.5243 452.05 52.7368C449.113 60.9493 443.549 67.9504 436.23 72.6434C428.91 77.3364 420.249 79.4561 411.602 78.6704C403.166 78.0927 395.182 74.6194 388.989 68.832L375.947 69.587Z" fill="#FAFAFA"/>
<path d="M375.947 69.587L376.812 69.5183L379.327 69.3353L388.989 68.6718C393.779 73.1244 399.677 76.1919 406.06 77.5492C408.031 77.9894 410.032 78.2763 412.046 78.4072L415.233 78.5331C416.303 78.5331 417.406 78.4072 418.51 78.35C428.494 77.4394 437.745 72.6994 444.344 65.1139C448.063 60.9004 450.824 55.923 452.436 50.528C454.087 44.7629 454.421 38.6976 453.415 32.7845C453.164 31.2644 452.814 29.7625 452.368 28.2886C452.165 27.542 451.918 26.8085 451.628 26.0921C451.343 25.36 451.093 24.6278 450.786 23.9071C449.518 20.9975 447.914 18.2482 446.006 15.716C445.055 14.4538 444.025 13.2539 442.922 12.1239C442.386 11.5477 441.816 11.0051 441.215 10.4994C440.634 9.98459 440.077 9.42403 439.462 8.95499L437.596 7.55931L436.662 6.87291L435.661 6.27803L433.692 5.13403C433.021 4.75651 432.315 4.47051 431.632 4.12731C426.402 1.63908 420.683 0.361809 414.896 0.389527C409.109 0.417244 403.403 1.74925 398.196 4.28748C389.174 8.64306 382.168 16.325 378.633 25.7375C378.439 26.2637 378.257 26.7899 378.075 27.3048C377.869 27.8127 377.706 28.3369 377.586 28.872C377.324 29.9245 377.074 30.9656 376.823 31.9837C376.478 33.9787 376.242 35.9914 376.118 38.0126C375.863 44.5507 377.232 51.0497 380.101 56.9229L377.051 66.2808L376.243 68.7061C376.061 69.2552 375.959 69.5412 375.959 69.5412C375.959 69.5412 376.027 69.2781 376.197 68.7404L376.926 66.338L379.851 56.8543V56.9458C376.905 51.0618 375.48 44.527 375.708 37.944C375.815 35.9001 376.039 33.8642 376.38 31.8464C376.63 30.8168 376.892 29.7644 377.142 28.7004C377.263 28.1595 377.423 27.6281 377.62 27.1103C377.814 26.584 377.996 26.0578 378.189 25.5201C380.09 20.3882 383.03 15.7089 386.823 11.7783C390.616 7.84774 395.179 4.75156 400.224 2.68579C405.269 0.620012 410.686 -0.370372 416.132 -0.222666C421.577 -0.0749597 426.933 1.20762 431.86 3.54387C432.554 3.87563 433.271 4.17307 433.954 4.56203L435.957 5.76323L436.958 6.36956L437.914 7.06739L439.803 8.47452C440.429 8.96644 440.998 9.52699 441.59 10.0418C442.197 10.5583 442.774 11.1083 443.32 11.6892C444.438 12.8423 445.484 14.065 446.45 15.35C448.394 17.8966 450.033 20.6652 451.332 23.5982C451.639 24.3304 451.89 25.0854 452.174 25.8176C452.476 26.5634 452.73 27.3276 452.937 28.1056C453.387 29.6057 453.736 31.1345 453.984 32.6816C455.011 38.6825 454.669 44.8398 452.982 50.6881C451.366 56.1858 448.573 61.2617 444.799 65.5601C438.1 73.2175 428.729 77.9932 418.624 78.8992C417.486 78.8992 416.348 79.0593 415.301 79.0593L412.08 78.922C410.046 78.779 408.026 78.4807 406.037 78.0297C399.631 76.6195 393.729 73.479 388.966 68.9464H389.058L379.304 69.4612L376.823 69.5756C376.22 69.587 375.947 69.587 375.947 69.587Z" fill="#263238"/>
<path d="M392.87 37.944L399.323 32.3155L410.191 43.5381L434.568 23.1292L439.724 29.5927L408.496 55.1497L392.87 37.944Z" fill="#0E91AD"/>
<path d="M308.427 350.816L90.1934 399.711C88.9303 400.001 87.6225 400.038 86.3454 399.818C85.0683 399.598 83.8471 399.126 82.7523 398.429C81.6574 397.733 80.7104 396.825 79.966 395.759C79.2215 394.693 78.6942 393.49 78.4145 392.218L7.63889 72.7558C7.35694 71.49 7.32619 70.1808 7.54841 68.903C7.77063 67.6252 8.24144 66.4041 8.93389 65.3095C9.62633 64.215 10.5268 63.2685 11.5837 62.5243C12.6406 61.7801 13.8332 61.2528 15.0932 60.9726L233.327 12.0781C234.586 11.7945 235.89 11.7635 237.162 11.9867C238.433 12.21 239.649 12.6831 240.739 13.3791C241.829 14.0751 242.771 14.9802 243.513 16.0427C244.254 17.1052 244.78 18.3043 245.06 19.5713L315.881 339.033C316.163 340.299 316.194 341.608 315.972 342.886C315.749 344.164 315.279 345.385 314.586 346.48C313.894 347.574 312.993 348.521 311.936 349.265C310.879 350.009 309.687 350.536 308.427 350.816Z" fill="#0E91AD"/>
<path d="M308.427 350.817L309.155 350.611C309.863 350.379 310.545 350.076 311.192 349.707C312.254 349.08 313.191 348.261 313.958 347.293C315.003 345.966 315.689 344.389 315.949 342.717C316.114 341.706 316.114 340.674 315.949 339.663C315.767 338.599 315.483 337.477 315.232 336.311C314.709 334.023 314.094 331.414 313.525 328.646C312.289 323.101 310.866 316.722 309.258 309.507C302.85 280.712 293.587 239.048 282.138 187.556C276.447 161.816 270.165 133.617 263.439 103.335C260.086 88.2037 256.615 72.569 253.026 56.431C251.243 48.362 249.43 40.1824 247.586 31.8922C246.653 27.7509 245.731 23.5753 244.787 19.3768C244.274 17.2842 243.076 15.4256 241.385 14.0998C239.695 12.774 237.61 12.058 235.466 12.0667C234.397 12.0905 233.335 12.2442 232.302 12.5243L229.116 13.2336L222.708 14.675L209.78 17.5693L183.468 23.4724L129.251 35.656L15.1727 61.19C12.7614 61.7273 10.6485 63.1776 9.2731 65.2398C7.89768 67.302 7.36538 69.8176 7.78677 72.264C8.8224 77.126 9.93769 81.9994 10.9961 86.85C13.1508 96.5358 15.2865 106.164 17.4033 115.736L29.9219 172.261C38.1387 209.315 46.0596 245.008 53.6049 279.099C61.1502 313.19 68.3085 345.451 75.0231 375.779C75.8576 379.592 76.6884 383.344 77.5154 387.036C77.9365 388.889 78.312 390.765 78.7559 392.584C79.2339 394.376 80.2135 395.992 81.5782 397.24C82.9343 398.47 84.6058 399.295 86.4036 399.62C87.2952 399.766 88.2021 399.793 89.1008 399.7C89.9885 399.585 90.8875 399.368 91.7752 399.162L102.371 396.794L142.578 387.802L263.917 360.701L296.921 353.356L305.502 351.457L308.427 350.817L305.513 351.503L296.932 353.448L263.929 360.872L142.612 388.134L102.45 397.16L91.8549 399.539C90.9672 399.734 90.0795 399.963 89.1463 400.089C88.2132 400.184 87.2716 400.153 86.3467 399.997C84.4639 399.668 82.7136 398.806 81.3023 397.511C79.8909 396.216 78.8771 394.542 78.3803 392.687C77.9251 390.845 77.5495 388.992 77.1285 387.139C76.3015 383.424 75.4669 379.672 74.6247 375.882C67.9102 345.6 60.7291 313.248 53.1724 279.202C45.6157 245.157 37.6949 209.418 29.4667 172.364L16.9481 115.85C14.8313 106.287 12.6956 96.6502 10.5409 86.9415C9.47109 82.0909 8.36717 77.2404 7.32016 72.3326C6.88206 69.7698 7.44287 67.1358 8.8861 64.9778C10.3293 62.8197 12.5441 61.3035 15.0703 60.7439L129.16 35.1755L183.411 23.072L209.712 17.1804L222.64 14.286L229.059 12.776L232.245 12.0667C233.298 11.7925 234.379 11.6465 235.466 11.632C237.687 11.6372 239.844 12.3854 241.595 13.7587C243.347 15.132 244.594 17.0522 245.14 19.2167C246.073 23.4266 247.006 27.5908 247.928 31.7435C249.787 40.0413 251.615 48.2095 253.413 56.248C256.971 72.3784 260.435 88.013 263.804 103.152C270.507 133.434 276.743 161.633 282.445 187.385C293.826 238.865 303.044 280.564 309.417 309.369C310.999 316.565 312.41 322.972 313.639 328.509C314.242 331.288 314.777 333.84 315.323 336.185C315.574 337.329 315.858 338.473 316.029 339.537C316.2 340.559 316.2 341.603 316.029 342.625C315.769 344.329 315.071 345.934 314.003 347.282C313.226 348.249 312.282 349.067 311.215 349.695C310.559 350.066 309.865 350.361 309.144 350.576L308.427 350.817Z" fill="#263238"/>
<g opacity="0.3">
<path d="M101.255 388.397L300.096 342.706L293.814 303.535L282.536 281.582L92.3213 356.685L101.255 388.397Z" fill="black"/>
</g>
<g opacity="0.3">
<path d="M184.276 23.7927L191.799 36.2738L193.256 42.8975L188.157 44.0415L184.276 23.7927Z" fill="black"/>
</g>
<path d="M18.9624 74.6092L87.9513 385.777L304.193 337.34L291.857 281.696L235.204 26.1608L18.9624 74.6092Z" fill="white"/>
<path d="M18.9626 74.6091L235.193 25.9777H235.375V26.1721C254.563 112.647 278.496 220.561 304.398 337.34V337.58H304.17L87.9401 386.006H87.7352V385.789C47.118 202.039 19.3723 76.4738 18.9512 74.6205C19.3723 76.5196 47.3001 202.051 88.1563 385.789L87.8945 385.628L304.125 337.157L303.943 337.443C278.075 220.686 254.164 112.773 235.011 26.2751L235.238 26.4238L18.9626 74.6091Z" fill="#263238"/>
<path d="M79.854 37.5844L175.218 16.2269C177.083 15.8093 179.036 16.1534 180.649 17.1836C182.261 18.2138 183.401 19.8458 183.816 21.7204L189.325 46.5764L79.8759 71.0883L74.3719 46.2546C74.1624 45.3233 74.1382 44.3596 74.3006 43.4188C74.4631 42.4781 74.8091 41.5789 75.3186 40.7731C75.8281 39.9672 76.4912 39.2706 77.2695 38.7234C78.0479 38.1762 78.9263 37.789 79.854 37.5844Z" fill="#263238"/>
<path d="M138.811 11.8036L110.963 18.0384L119.532 41.3074L140.507 36.6055L138.811 11.8036Z" fill="#263238"/>
<path d="M175.218 16.208C175.218 16.3338 153.925 21.2187 127.601 27.1217C101.278 33.0248 79.894 37.7266 79.8599 37.6008C79.8258 37.4749 101.153 32.5901 127.499 26.687C153.845 20.784 175.149 16.1165 175.218 16.208Z" fill="#455A64"/>
<path d="M81.214 65.3999C81.0888 65.3999 79.9849 60.9383 78.7558 55.3785C77.5267 49.8186 76.6163 45.2769 76.7528 45.2426C76.8894 45.2083 77.9819 49.7042 79.211 55.2755C80.4401 60.8468 81.3392 65.3999 81.214 65.3999Z" fill="#455A64"/>
<path d="M184.105 39.8201C183.191 36.8107 182.431 33.756 181.829 30.6681C181.076 27.65 180.476 24.5954 180.031 21.5161C180.944 24.5067 181.703 27.5423 182.307 30.6109C183.062 33.6479 183.663 36.7216 184.105 39.8201Z" fill="#455A64"/>
<path d="M179.77 45.2541C179.77 45.38 157.908 50.3907 130.89 56.4424C103.873 62.4942 81.954 67.3104 81.8971 67.1732C81.8402 67.0359 103.748 62.0366 130.833 55.9848C157.919 49.9331 179.702 45.1283 179.77 45.2541Z" fill="#455A64"/>
<path d="M122.173 135.767C122.173 135.905 107.435 139.314 89.169 143.409C70.9032 147.505 56.1654 150.697 56.0858 150.571C56.0061 150.445 70.8805 147.024 89.0894 142.94C107.298 138.856 122.138 135.642 122.173 135.767Z" fill="#263238"/>
<path d="M232.234 123.309C232.234 123.447 193.688 132.198 146.083 142.86C98.4786 153.522 59.8416 162.068 59.8189 161.942C59.7961 161.816 98.3534 153.053 145.981 142.391C193.609 131.729 232.211 123.183 232.234 123.309Z" fill="#263238"/>
<path d="M234.612 134.04C234.612 134.166 196.055 142.917 148.45 153.591C100.845 164.264 62.2197 172.799 62.1856 172.661C62.1514 172.524 100.731 163.784 148.348 153.122C195.964 142.46 234.578 133.88 234.612 134.04Z" fill="#263238"/>
<path d="M236.979 144.702C236.979 144.828 198.434 153.579 150.829 164.242C103.224 174.904 64.5869 183.461 64.5528 183.323C64.5186 183.186 103.099 174.446 150.726 163.773C198.354 153.099 236.945 144.576 236.979 144.702Z" fill="#263238"/>
<path d="M239.347 155.398C239.347 155.524 200.801 164.276 153.196 174.938C105.591 185.6 66.9544 194.146 66.9317 194.02C66.9089 193.894 105.466 185.142 153.094 174.469C200.721 163.795 239.324 155.261 239.347 155.398Z" fill="#263238"/>
<path d="M241.725 166.072C241.725 166.209 203.168 174.961 155.563 185.623C107.958 196.285 69.3101 204.842 69.3101 204.716C69.3101 204.59 107.856 195.839 155.472 185.165C203.088 174.492 241.691 165.958 241.725 166.072Z" fill="#263238"/>
<path d="M102.735 241.359C102.688 241.244 102.654 241.125 102.632 241.004L102.382 239.986C102.166 239.059 101.858 237.766 101.483 236.153C100.72 232.847 99.6505 228.203 98.3759 222.643L98.6263 222.803L79.9622 227.013C79.9622 227.013 80.3036 226.475 80.1442 226.727V226.807V226.967L80.2125 227.287L80.3605 227.928L80.6336 229.198C80.8271 230.044 81.0092 230.88 81.1913 231.715C81.5554 233.362 81.9196 234.986 82.261 236.565C82.9552 239.711 83.6039 242.686 84.2071 245.42L83.9567 245.26L97.4427 242.342L101.278 241.542L102.302 241.347L102.666 241.278C102.666 241.278 102.575 241.278 102.348 241.381L101.38 241.622L97.6248 242.514L84.1047 245.752H83.8998V245.546L81.9196 236.702C81.5668 235.124 81.2026 233.499 80.7816 231.852C80.5995 231.017 80.406 230.182 80.2239 229.335C80.1215 228.923 80.0304 228.489 79.9394 228.065L79.7914 227.425L79.7232 227.104V226.944V226.864V226.807C79.5638 227.07 79.9394 226.464 79.9052 226.521L98.5807 222.368H98.7856V222.574L101.722 236.302C102.052 237.904 102.314 239.185 102.507 240.1C102.587 240.512 102.644 240.832 102.7 241.095C102.723 241.181 102.735 241.27 102.735 241.359Z" fill="#263238"/>
<path d="M241.465 195.107L111.254 224.268L113.675 235.189L243.885 206.027L241.465 195.107Z" fill="#0E91AD"/>
<path d="M109.95 273.917C109.907 273.797 109.873 273.675 109.848 273.551C109.78 273.288 109.7 272.944 109.597 272.533C109.381 271.606 109.074 270.325 108.698 268.712C107.936 265.394 106.866 260.704 105.591 255.19L105.842 255.35L87.1777 259.56C87.1777 259.628 87.5191 259.022 87.3598 259.285V259.342V259.422V259.583L87.4281 259.903L87.5761 260.543C87.6671 260.978 87.7581 261.402 87.8606 261.825L88.4068 264.33C88.771 265.989 89.1352 267.602 89.4766 269.181C90.1708 272.327 90.8195 275.301 91.4227 278.035L91.1723 277.875L104.67 274.969L108.493 274.169L109.518 273.963C109.637 273.929 109.759 273.91 109.882 273.905L109.575 273.997L108.596 274.237L104.84 275.141L91.2633 278.287H91.0585V278.081L89.0783 269.238C88.7255 267.659 88.3613 266.035 87.9402 264.387C87.7581 263.564 87.5647 262.717 87.3826 261.882C87.2915 261.459 87.1891 261.035 87.0981 260.601L86.9501 259.96L86.8818 259.64V259.48V259.342L87.0639 259.045L105.728 254.949H105.933V255.144C107.139 260.784 108.209 265.44 108.869 268.872C109.199 270.473 109.461 271.755 109.654 272.67C109.734 273.082 109.791 273.402 109.848 273.665C109.893 273.744 109.927 273.829 109.95 273.917Z" fill="#263238"/>
<path d="M248.674 227.666L118.464 256.827L120.884 267.748L251.095 238.586L248.674 227.666Z" fill="#0E91AD"/>
<path d="M117.165 306.464C117.165 306.464 117.165 306.326 117.063 306.098C116.96 305.869 116.915 305.491 116.812 305.079C116.596 304.153 116.289 302.872 115.913 301.258C115.151 297.952 114.081 293.25 112.806 287.736L113.057 287.897L94.3472 292.106C94.3472 292.175 94.6886 291.569 94.5293 291.832V291.912V291.992V292.152L94.5976 292.473L94.7455 293.113C94.8365 293.548 94.9276 293.971 95.03 294.394L95.5763 296.9C95.9405 298.559 96.3046 300.172 96.6461 301.75L98.5921 310.605L98.3418 310.456L111.839 307.539L115.663 306.738L116.687 306.532C116.808 306.519 116.93 306.519 117.051 306.532L116.744 306.624L115.765 306.864L112.01 307.768L98.4328 310.914H98.228V310.708C97.6248 307.985 96.9533 304.988 96.2477 301.865C95.8949 300.286 95.5308 298.673 95.1097 297.014C94.9276 296.191 94.7341 295.355 94.552 294.509C94.461 294.086 94.3586 293.662 94.2675 293.239L94.131 292.598L94.0513 292.278V292.106V291.912C93.892 292.164 94.2675 291.557 94.2334 291.626L112.909 287.473H113.114V287.679L116.05 301.407C116.38 303.009 116.642 304.29 116.835 305.217C116.915 305.617 116.983 305.937 117.029 306.201C117.086 306.281 117.132 306.37 117.165 306.464Z" fill="#263238"/>
<path d="M255.898 260.224L125.688 289.386L128.108 300.306L258.318 271.145L255.898 260.224Z" fill="#0E91AD"/>
<path d="M84.7988 234.643L86.7563 231.543L92.5717 234.792L100.06 223.444L102.951 225.457L93.3001 239.757L84.7988 234.643Z" fill="#0E91AD"/>
<path d="M91.7754 266.103L93.7328 263.003L99.5483 266.252L107.025 254.904L109.927 256.917L100.265 271.206L91.7754 266.103Z" fill="#0E91AD"/>
<path d="M98.9336 298.353L100.891 295.264L106.695 298.513L114.184 287.164L117.074 289.166L107.423 303.466L98.9336 298.353Z" fill="#0E91AD"/>
<path d="M158.534 338.816C158.534 338.953 147.563 341.527 133.975 344.536C120.386 347.545 109.347 349.936 109.324 349.81C109.301 349.684 120.284 347.11 133.872 344.09C147.46 341.07 158.5 338.702 158.534 338.816Z" fill="#263238"/>
<path d="M183.047 332.936C180.077 333.856 177.061 334.619 174.011 335.224C171.008 335.975 167.969 336.574 164.907 337.02C167.874 336.103 170.886 335.339 173.932 334.732C178.928 333.622 183.025 332.81 183.047 332.936Z" fill="#263238"/>
<path d="M264.236 307.253C264.236 307.379 254.369 309.713 242.146 312.447C229.924 315.181 219.977 317.297 219.954 317.171C219.931 317.046 229.81 314.723 242.044 311.978C254.278 309.232 264.213 307.127 264.236 307.253Z" fill="#263238"/>
<path d="M253.675 337.363C253.675 337.363 253.778 337.054 253.891 336.459C254.042 335.579 253.995 334.676 253.755 333.817C253.35 332.456 252.824 331.136 252.184 329.87C251.277 328.19 250.745 326.332 250.625 324.425C250.652 323.251 250.923 322.096 251.421 321.034C251.919 319.972 252.632 319.026 253.516 318.258C254.551 317.395 255.789 316.812 257.112 316.565C258.435 316.319 259.798 316.417 261.073 316.851C262.472 317.279 263.72 318.101 264.669 319.219C265.174 319.822 265.474 320.572 265.522 321.359C265.535 321.782 265.413 322.198 265.173 322.546C264.934 322.894 264.589 323.155 264.191 323.292C263.447 323.534 262.686 323.721 261.915 323.853L259.639 324.322C258.114 324.63 256.566 324.905 254.973 325.111C251.887 325.558 248.754 325.578 245.663 325.168C244.267 324.866 242.808 325.103 241.578 325.832C240.6 326.822 239.772 327.952 239.119 329.184C238.723 329.79 238.173 330.28 237.526 330.602C236.868 330.894 236.125 330.927 235.444 330.694C234.273 330.17 233.159 329.526 232.12 328.772C231.638 328.449 231.09 328.242 230.516 328.165C229.979 328.105 229.438 328.239 228.991 328.543C228.204 329.267 227.552 330.127 227.067 331.083C226.55 331.902 225.843 332.584 225.006 333.07C224.17 333.556 223.23 333.832 222.265 333.874C220.805 333.933 219.379 333.425 218.282 332.455C217.592 331.856 217.051 331.104 216.7 330.259C216.577 329.969 216.489 329.666 216.438 329.355C216.438 329.355 216.54 329.664 216.791 330.225C217.16 331.033 217.709 331.746 218.395 332.307C219.466 333.218 220.841 333.684 222.242 333.611C223.163 333.563 224.058 333.292 224.851 332.819C225.644 332.347 226.311 331.688 226.794 330.9C227.295 329.899 227.974 329 228.797 328.245C229.315 327.883 229.944 327.717 230.573 327.776C231.195 327.87 231.792 328.092 232.325 328.429C233.347 329.155 234.437 329.78 235.58 330.293C236.165 330.491 236.802 330.462 237.367 330.213C237.946 329.924 238.431 329.476 238.767 328.92C239.443 327.656 240.302 326.5 241.316 325.488C241.946 325.036 242.684 324.76 243.455 324.688C244.212 324.607 244.975 324.607 245.732 324.688C248.789 325.086 251.886 325.067 254.938 324.63C256.509 324.425 258.045 324.139 259.57 323.841L261.846 323.383C262.577 323.247 263.299 323.068 264.009 322.846C264.32 322.746 264.591 322.547 264.78 322.279C264.969 322.01 265.066 321.687 265.056 321.359C265.004 320.674 264.742 320.022 264.305 319.494C263.406 318.42 262.222 317.626 260.89 317.206C259.683 316.794 258.392 316.697 257.138 316.926C255.883 317.154 254.707 317.699 253.721 318.51C252.873 319.235 252.185 320.132 251.703 321.14C251.221 322.149 250.955 323.249 250.921 324.367C251.024 326.232 251.52 328.053 252.378 329.71C253.007 330.993 253.514 332.334 253.891 333.714C254.114 334.598 254.133 335.521 253.948 336.414C253.895 336.74 253.803 337.059 253.675 337.363Z" fill="#263238"/>
<path d="M277.199 322.72C277.007 322.798 276.809 322.859 276.607 322.903L274.877 323.315L268.527 324.791C263.178 326.049 255.78 327.811 247.643 329.881C239.506 331.952 232.166 333.954 226.874 335.418L220.592 337.157L218.873 337.615C218.676 337.677 218.474 337.723 218.27 337.752C218.453 337.652 218.648 337.575 218.85 337.523L220.535 336.986C222.003 336.517 224.131 335.842 226.771 335.098C232.063 333.542 239.381 331.494 247.529 329.378C255.678 327.262 263.075 325.591 268.458 324.436C271.144 323.853 273.329 323.395 274.843 323.097L276.584 322.766C276.787 322.732 276.993 322.717 277.199 322.72Z" fill="#263238"/>
<path d="M183.853 71.7003L95.4648 91.4955L99.1647 108.189L187.553 88.3939L183.853 71.7003Z" fill="#0E91AD"/>
<path d="M267.468 342.603L296.022 494.251L322.118 445.78L371.578 474.963L319.079 327.296L267.468 342.603Z" fill="#81C0D1"/>
<g opacity="0.3">
<path d="M277.073 393.602C279.791 394.117 282.593 393.96 285.238 393.145C287.883 392.33 290.291 390.881 292.255 388.923C294.861 386.223 296.591 382.54 299.868 380.732C302.816 379.108 306.446 379.336 309.69 380.24C312.933 381.144 315.983 382.643 319.227 383.489C322.427 384.309 325.758 384.48 329.024 383.993C332.291 383.506 335.429 382.37 338.255 380.652L330.015 357.658L291.777 352.853L273.568 374.875L277.073 393.602Z" fill="black"/>
</g>
<path d="M320.262 439.762C320.103 439.762 315.846 424.044 310.759 404.584C305.672 385.125 301.655 369.292 301.837 369.258C302.019 369.223 306.241 384.953 311.328 404.436C316.415 423.918 320.421 439.717 320.262 439.762Z" fill="#263238"/>
<path d="M271.645 350.485L243.091 502.133L216.996 453.673L167.536 482.845L220.034 335.178L271.645 350.485Z" fill="#81C0D1"/>
<g opacity="0.3">
<path d="M204.329 379.348C204.329 379.348 212.455 386.063 222.14 382.974C231.825 379.886 237.845 379.222 243.091 382.974C248.338 386.727 262.529 398.933 262.529 398.933L265.818 381.441L246.756 355.129L226.863 359.168L212.705 360.552L207.436 370.585L204.329 379.348Z" fill="black"/>
</g>
<path d="M439.064 213.594C439.064 224.473 425.237 233.842 423.211 244.127C421.128 254.72 430.301 268.689 426.284 278.447C422.266 288.205 405.799 291.706 399.961 300.526C394.122 309.346 397.195 325.866 389.718 333.393C382.241 340.921 365.819 337.752 357.022 343.689C348.225 349.627 344.924 366.032 335.057 370.15C325.361 374.188 311.465 364.968 300.916 367.061C290.673 369.098 281.364 382.997 270.541 382.997C259.718 382.997 250.386 369.098 240.155 367.061C229.616 364.968 215.721 374.188 206.013 370.15C196.306 366.112 192.835 349.558 184.06 343.689C175.286 337.821 158.852 340.909 151.352 333.393C143.853 325.877 147.016 309.369 141.11 300.526C135.203 291.683 118.884 288.366 114.798 278.447C110.712 268.529 119.953 254.732 117.871 244.127C115.845 233.831 102.006 224.473 102.006 213.594C102.006 202.714 115.845 193.333 117.871 183.049C119.953 172.455 110.769 158.487 114.798 148.729C118.827 138.971 135.283 135.47 141.11 126.661C146.937 117.852 143.875 101.322 151.352 93.7825C158.829 86.2436 175.252 89.4239 184.06 83.4865C192.869 77.5492 196.146 61.1442 206.013 57.0373C215.88 52.9303 229.605 62.2196 240.155 60.1261C250.397 58.0898 259.718 44.1787 270.541 44.1787C281.364 44.1787 290.684 58.0898 300.916 60.1261C311.454 62.2196 325.35 52.9875 335.057 57.0373C344.924 61.1442 348.247 77.6293 357.022 83.4865C365.796 89.3438 382.23 86.2665 389.718 93.7825C397.206 101.299 394.054 117.807 399.961 126.661C405.867 135.516 422.187 138.81 426.284 148.729C430.381 158.647 421.128 172.444 423.211 183.049C425.237 193.333 439.064 202.68 439.064 213.594Z" fill="#81C0D1"/>
<path d="M231.107 118.63C231.107 118.63 230.982 118.482 230.8 118.161C230.618 117.841 230.333 117.326 230.026 116.766C229.355 115.553 228.433 113.768 227.34 111.549C225.144 107.11 222.299 100.864 219.556 93.8169C216.813 86.7699 214.708 80.2262 213.331 75.5129C212.648 73.122 212.125 71.1886 211.795 69.7929C211.647 69.1752 211.521 68.649 211.43 68.2371C211.371 68.06 211.341 67.8747 211.339 67.688C211.428 67.8548 211.496 68.0314 211.544 68.2142L212.011 69.7357C212.455 71.1429 213.035 73.0419 213.729 75.3414C215.209 80.0661 217.382 86.5525 220.102 93.6453C222.822 100.738 225.622 106.927 227.716 111.412L230.231 116.708L230.903 118.15C230.985 118.303 231.054 118.464 231.107 118.63Z" fill="#263238"/>
<path d="M246.107 112.899C245.908 112.499 245.758 112.077 245.663 111.64C245.424 110.817 245.105 109.616 244.73 108.128C243.979 105.165 243.045 101.024 242.203 96.4252C241.361 91.8263 240.769 87.6278 240.428 84.5848C240.246 83.0633 240.132 81.8277 240.064 80.9697C240.011 80.529 240.011 80.0835 240.064 79.6427C240.194 80.0674 240.282 80.5044 240.325 80.9469L240.872 84.5276C241.327 87.5592 242.01 91.7348 242.818 96.3222C243.626 100.91 244.525 105.051 245.162 108.037C245.469 109.432 245.72 110.622 245.925 111.583C246.029 112.015 246.09 112.455 246.107 112.899Z" fill="#263238"/>
<path d="M272.567 110.256C272.396 110.256 271.975 97.4206 271.622 81.599C271.269 65.7775 271.11 52.9304 271.269 52.919C271.429 52.9075 271.861 65.7432 272.214 81.5876C272.567 97.432 272.726 110.256 272.567 110.256Z" fill="#263238"/>
<path d="M299.197 83.887C299.356 83.887 297.512 90.3506 295.088 98.2213C292.664 106.092 290.536 112.418 290.422 112.373C290.308 112.327 292.106 105.909 294.53 98.0382C296.955 90.1675 299.026 83.8412 299.197 83.887Z" fill="#263238"/>
<path d="M310.055 117.052C310.077 116.862 310.127 116.677 310.203 116.502L310.715 114.992C311.17 113.688 311.853 111.812 312.763 109.501C314.55 104.925 317.099 98.5302 320.013 91.5518C322.926 84.5734 325.635 78.2928 327.626 73.7626C328.605 71.5661 329.413 69.7586 330.028 68.4087L330.699 66.9672C330.87 66.6469 330.961 66.4753 330.983 66.4867C330.942 66.6668 330.885 66.8429 330.813 67.013L330.232 68.5002L328.013 73.9342C326.067 78.5788 323.461 84.8479 320.559 91.792C317.657 98.7361 315.085 105.005 313.15 109.661L310.931 115.084L310.305 116.548C310.243 116.726 310.158 116.895 310.055 117.052Z" fill="#263238"/>
<path d="M324.234 124.51C324.407 124.106 324.625 123.722 324.883 123.366C325.338 122.634 326.021 121.593 326.863 120.323C328.57 117.795 331.029 114.34 333.885 110.657C336.742 106.973 339.484 103.793 341.51 101.505C342.523 100.361 343.365 99.4568 343.957 98.839C344.242 98.4963 344.567 98.1891 344.924 97.9238C344.704 98.3141 344.436 98.6753 344.128 98.9992C343.513 99.7542 342.739 100.681 341.851 101.779C339.905 104.136 337.231 107.396 334.374 111.08C331.518 114.764 329.026 118.161 327.227 120.632L325.099 123.549C324.845 123.899 324.555 124.221 324.234 124.51Z" fill="#263238"/>
<path d="M344.97 141.556C344.856 141.442 353.869 132.839 365.079 122.348C376.289 111.858 385.485 103.449 385.564 103.564C385.644 103.678 376.676 112.293 365.455 122.783C354.234 133.273 345.084 141.682 344.97 141.556Z" fill="#263238"/>
<path d="M381.137 145.114C380.04 145.812 378.9 146.438 377.723 146.99C375.584 148.134 372.682 149.724 369.472 151.566C366.263 153.408 363.304 154.941 361.108 155.97C359.97 156.485 359.127 156.886 358.49 157.114C358.179 157.277 357.845 157.393 357.5 157.458C358.597 156.76 359.738 156.133 360.914 155.582C363.054 154.438 365.956 152.847 369.165 151.006C372.374 149.164 375.333 147.573 377.53 146.601C378.668 146.086 379.51 145.686 380.147 145.457C380.457 145.289 380.791 145.173 381.137 145.114Z" fill="#263238"/>
<path d="M414.585 159.059C414.642 159.219 403.921 163.155 390.686 167.857C377.45 172.558 366.604 176.231 366.559 176.082C366.513 175.933 377.211 171.986 390.458 167.285C403.705 162.583 414.528 158.91 414.585 159.059Z" fill="#263238"/>
<path d="M425.237 220.229C425.237 220.389 413.572 219.417 399.221 218.044C384.87 216.671 373.239 215.424 373.262 215.252C373.285 215.081 384.915 216.076 399.278 217.449C413.64 218.822 425.248 220.069 425.237 220.229Z" fill="#263238"/>
<path d="M416.668 275.095C416.599 275.244 405.708 270.21 392.348 263.872C378.987 257.535 368.209 252.261 368.278 252.112C368.346 251.963 379.237 256.986 392.598 263.335C405.959 269.684 416.736 274.946 416.668 275.095Z" fill="#263238"/>
<path d="M380.841 327.296C380.716 327.399 372.874 318.235 363.303 306.841C353.732 295.447 346.085 286.1 346.233 285.997C346.381 285.894 354.199 295.046 363.77 306.452C373.341 317.858 380.966 327.181 380.841 327.296Z" fill="#263238"/>
<path d="M350.933 334.24C350.579 333.844 350.263 333.415 349.989 332.959C349.408 332.112 348.589 330.865 347.61 329.321C345.63 326.221 342.978 321.885 340.179 317.023C337.379 312.161 334.989 307.676 333.35 304.439C332.52 302.803 331.848 301.476 331.416 300.549C331.158 300.078 330.945 299.584 330.778 299.073C331.1 299.5 331.382 299.956 331.62 300.435C332.167 301.442 332.872 302.723 333.726 304.244C335.49 307.459 337.948 311.898 340.736 316.76C343.525 321.622 346.119 325.98 348.008 329.126C348.896 330.636 349.647 331.883 350.228 332.867C350.513 333.297 350.749 333.758 350.933 334.24Z" fill="#263238"/>
<path d="M332.36 360.438C332.36 360.438 332.247 360.289 332.064 359.969L331.325 358.573C330.676 357.349 329.8 355.564 328.753 353.345C326.659 348.895 323.961 342.648 321.401 335.578C318.84 328.509 316.906 321.988 315.711 317.274C315.085 314.895 314.573 312.95 314.322 311.612C314.197 310.994 314.095 310.468 314.004 310.056C313.958 309.876 313.931 309.692 313.924 309.507C314.017 309.67 314.082 309.848 314.117 310.033L314.55 311.554C314.948 312.973 315.472 314.861 316.109 317.16C317.452 321.885 319.443 328.383 322.004 335.464C324.565 342.545 327.182 348.757 329.185 353.253L331.575 358.55C331.825 359.122 332.042 359.602 332.224 359.991C332.288 360.134 332.334 360.284 332.36 360.438Z" fill="#263238"/>
<path d="M294.736 342.031C294.49 340.715 294.326 339.386 294.247 338.049C293.985 335.59 293.564 332.192 292.949 328.474C292.335 324.756 291.618 321.416 291.071 319.002C290.714 317.709 290.44 316.395 290.252 315.067C290.421 315.385 290.551 315.723 290.639 316.073C290.866 316.737 291.151 317.698 291.481 318.899C292.13 321.29 292.904 324.619 293.53 328.383C294.074 331.572 294.454 334.787 294.668 338.015C294.747 339.251 294.793 340.303 294.793 340.955C294.822 341.315 294.803 341.676 294.736 342.031Z" fill="#263238"/>
<path d="M270.12 374.966C270.094 374.773 270.094 374.576 270.12 374.383C270.12 373.925 270.12 373.365 270.12 372.701C270.12 371.237 270.12 369.12 270.12 366.512C270.211 361.284 270.45 354.077 270.86 346.126C271.269 338.175 271.781 330.968 272.202 325.763C272.407 323.155 272.601 321.05 272.749 319.597C272.828 318.933 272.885 318.373 272.931 317.926C272.944 317.728 272.982 317.532 273.045 317.343C273.071 317.54 273.071 317.74 273.045 317.938C273.045 318.384 273.045 318.945 272.965 319.62C272.874 321.164 272.76 323.246 272.612 325.786C272.305 331.082 271.895 338.244 271.474 346.149C271.053 354.054 270.757 361.307 270.564 366.524C270.473 369.063 270.393 371.1 270.336 372.701C270.336 373.376 270.268 373.925 270.245 374.383C270.232 374.582 270.19 374.779 270.12 374.966Z" fill="#263238"/>
<path d="M250.113 317.343C250.105 318.329 249.991 319.311 249.772 320.272C249.476 322.056 248.998 324.516 248.372 327.204C247.746 329.893 247.086 332.318 246.562 334.068C246.335 335.025 246.003 335.954 245.572 336.837C245.674 335.859 245.868 334.894 246.153 333.954L247.791 327.09C248.383 324.516 248.93 322.182 249.362 320.226C249.52 319.243 249.771 318.278 250.113 317.343Z" fill="#263238"/>
<path d="M213.934 299.92C212.443 302.398 210.781 304.768 208.961 307.013C207.291 309.375 205.47 311.626 203.509 313.751C204.997 311.271 206.659 308.9 208.483 306.658C210.145 304.29 211.966 302.039 213.934 299.92Z" fill="#263238"/>
<path d="M194.963 287.061C195.077 287.164 188.021 295.504 179.189 305.674C170.358 315.844 163.086 323.978 162.961 323.898C162.835 323.818 169.903 315.455 178.734 305.285C187.565 295.115 194.838 286.947 194.963 287.061Z" fill="#263238"/>
<path d="M185.46 272.864C182.669 275.57 179.74 278.129 176.685 280.529C171.735 284.625 167.638 287.851 167.581 287.725C170.374 285.025 173.303 282.47 176.355 280.072C179.268 277.517 182.307 275.112 185.46 272.864Z" fill="#263238"/>
<path d="M174.352 251.46C174.421 251.609 164.588 256.528 152.377 262.431C140.165 268.334 130.23 273.013 130.15 272.864C130.071 272.716 139.915 267.808 152.126 261.893C164.338 255.979 174.284 251.311 174.352 251.46Z" fill="#263238"/>
<path d="M169.892 240.787C169.565 240.931 169.22 241.031 168.867 241.084C168.196 241.244 167.228 241.45 166.034 241.668C163.632 242.125 160.286 242.628 156.576 243.006C152.866 243.384 149.486 243.544 147.039 243.578C145.822 243.578 144.832 243.578 144.149 243.578C143.793 243.601 143.435 243.566 143.09 243.475C144.396 243.295 145.711 243.192 147.028 243.166C149.463 243.017 152.821 242.789 156.519 242.411C160.218 242.034 163.553 241.599 165.965 241.267C167.261 241.014 168.573 240.853 169.892 240.787Z" fill="#263238"/>
<path d="M166.284 216.133C165.621 216.189 164.955 216.189 164.292 216.133L158.875 215.859C154.323 215.63 147.995 215.424 141.019 215.458C134.042 215.493 127.715 215.779 123.151 216.053L117.746 216.385C117.085 216.461 116.419 216.484 115.754 216.454C116.4 216.298 117.059 216.198 117.723 216.156C118.997 216.007 120.841 215.824 123.117 215.63C127.669 215.252 134.02 214.909 141.007 214.863C147.995 214.818 154.334 215.104 158.909 215.435C161.185 215.607 163.04 215.767 164.315 215.905C164.976 215.934 165.633 216.011 166.284 216.133Z" fill="#263238"/>
<path d="M168.514 194.489C168.514 194.649 161.105 192.716 152.058 190.176C143.01 187.636 135.715 185.463 135.761 185.303C135.806 185.142 143.17 187.064 152.217 189.604C161.265 192.144 168.56 194.329 168.514 194.489Z" fill="#263238"/>
<path d="M173.283 176.368C173.1 176.357 172.919 176.319 172.748 176.254L171.234 175.796C169.937 175.384 168.059 174.743 165.771 173.908C159.794 171.702 153.937 169.182 148.223 166.358C142.511 163.531 136.953 160.399 131.573 156.977C129.513 155.662 127.863 154.563 126.748 153.774L125.473 152.847C125.188 152.63 125.04 152.516 125.052 152.493C125.224 152.562 125.388 152.651 125.541 152.756L126.884 153.579C128.022 154.312 129.707 155.353 131.789 156.623C135.966 159.162 141.815 162.514 148.484 165.775C155.153 169.035 161.367 171.689 165.919 173.474C168.196 174.355 170.028 175.052 171.314 175.533L172.782 176.093C172.956 176.171 173.124 176.263 173.283 176.368Z" fill="#263238"/>
<path d="M183.992 158.064C183.901 158.19 178.142 154.277 171.132 149.312C164.121 144.347 158.511 140.218 158.613 140.08C158.716 139.943 164.463 143.867 171.485 148.832C178.506 153.797 184.083 157.961 183.992 158.064Z" fill="#263238"/>
<path d="M161.356 102.488C161.356 102.488 161.515 102.58 161.789 102.797L162.927 103.804L167.126 107.533L180.908 119.9L194.747 132.198L198.935 135.939L200.073 136.98C200.21 137.094 200.333 137.224 200.437 137.369C200.437 137.369 200.278 137.289 199.993 137.072L198.855 136.122C197.819 135.287 196.351 134.051 194.542 132.518C190.923 129.452 185.984 125.162 180.578 120.346C175.172 115.53 170.335 111.091 166.921 107.842C165.191 106.218 163.803 104.902 162.847 103.964L161.766 102.889C161.493 102.637 161.333 102.5 161.356 102.488Z" fill="#263238"/>
<path d="M196.852 103.529C196.852 103.529 197.159 103.781 197.626 104.319C198.093 104.856 198.764 105.646 199.549 106.607C201.131 108.597 203.237 111.412 205.422 114.615C207.607 117.818 209.439 120.815 210.702 123.023C211.339 124.167 211.84 125.025 212.159 125.654C212.356 125.967 212.509 126.306 212.614 126.661C211.78 125.57 211.02 124.423 210.338 123.229C208.984 121.078 207.095 118.138 204.921 114.935C202.747 111.732 200.699 108.906 199.231 106.858C198.373 105.797 197.578 104.686 196.852 103.529Z" fill="#263238"/>
<g opacity="0.2">
<path d="M151.364 93.7941L200.881 137.369L213.183 127.473L184.458 83.2235C184.458 83.2235 182.251 84.848 176.492 86.4954C170.995 88.0855 154.664 88.5088 151.364 93.7941Z" fill="black"/>
</g>
<g opacity="0.2">
<path d="M206.48 56.9343L230.652 117.761L246.107 112.899L240.952 60.1375C240.952 60.1375 238.3 60.7667 232.393 60.0116C226.669 59.2795 212.796 53.8226 206.48 56.9343Z" fill="black"/>
</g>
<g opacity="0.3">
<path d="M270.939 44.2017L272.567 110.256L287.043 110.954L301.701 60.252C298.656 59.6441 295.759 58.439 293.177 56.7056C288.17 53.4795 277.95 43.664 270.939 44.2017Z" fill="black"/>
</g>
<g opacity="0.2">
<path d="M334.079 56.6826L310.055 117.578L323.097 123.858L356.157 82.8345C353.672 80.7257 351.553 78.2167 349.887 75.4099C346.768 70.342 341.397 58.7075 334.079 56.6826Z" fill="black"/>
</g>
<g opacity="0.2">
<path d="M390.503 94.6749L345.755 141.579L355.724 155.09L399.448 125.757C398.008 123.092 397.034 120.197 396.569 117.2C395.522 111.48 395.374 101.093 390.503 94.6749Z" fill="black"/>
</g>
<g opacity="0.2">
<path d="M425.828 147.596L365.568 172.524L370.564 188.002L422.995 182.282C422.995 182.282 422.665 180.658 423.359 174.721C424.019 168.966 430.073 156.108 425.828 147.596Z" fill="black"/>
</g>
<g opacity="0.2">
<path d="M439.178 213.594L373.478 215.882L372.932 230.445L423.006 245.18C423.338 243.083 424.007 241.055 424.986 239.174C428.719 232.172 439.178 222.288 439.178 213.594Z" fill="black"/>
</g>
<g opacity="0.2">
<path d="M427.058 276.033L366.57 252.341L360.459 265.6L401.622 298.353C403.786 296.27 406.181 294.443 408.758 292.907C413.765 289.693 425.67 284.487 427.058 276.033Z" fill="black"/>
</g>
<g opacity="0.2">
<path d="M338.096 275.095L323.119 287.679C324.257 288.823 344.207 322.96 356.51 344.033C356.669 343.894 356.837 343.764 357.01 343.644C365.102 338.198 379.51 340.383 387.635 334.995L338.096 275.095Z" fill="black"/>
<path d="M310.578 298.982L288.227 306.647L298.81 367.645C299.498 367.401 300.201 367.206 300.916 367.061C311.454 364.968 325.35 374.189 335.058 370.15C336.387 369.577 337.622 368.806 338.722 367.862L310.578 298.982Z" fill="black"/>
<path d="M269.767 382.974L273.329 303.283L253.982 298.353L239.608 366.993L240.132 367.084C250.147 369.04 259.263 382.288 269.767 382.974Z" fill="black"/>
<path d="M221.172 289.75C221.172 289.75 195.634 324.138 182.273 342.648C182.892 342.961 183.492 343.309 184.072 343.689C192.846 349.592 196.158 366.032 206.025 370.15C206.48 370.333 206.946 370.482 207.413 370.619L243.091 302.734L221.172 289.75Z" fill="black"/>
<path d="M194.963 262.065L140.496 299.691C140.7 299.966 140.928 300.229 141.11 300.515C147.028 309.392 143.876 325.855 151.353 333.382C152.043 334.064 152.806 334.666 153.629 335.178C172.873 313.373 207.425 274.226 208.676 272.864L194.963 262.065Z" fill="black"/>
<path d="M182.478 235.193L118.076 245.649C119.112 256.036 110.963 269.146 114.798 278.436C115.029 279.003 115.307 279.551 115.629 280.072C138.163 268.792 185.244 245.328 187.201 245.203L182.478 235.193Z" fill="black"/>
<path d="M178.962 199.134L118.087 181.482C118.03 182.008 117.962 182.534 117.871 183.049C115.845 193.345 102.006 202.714 102.006 213.594C102.009 214.318 102.07 215.041 102.188 215.756H176.492L178.962 199.134Z" fill="black"/>
<path d="M115.048 148.26C137.809 160.512 182.273 185.303 182.273 185.303L193.221 164.402L141.804 125.506C141.576 125.906 141.36 126.318 141.11 126.65C135.317 135.333 119.464 138.719 115.048 148.26Z" fill="black"/>
</g>
<path d="M439.064 213.594L438.996 212.862C438.969 212.144 438.87 211.431 438.7 210.734C438.038 207.99 436.88 205.393 435.286 203.069C433.328 199.911 430.369 196.377 427.319 191.903C425.597 189.524 424.275 186.877 423.404 184.067C422.664 180.787 422.664 177.383 423.404 174.103C424.042 170.614 425.077 167.021 425.976 163.212C426.876 159.402 427.718 155.284 426.876 151.074C426.399 148.943 425.428 146.956 424.042 145.274C422.555 143.562 420.857 142.047 418.989 140.767C415.21 138.067 410.863 135.916 406.709 133.102C404.56 131.709 402.608 130.031 400.905 128.114C399.233 126.033 398.019 123.62 397.343 121.033C395.886 115.827 395.556 110.268 394.452 104.708C393.97 101.877 393.02 99.1469 391.641 96.6312C390.144 94.0984 387.873 92.12 385.166 90.9912C382.371 89.8625 379.446 89.0937 376.46 88.7032C373.444 88.1999 370.348 87.8452 367.253 87.2961C364.081 86.8364 361.006 85.8587 358.148 84.4018C355.315 82.6896 352.915 80.34 351.138 77.5378C349.249 74.8151 347.621 71.8864 345.892 68.9921C344.235 66.0307 342.249 63.2675 339.974 60.7553C337.628 58.214 334.429 56.6367 330.994 56.328C327.485 56.1975 323.977 56.6104 320.593 57.5521C317.178 58.3872 313.673 59.4054 310.088 60.0804C306.465 60.9388 302.684 60.868 299.095 59.8744C295.596 58.4946 292.323 56.5933 289.387 54.2345C286.349 51.9465 283.39 49.6585 280.146 47.6222C276.903 45.5859 273.227 44.1101 269.403 44.5448H268.686C268.447 44.5448 268.219 44.6478 267.992 44.6936C267.525 44.808 267.047 44.888 266.592 45.0253C265.675 45.3184 264.778 45.6699 263.906 46.0778C262.146 46.9193 260.456 47.9026 258.853 49.0179C255.621 51.3059 252.56 53.7998 249.237 56.0649C247.582 57.2292 245.831 58.2473 244.001 59.108C242.127 59.9508 240.12 60.458 238.072 60.6066C233.966 60.6331 229.878 60.051 225.941 58.8792C221.976 57.7413 217.932 56.9039 213.843 56.3738C211.801 56.1718 209.74 56.311 207.743 56.7856C205.754 57.3415 203.92 58.3516 202.383 59.7372C199.242 62.4942 197.057 66.2008 194.872 69.8387C192.809 73.6481 190.397 77.2558 187.668 80.6152C186.223 82.2793 184.487 83.6634 182.547 84.6992C180.565 85.6408 178.485 86.3545 176.344 86.8271C172.065 87.7766 167.695 88.177 163.382 88.9549C159.068 89.7328 154.664 90.9569 151.546 94C150.041 95.6116 148.879 97.5152 148.132 99.5941C147.378 101.691 146.826 103.855 146.482 106.058C145.685 110.474 145.344 115.004 144.205 119.454C143.716 121.712 142.9 123.886 141.781 125.906C140.603 127.907 139.059 129.666 137.229 131.088C133.633 133.994 129.547 136.145 125.632 138.547C123.671 139.734 121.789 141.048 119.999 142.483C118.218 143.913 116.72 145.667 115.583 147.654C114.499 149.676 113.951 151.946 113.99 154.243C114.03 156.552 114.301 158.852 114.798 161.107C115.754 165.683 117.199 170.179 117.973 174.835C118.432 177.224 118.524 179.67 118.246 182.088C117.923 184.499 117.151 186.828 115.97 188.952C113.592 193.128 110.496 196.8 107.754 200.689C106.345 202.606 105.118 204.652 104.089 206.798C102.961 208.892 102.371 211.236 102.371 213.617C102.371 215.998 102.961 218.341 104.089 220.435C105.116 222.583 106.343 224.628 107.754 226.544C110.496 230.433 113.592 234.106 115.97 238.281C117.13 240.366 117.901 242.645 118.246 245.008C118.536 247.393 118.459 249.808 118.019 252.169C117.256 256.871 115.811 261.379 114.844 265.955C114.351 268.21 114.08 270.509 114.036 272.819C113.991 275.119 114.536 277.392 115.618 279.419C116.746 281.412 118.24 283.171 120.022 284.602C121.812 286.036 123.694 287.351 125.655 288.537C129.57 290.94 133.622 293.113 137.263 295.996C139.09 297.422 140.634 299.18 141.816 301.178C142.942 303.19 143.759 305.362 144.24 307.619C145.309 312.081 145.674 316.611 146.516 321.027C146.869 323.228 147.425 325.392 148.177 327.49C148.907 329.568 150.049 331.475 151.535 333.096C154.687 336.173 159.125 337.397 163.382 338.175C167.638 338.953 172.065 339.319 176.344 340.303C178.488 340.777 180.572 341.491 182.558 342.431C184.496 343.471 186.231 344.854 187.679 346.515C190.381 349.88 192.77 353.487 194.815 357.292C197 360.929 199.185 364.636 202.326 367.393C203.86 368.776 205.69 369.786 207.675 370.345C209.689 370.856 211.773 371.026 213.843 370.848C217.925 370.296 221.961 369.444 225.918 368.297C229.857 367.116 233.95 366.53 238.061 366.558C240.109 366.713 242.115 367.224 243.99 368.068C245.818 368.931 247.569 369.949 249.225 371.111C252.548 373.399 255.598 375.927 258.842 378.147C260.438 379.27 262.124 380.257 263.883 381.098C264.756 381.504 265.653 381.856 266.569 382.151C267.036 382.277 267.502 382.368 267.969 382.482L268.675 382.631H269.38C273.215 383.066 276.903 381.487 280.135 379.554C283.367 377.62 286.337 375.184 289.364 372.941C292.305 370.583 295.581 368.682 299.083 367.302C302.674 366.314 306.453 366.243 310.077 367.096C313.662 367.782 317.122 368.8 320.581 369.635C323.971 370.566 327.482 370.979 330.994 370.859C334.425 370.539 337.618 368.958 339.962 366.421C342.231 363.899 344.216 361.132 345.88 358.172C347.599 355.29 349.226 352.361 351.115 349.627C352.903 346.829 355.305 344.481 358.137 342.763C360.993 341.304 364.069 340.33 367.241 339.88C370.348 339.319 373.432 338.965 376.448 338.473C379.437 338.064 382.363 337.276 385.154 336.128C387.859 334.995 390.129 333.017 391.63 330.488C393 327.969 393.946 325.24 394.43 322.411C395.568 316.851 395.864 311.28 397.332 306.075C398.001 303.489 399.216 301.077 400.894 299.005C402.591 297.082 404.544 295.404 406.698 294.017C410.852 291.203 415.199 289.052 418.966 286.352C420.843 285.074 422.546 283.555 424.03 281.833C425.415 280.156 426.382 278.172 426.853 276.045C427.25 273.99 427.307 271.883 427.023 269.81C426.788 267.822 426.431 265.85 425.954 263.907C425.043 260.097 424.019 256.505 423.382 253.016C422.641 249.736 422.641 246.331 423.382 243.052C424.257 240.244 425.579 237.597 427.297 235.215C430.381 230.742 433.351 227.207 435.263 224.05C436.859 221.727 438.017 219.129 438.677 216.385C438.848 215.688 438.947 214.975 438.973 214.257L439.041 213.537C439.041 213.537 439.041 213.777 439.041 214.257C439.019 214.978 438.928 215.694 438.768 216.397C438.12 219.162 436.962 221.782 435.354 224.119C433.408 227.299 430.46 230.845 427.388 235.318C425.68 237.682 424.377 240.315 423.53 243.109C422.789 246.354 422.789 249.725 423.53 252.97C424.167 256.402 425.203 260.029 426.124 263.838C426.62 265.797 427 267.783 427.262 269.787C427.546 271.887 427.488 274.02 427.092 276.102C426.617 278.278 425.634 280.309 424.224 282.028C422.725 283.769 421.007 285.307 419.114 286.604C415.313 289.326 410.977 291.489 406.846 294.291C404.736 295.669 402.822 297.328 401.155 299.222C399.512 301.263 398.324 303.635 397.673 306.178C396.228 311.326 395.909 316.885 394.794 322.48C394.313 325.354 393.355 328.127 391.96 330.682C390.423 333.286 388.092 335.324 385.314 336.494C382.493 337.658 379.537 338.458 376.517 338.873C373.489 339.376 370.394 339.731 367.31 340.292C364.178 340.741 361.141 341.703 358.319 343.14C355.566 344.82 353.231 347.109 351.491 349.833C349.624 352.544 347.997 355.461 346.267 358.367C344.593 361.357 342.593 364.15 340.304 366.695C337.884 369.318 334.584 370.948 331.04 371.271C327.478 371.412 323.916 370.999 320.479 370.047C317.008 369.212 313.548 368.205 309.997 367.53C306.452 366.696 302.756 366.763 299.243 367.725C295.794 369.092 292.568 370.97 289.672 373.296C286.656 375.527 283.685 377.929 280.408 379.943C279.554 380.4 278.746 380.938 277.859 381.316C277.415 381.521 276.982 381.739 276.538 381.922L275.161 382.414C273.294 383.058 271.311 383.292 269.346 383.1L268.606 383.043C268.367 383.043 268.128 382.94 267.878 382.894C267.4 382.78 266.911 382.688 266.444 382.551C265.498 382.257 264.574 381.898 263.678 381.476C261.893 380.624 260.18 379.625 258.557 378.49C255.291 376.202 252.23 373.708 248.941 371.454C247.307 370.315 245.582 369.313 243.785 368.457C241.967 367.644 240.023 367.152 238.038 367.004C233.981 366.986 229.943 367.568 226.054 368.732C222.056 369.914 217.974 370.79 213.843 371.351C211.733 371.559 209.603 371.415 207.538 370.928C205.47 370.349 203.563 369.3 201.962 367.862C198.73 365.014 196.522 361.273 194.337 357.623C192.312 353.849 189.942 350.272 187.258 346.938C185.86 345.327 184.178 343.989 182.296 342.992C180.357 342.065 178.318 341.367 176.219 340.909C171.985 339.971 167.627 339.571 163.279 338.782C161.089 338.415 158.937 337.849 156.849 337.089C154.732 336.308 152.796 335.101 151.159 333.542C149.606 331.874 148.416 329.899 147.665 327.742C146.897 325.611 146.329 323.413 145.969 321.175C145.173 316.725 144.831 312.195 143.693 307.802C143.221 305.602 142.423 303.484 141.326 301.522C140.174 299.582 138.668 297.878 136.888 296.499C133.36 293.651 129.286 291.5 125.359 289.086C123.378 287.885 121.478 286.555 119.669 285.105C117.828 283.622 116.283 281.801 115.117 279.74C113.993 277.631 113.429 275.267 113.478 272.876C113.505 270.508 113.78 268.15 114.297 265.84C115.265 261.264 116.71 256.688 117.461 252.112C117.891 249.807 117.964 247.45 117.677 245.122C117.333 242.81 116.561 240.583 115.401 238.556C113.125 234.437 109.984 230.788 107.219 226.864C105.778 224.909 104.517 222.826 103.452 220.641C102.294 218.466 101.688 216.037 101.688 213.571C101.688 211.104 102.294 208.676 103.452 206.501C104.502 204.322 105.752 202.246 107.185 200.3C109.95 196.377 113.034 192.727 115.356 188.62C116.514 186.589 117.286 184.358 117.632 182.042C117.897 179.714 117.821 177.358 117.404 175.052C116.642 170.476 115.196 165.9 114.229 161.324C113.721 159.017 113.45 156.663 113.421 154.3C113.376 151.908 113.944 149.544 115.071 147.436C116.245 145.383 117.789 143.568 119.623 142.082C121.429 140.629 123.33 139.299 125.314 138.101C129.24 135.687 133.28 133.525 136.842 130.688C138.62 129.309 140.122 127.605 141.269 125.666C142.361 123.698 143.155 121.577 143.625 119.374C144.683 114.981 145.048 110.462 145.901 106.012C146.257 103.775 146.821 101.576 147.585 99.4454C148.272 97.2641 149.466 95.279 151.07 93.6553C152.673 92.0316 154.639 90.8163 156.804 90.1104C158.891 89.3501 161.044 88.7834 163.234 88.4172C167.581 87.6279 171.94 87.2732 176.173 86.3008C178.268 85.8298 180.306 85.1317 182.251 84.2188C184.127 83.2129 185.804 81.8716 187.201 80.2605C189.885 76.9273 192.255 73.3502 194.28 69.5756C196.465 65.9262 198.673 62.1853 201.916 59.3482C203.525 57.8894 205.45 56.8278 207.538 56.248C209.603 55.7654 211.732 55.6224 213.843 55.8247C217.948 56.3764 222.007 57.2329 225.986 58.3872C229.873 59.5603 233.912 60.1463 237.97 60.1261C239.936 59.9685 241.861 59.4733 243.66 58.6618C245.463 57.8176 247.188 56.8145 248.815 55.6645C252.116 53.3765 255.177 50.8712 258.443 48.6404C260.063 47.5008 261.776 46.502 263.565 45.6545C264.459 45.2353 265.379 44.8723 266.319 44.5677C266.797 44.4304 267.286 44.3504 267.764 44.236L268.481 44.0758H269.221C271.186 43.8892 273.168 44.1232 275.036 44.7622L276.413 45.2541C276.857 45.4372 277.29 45.6545 277.733 45.8604C278.633 46.2494 279.441 46.7756 280.283 47.2332C283.572 49.2467 286.531 51.6491 289.558 53.8799C292.451 56.2044 295.673 58.0822 299.117 59.4512C302.63 60.4187 306.327 60.4856 309.872 59.6456C313.423 58.9821 316.883 57.9754 320.354 57.1403C323.791 56.1901 327.352 55.7735 330.915 55.9048C334.458 56.2319 337.756 57.8613 340.179 60.4808C342.47 63.0304 344.474 65.8273 346.153 68.8205C347.883 71.7148 349.499 74.6435 351.366 77.3433C353.102 80.0732 355.438 82.3665 358.194 84.0472C361.014 85.4891 364.052 86.4516 367.185 86.8957C370.269 87.4563 373.364 87.8109 376.391 88.3143C379.411 88.7352 382.366 89.5346 385.189 90.6938C387.967 91.8627 390.3 93.8953 391.846 96.4939C393.236 99.0514 394.194 101.823 394.68 104.696C395.818 110.291 396.114 115.85 397.548 120.998C398.207 123.538 399.393 125.909 401.03 127.954C402.694 129.855 404.608 131.517 406.721 132.896C410.852 135.699 415.199 137.861 418.989 140.584C420.882 141.88 422.599 143.419 424.099 145.16C425.51 146.875 426.496 148.902 426.978 151.074C427.375 153.16 427.432 155.296 427.149 157.4C426.888 159.401 426.508 161.383 426.011 163.338C425.1 167.159 424.053 170.739 423.416 174.217C422.675 177.462 422.675 180.834 423.416 184.079C424.263 186.873 425.567 189.506 427.274 191.869C430.335 196.354 433.283 199.877 435.24 203.069C436.845 205.407 438.003 208.026 438.654 210.791C438.814 211.493 438.906 212.21 438.928 212.93C439.064 213.342 439.064 213.594 439.064 213.594Z" fill="#263238"/>
<path d="M238.88 370.848C239.04 370.848 234.84 388.008 229.503 409.081C224.165 430.153 219.704 447.21 219.545 447.176C219.386 447.141 223.585 430.016 228.922 408.932C234.26 387.848 238.767 370.757 238.88 370.848Z" fill="#263238"/>
<path d="M270.541 317.446C327.599 317.446 373.854 270.95 373.854 213.594C373.854 156.238 327.599 109.741 270.541 109.741C213.483 109.741 167.229 156.238 167.229 213.594C167.229 270.95 213.483 317.446 270.541 317.446Z" fill="white"/>
<path d="M206.923 177.604C205.501 179.034 197.671 193.356 196.954 205.174C196.237 216.991 197.933 283.321 197.933 283.321L198.24 287.725C216.836 309.587 284.436 342.122 345.322 287.611L348.736 246.804L338.687 160.421L303.749 151.829L295.567 138.502L241.031 151.337L236.16 162.892L206.923 177.604Z" fill="#455A64"/>
<path d="M291.823 103.77C294.224 94.7893 296.58 85.7517 297.411 76.4967C298.241 67.2418 297.479 57.678 293.814 49.1437C293.257 47.851 288.648 39.2138 287.259 39.4312C286.269 39.5799 289.251 47.7023 288.795 48.5832C284.414 57.1288 283.617 67.1617 284.881 76.6912C286.184 85.9455 288.512 95.0242 291.823 103.758" fill="#263238"/>
<path d="M290.912 68.3057C290.48 45.0024 276.618 25.8404 253.459 26.9272L251.319 27.156C240.961 28.2538 231.393 33.2307 224.518 41.097C217.644 48.9633 213.967 59.1425 214.219 69.6099C214.719 89.8015 215.516 112.109 216.779 122.84C219.385 145.045 241.817 146.166 241.817 146.166L242.852 160.775L252.355 171.151L296.409 143.695L290.912 68.3057Z" fill="#FFBF9D"/>
<path d="M241.874 146.338C241.874 146.338 255.906 145.686 269.779 134.726C269.779 134.726 265.135 154.872 242.852 155.204L241.874 146.338Z" fill="#FF9A6C"/>
<path d="M226.953 87.7193C227.032 88.5544 227.434 89.3251 228.072 89.8646C228.711 90.404 229.536 90.669 230.368 90.6022C230.773 90.592 231.172 90.5005 231.541 90.3331C231.91 90.1656 232.243 89.9256 232.518 89.6271C232.794 89.3287 233.008 88.9778 233.146 88.5952C233.285 88.2125 233.346 87.8058 233.327 87.399C233.246 86.5651 232.843 85.7963 232.205 85.2573C231.566 84.7184 230.743 84.4523 229.912 84.5161C229.507 84.5248 229.107 84.6152 228.737 84.7822C228.367 84.9491 228.034 85.1891 227.758 85.4879C227.482 85.7867 227.269 86.1382 227.13 86.5215C226.992 86.9048 226.932 87.3122 226.953 87.7193Z" fill="#263238"/>
<path d="M219.92 78.3385C220.353 78.7046 222.56 76.6797 225.963 76.3251C229.366 75.9705 232.029 77.4691 232.359 76.9543C232.518 76.7598 232.04 76.0505 230.868 75.3641C229.291 74.4997 227.487 74.1442 225.701 74.346C223.933 74.5291 222.268 75.2699 220.944 76.4624C219.977 77.389 219.704 78.1669 219.92 78.3385Z" fill="#263238"/>
<path d="M256.987 85.1568C257.065 85.9919 257.467 86.7626 258.106 87.3021C258.744 87.8415 259.569 88.1065 260.401 88.0397C260.806 88.0295 261.205 87.938 261.574 87.7706C261.943 87.6031 262.276 87.3631 262.551 87.0646C262.827 86.7662 263.041 86.4153 263.179 86.0327C263.318 85.65 263.38 85.2433 263.36 84.8365C263.282 84.0005 262.88 83.2288 262.241 82.6875C261.603 82.1462 260.778 81.8786 259.945 81.9422C259.54 81.9539 259.141 82.0468 258.771 82.2155C258.402 82.3842 258.07 82.6253 257.794 82.9247C257.519 83.224 257.305 83.5757 257.167 83.9589C257.028 84.3422 256.967 84.7495 256.987 85.1568Z" fill="#263238"/>
<path d="M253.368 76.1878C253.8 76.5653 256.019 74.529 259.411 74.1744C262.802 73.8197 265.488 75.3184 265.807 74.815C265.966 74.6091 265.499 73.8998 264.327 73.2249C262.747 72.3559 260.938 72.0003 259.149 72.2067C257.379 72.3821 255.711 73.1239 254.392 74.3231C253.436 75.2383 253.163 76.0277 253.368 76.1878Z" fill="#263238"/>
<path d="M243.922 103.747C243.922 103.552 241.771 103.404 238.3 103.323C237.424 103.323 236.581 103.243 236.377 102.66C236.205 101.768 236.312 100.845 236.684 100.017L238.55 93.1533C241.122 83.3149 242.886 75.2612 242.499 75.1582C242.112 75.0553 239.688 82.9489 237.116 92.7987L235.364 99.7199C234.935 100.818 234.903 102.032 235.273 103.152C235.428 103.45 235.649 103.708 235.92 103.906C236.19 104.105 236.502 104.238 236.832 104.296C237.327 104.357 237.828 104.357 238.323 104.296C241.794 104.147 243.933 103.941 243.922 103.747Z" fill="#263238"/>
<path d="M254.176 105.051C253.618 105.051 254.005 108.78 251.126 111.755C248.246 114.729 244.297 114.729 244.297 115.256C244.297 115.484 245.242 115.885 246.915 115.747C249.07 115.544 251.084 114.584 252.605 113.036C254.057 111.538 254.873 109.533 254.881 107.442C254.938 105.875 254.426 105.005 254.176 105.051Z" fill="#263238"/>
<path d="M252.105 62.2997C252.537 63.192 255.883 62.3912 259.923 62.4598C263.963 62.5285 267.309 63.2721 267.741 62.3798C267.935 61.9565 267.286 61.1442 265.886 60.3778C264.029 59.4727 261.992 59.0026 259.929 59.0026C257.865 59.0026 255.828 59.4727 253.971 60.3778C252.537 61.0642 251.911 61.8764 252.105 62.2997Z" fill="#263238"/>
<path d="M220.137 66.83C220.808 67.5393 223.073 66.4868 225.884 66.1436C228.695 65.8004 231.142 66.1436 231.574 65.2513C231.779 64.828 231.324 64.1073 230.209 63.4666C228.714 62.7341 227.038 62.4637 225.391 62.6898C223.743 62.9158 222.2 63.6281 220.956 64.7365C220.068 65.6402 219.829 66.4753 220.137 66.83Z" fill="#263238"/>
<path d="M290.832 84.9738C291.196 84.7679 305.558 78.842 306.674 94.1258C307.789 109.41 292.368 107.328 292.266 106.893C292.164 106.458 290.832 84.9738 290.832 84.9738Z" fill="#FFBF9D"/>
<path d="M296.478 100.772C296.546 100.772 296.751 100.933 297.217 101.104C297.866 101.33 298.576 101.293 299.198 101.001C300.757 100.292 301.918 97.6379 301.792 94.8809C301.74 93.5695 301.393 92.2869 300.78 91.1286C300.602 90.6633 300.314 90.2484 299.941 89.9196C299.569 89.5908 299.122 89.3579 298.64 89.241C298.332 89.1797 298.012 89.2299 297.737 89.3827C297.462 89.5355 297.25 89.7811 297.138 90.0761C296.956 90.5222 297.081 90.8197 297.001 90.854C296.921 90.8883 296.66 90.6138 296.728 89.9846C296.788 89.5978 296.976 89.2428 297.263 88.9778C297.658 88.6315 298.173 88.4548 298.697 88.4859C299.329 88.561 299.931 88.7997 300.443 89.1787C300.956 89.5577 301.362 90.064 301.622 90.6481C302.369 91.9203 302.791 93.3588 302.851 94.8351C302.976 97.9125 301.622 100.91 299.437 101.699C299.039 101.85 298.612 101.908 298.189 101.871C297.765 101.833 297.355 101.7 296.99 101.482C296.535 101.139 296.432 100.795 296.478 100.772Z" fill="#FF9A6C"/>
<path d="M222.424 43.664C219.886 42.4513 226.749 33.9743 232.667 30.8283C241.532 26.0807 255.302 22.6144 263.872 24.4676C274.194 26.7556 282.934 31.2172 288.613 40.1633C294.292 49.1094 296.898 59.7829 297.285 70.3878C297.399 73.6253 297.285 77.0116 295.738 79.8487C293.837 83.3607 289.899 85.7517 290.377 90.3964C290.491 91.235 290.437 92.088 290.218 92.9053C289.999 93.7225 289.62 94.4876 289.103 95.1554C286.508 98.3128 282.934 95.7388 281.193 93.039C277.472 87.319 276.641 80.169 275.913 73.3279C275.389 68.4773 274.877 63.5124 275.913 58.7533C276.482 56.1564 277.529 53.674 277.961 51.0542C278.394 48.4344 278.132 45.5172 276.402 43.5038C275.999 43.0815 275.557 42.6985 275.082 42.3598C272.843 40.6323 270.186 39.537 267.385 39.1871C264.584 38.8371 261.741 39.2452 259.149 40.3692C250.784 43.9614 236.479 49.4526 232.473 46.7756C226.726 42.9318 225.224 40.232 225.224 40.232L222.424 43.664Z" fill="#263238"/>
<path d="M206.924 177.604C206.047 178.828 193.609 182.98 188.886 190.885C184.163 198.79 179.497 234.277 179.497 234.277L176.492 257.592C182.41 266.996 190.354 279.454 198.775 288.24L206.924 177.604Z" fill="#455A64"/>
<g opacity="0.3">
<path d="M300.393 211.832C300.728 216.617 301.63 221.344 303.078 225.915C304.706 230.41 307.562 234.643 311.739 236.966C313.48 237.927 315.449 238.567 316.917 239.94C318.385 241.313 319.273 243.532 320.696 245.145C322.475 246.919 324.671 248.214 327.08 248.909C333.859 251.408 341.053 252.573 348.271 252.341C348.498 249.893 348.51 240.901 348.737 238.441L300.393 211.832Z" fill="black"/>
</g>
<path d="M338.688 160.421C338.688 160.421 354.37 165.088 358.968 171.803C363.566 178.519 371.703 204.556 373.376 209.384C375.049 214.212 373.58 225.4 370.451 233.408C367.321 241.416 361.881 248.383 352.492 249.424C343.103 250.465 328.263 245.019 324.917 241.416C321.571 237.812 320.194 229.839 320.194 229.839C324.364 229.104 328.475 228.068 332.497 226.738" fill="#455A64"/>
<path d="M332.497 226.818L332.303 226.898L331.711 227.116C331.188 227.299 330.403 227.562 329.367 227.871C326.374 228.77 323.335 229.504 320.262 230.067L320.388 229.896C320.769 231.861 321.306 233.793 321.992 235.673C322.367 236.739 322.82 237.775 323.347 238.773C323.887 239.84 324.598 240.81 325.452 241.645C326.415 242.476 327.478 243.183 328.616 243.75C329.818 244.384 331.052 244.953 332.314 245.454C335.023 246.543 337.807 247.43 340.645 248.108C343.708 248.864 346.846 249.267 350 249.309C350.821 249.317 351.641 249.279 352.458 249.195C353.282 249.1 354.099 248.955 354.905 248.76C356.558 248.387 358.146 247.766 359.616 246.918C362.678 245.139 365.248 242.618 367.093 239.585C369.045 236.436 370.539 233.023 371.532 229.45C372.342 226.704 372.947 223.901 373.341 221.064C373.765 218.317 373.902 215.534 373.751 212.759C373.661 211.423 373.389 210.107 372.943 208.846C372.511 207.565 372.09 206.295 371.68 205.037L369.233 197.681C367.617 192.899 366.024 188.38 364.43 184.182C363.032 180.275 361.347 176.478 359.389 172.822C358.484 171.268 357.276 169.913 355.838 168.84C354.585 167.838 353.252 166.939 351.855 166.152C349.61 164.865 347.288 163.718 344.901 162.72C342.944 161.908 341.396 161.336 340.349 160.958L339.154 160.535C339.012 160.497 338.875 160.443 338.744 160.375C338.888 160.394 339.029 160.428 339.166 160.478L340.383 160.844C341.453 161.187 343.024 161.725 345.004 162.503C347.41 163.458 349.755 164.562 352.026 165.809C353.448 166.596 354.807 167.495 356.088 168.497C357.569 169.59 358.816 170.971 359.753 172.558C361.755 176.234 363.475 180.059 364.897 183.998C366.524 188.186 368.129 192.716 369.756 197.498C370.565 199.889 371.384 202.348 372.226 204.854C372.647 206.101 373.068 207.37 373.489 208.652C373.957 209.956 374.244 211.319 374.343 212.701C374.505 215.518 374.371 218.344 373.945 221.133C373.542 224 372.93 226.833 372.112 229.61C371.096 233.244 369.563 236.712 367.56 239.906C365.663 243.019 363.017 245.604 359.867 247.422C358.349 248.29 356.711 248.926 355.007 249.309C354.178 249.508 353.339 249.657 352.492 249.756C351.65 249.756 350.808 249.904 349.988 249.87C346.791 249.812 343.611 249.389 340.508 248.612C337.645 247.921 334.837 247.015 332.11 245.9C330.839 245.384 329.597 244.799 328.388 244.15C327.217 243.56 326.124 242.826 325.133 241.965C324.253 241.089 323.522 240.072 322.971 238.956C322.443 237.943 321.99 236.891 321.617 235.81C320.95 233.897 320.428 231.935 320.058 229.942V229.793H320.206C324.212 229.095 327.284 228.306 329.367 227.734L331.734 227.059L332.337 226.887C332.428 226.818 332.497 226.807 332.497 226.818Z" fill="#263238"/>
<path d="M361.279 218.387C361.165 218.387 360.801 216.442 359.492 213.536C357.773 209.759 355.373 206.334 352.413 203.435C350.773 201.866 348.918 200.541 346.905 199.5L345.528 198.882C345.073 198.676 344.595 198.584 344.162 198.436C343.344 198.176 342.501 198 341.647 197.909L341.078 197.829H339.531C338.996 197.821 338.462 197.867 337.937 197.967C337.48 198.059 337.015 198.109 336.549 198.115C336.98 197.936 337.431 197.809 337.892 197.738C338.421 197.587 338.969 197.506 339.519 197.498H340.543H341.101L341.693 197.566C342.575 197.628 343.448 197.781 344.299 198.024C344.777 198.144 345.248 198.289 345.71 198.459L347.144 199.076C349.232 200.113 351.151 201.463 352.834 203.08C355.859 206.018 358.256 209.545 359.879 213.445C360.169 214.108 360.42 214.788 360.63 215.481C360.806 216.002 360.95 216.533 361.063 217.071C361.176 217.502 361.249 217.943 361.279 218.387Z" fill="#263238"/>
<path d="M369.837 204.236C369.191 202.571 368.399 200.967 367.47 199.443C365.112 195.824 361.582 193.136 357.478 191.835C352.664 190.359 347.987 190.817 344.72 191.126L340.817 191.595C340.344 191.681 339.864 191.723 339.383 191.721C339.833 191.544 340.303 191.425 340.783 191.366C341.693 191.183 343.059 190.943 344.675 190.714C348.988 189.956 353.414 190.143 357.649 191.263C359.968 191.964 362.12 193.131 363.976 194.695C365.496 195.993 366.795 197.531 367.823 199.248C368.526 200.375 369.088 201.586 369.496 202.852C369.662 203.298 369.777 203.763 369.837 204.236Z" fill="#263238"/>
<path d="M358.012 187.316C351.877 185.862 345.464 186.115 339.462 188.048C340.249 187.532 341.114 187.146 342.023 186.904C344.176 186.239 346.406 185.854 348.657 185.76C350.909 185.68 353.161 185.888 355.361 186.378C356.286 186.556 357.18 186.872 358.012 187.316Z" fill="#263238"/>
<path d="M332.633 164.356C332.724 164.356 332.497 165.969 332.314 168.554C331.837 175.177 332.406 181.833 333.999 188.277L333.589 188.414C333.122 187.099 332.758 186.023 332.519 185.268C332.371 184.9 332.264 184.516 332.201 184.124C332.432 184.48 332.616 184.864 332.747 185.268C333.054 185.989 333.475 187.041 333.999 188.346L333.589 188.471C332.688 185.306 332.09 182.061 331.802 178.782C331.504 175.389 331.535 171.975 331.893 168.589C332.041 167.296 332.212 166.301 332.349 165.534C332.387 165.13 332.483 164.733 332.633 164.356Z" fill="#263238"/>
<path d="M310.452 135.012C310.452 135.012 302.315 135.012 301.291 144.839C300.506 152.39 301.291 159.711 301.291 163.029C301.291 166.346 299.846 178.095 299.846 178.095C299.846 178.095 294.292 183.049 294.383 188.998C294.474 194.946 298.708 196.8 298.708 196.8C297.998 198.643 297.841 200.655 298.258 202.587C298.675 204.519 299.646 206.286 301.052 207.668C301.052 207.668 298.696 213.148 300.631 216.82C301.746 218.646 303.486 220.001 305.525 220.629C305.191 221.352 305.015 222.139 305.009 222.936C305.004 223.733 305.168 224.522 305.492 225.249C305.815 225.977 306.291 226.626 306.885 227.153C307.48 227.681 308.18 228.074 308.939 228.306C311.673 229.157 314.537 229.509 317.394 229.347L323.472 229.232L328.82 232.207C328.82 232.207 337.993 228.191 338.221 222.757L338.46 217.323C338.46 217.323 335.831 208.4 335.615 205.54C335.398 202.68 337.731 195.85 336.32 192.784C334.909 189.718 329.981 187.911 330.448 183.632C330.915 179.354 329.981 176.974 327.865 174.606C325.748 172.238 316.404 167.525 316.404 167.525C316.404 167.525 314.003 160.661 314.003 155.959C314.003 151.257 318.68 136.808 310.452 135.012Z" fill="#FFBF9D"/>
<path d="M315.938 169.309C315.239 169.885 314.475 170.376 313.662 170.774C312.228 171.62 310.248 172.741 307.972 173.954C305.696 175.167 303.715 176.242 302.281 176.986C301.506 177.457 300.682 177.84 299.823 178.13C300.52 177.548 301.284 177.052 302.099 176.654C303.533 175.807 305.514 174.686 307.79 173.474C310.066 172.261 312.046 171.186 313.48 170.442C314.253 169.971 315.078 169.591 315.938 169.309Z" fill="#FF9A6C"/>
<path d="M321.286 187.808C321.286 187.808 321.059 188.071 320.569 188.449C319.89 188.985 319.184 189.485 318.453 189.947C316.05 191.495 313.494 192.791 310.828 193.814C308.161 194.854 305.397 195.62 302.577 196.102C301.439 196.274 300.608 196.377 300.005 196.411C299.689 196.47 299.365 196.47 299.049 196.411C299.049 196.319 300.369 196.136 302.463 195.69C305.224 195.107 307.937 194.311 310.577 193.311C313.211 192.286 315.761 191.054 318.202 189.627C319.199 188.968 320.228 188.361 321.286 187.808Z" fill="#FF9A6C"/>
<path d="M328.274 181.916C328.422 181.974 328.115 183.06 327.136 183.895C326.157 184.731 325.11 184.982 325.076 184.834C325.042 184.685 325.884 184.25 326.738 183.449C327.591 182.649 328.115 181.848 328.274 181.916Z" fill="#FF9A6C"/>
<path d="M324.918 203.996C323.824 204.529 322.681 204.951 321.503 205.254C318.703 206.091 315.852 206.745 312.968 207.21C310.084 207.683 307.172 207.958 304.251 208.034C303.04 208.128 301.823 208.089 300.62 207.92C301.816 207.749 303.02 207.649 304.228 207.622C306.504 207.462 309.52 207.164 312.877 206.627C316.234 206.089 319.227 205.391 321.39 204.842C322.548 204.491 323.726 204.209 324.918 203.996Z" fill="#FF9A6C"/>
<path d="M332.36 202.68C332.533 202.084 332.742 201.5 332.986 200.93C333.437 199.532 333.588 198.054 333.43 196.594C333.248 195.134 332.751 193.733 331.973 192.487C331.604 191.99 331.266 191.47 330.96 190.931C330.96 190.874 331.609 191.297 332.326 192.247C333.246 193.502 333.826 194.975 334.01 196.524C334.193 198.072 333.974 199.641 333.373 201.078C332.906 202.119 332.417 202.68 332.36 202.68Z" fill="#FF9A6C"/>
<path d="M325.373 220.561C324.44 220.906 323.47 221.137 322.482 221.247C320.118 221.622 317.728 221.809 315.335 221.808C312.937 221.803 310.542 221.6 308.177 221.201C307.188 221.089 306.217 220.855 305.286 220.503C306.275 220.521 307.26 220.617 308.234 220.789C310.592 221.057 312.962 221.199 315.335 221.213C317.704 221.208 320.07 221.078 322.425 220.824C323.399 220.657 324.385 220.569 325.373 220.561Z" fill="#FF9A6C"/>
<path d="M310.897 156.073C310.897 156.142 310.522 156.451 309.759 156.725C308.755 157.063 307.69 157.172 306.639 157.045C305.588 156.919 304.578 156.559 303.682 155.993C302.999 155.547 302.68 155.158 302.726 155.101C303.984 155.736 305.325 156.191 306.709 156.451C308.116 156.526 309.526 156.399 310.897 156.073Z" fill="#FF9A6C"/>
<path d="M334.044 203.332C334.147 203.614 334.193 203.913 334.181 204.213C334.181 205.026 334.086 205.836 333.896 206.627C333.68 207.622 333.305 208.777 332.941 210.059C332.5 211.399 332.356 212.821 332.519 214.223C332.713 215.676 333.794 216.843 333.965 218.318C334.081 219.566 333.763 220.815 333.066 221.853C332.642 222.542 332.15 223.186 331.598 223.775C331.211 224.199 330.972 224.405 330.938 224.382C330.903 224.359 331.723 223.375 332.702 221.647C333.29 220.673 333.542 219.531 333.419 218.399C333.282 217.152 332.189 215.985 331.928 214.326C331.754 212.836 331.922 211.325 332.417 209.91C332.815 208.617 333.225 207.485 333.487 206.478C333.749 205.445 333.936 204.393 334.044 203.332Z" fill="#FF9A6C"/>
<path d="M337.106 210.516C337.292 210.852 337.422 211.215 337.493 211.592C337.698 212.29 337.971 213.319 338.222 214.6C338.531 216.108 338.713 217.638 338.768 219.176C338.866 221.1 338.515 223.019 337.744 224.782C336.848 226.47 335.661 227.984 334.238 229.255C333.107 230.292 331.901 231.244 330.631 232.104C329.55 232.847 328.639 233.396 328.002 233.751C327.688 233.964 327.348 234.133 326.989 234.254C326.932 234.174 328.298 233.305 330.403 231.76C331.624 230.867 332.787 229.897 333.886 228.855C335.238 227.611 336.37 226.145 337.232 224.519C337.961 222.836 338.307 221.011 338.244 219.176C338.218 217.662 338.081 216.152 337.835 214.658C337.391 212.107 337.015 210.539 337.106 210.516Z" fill="#263238"/>
<path d="M251.24 172.433C250.766 172.153 250.324 171.823 249.919 171.449L246.505 168.577L244.138 166.575C243.734 166.195 243.282 165.868 242.795 165.603C242.559 165.481 242.298 165.418 242.033 165.418C241.768 165.418 241.506 165.481 241.27 165.603C240.291 166.118 239.631 167.376 238.801 168.429C237.97 169.481 237.15 170.717 236.285 171.861C234.92 173.714 233.588 175.487 232.371 177.134L231.631 178.118L231.87 176.906C232.522 173.503 233.471 170.165 234.704 166.93C235.159 165.786 235.569 164.802 235.842 164.173C235.97 163.835 236.142 163.516 236.354 163.223C236.276 163.572 236.165 163.913 236.024 164.242C235.785 164.894 235.432 165.843 235.022 167.056C233.909 170.308 233.038 173.638 232.416 177.02L231.904 176.791L235.808 171.506L238.323 168.074L239.529 166.461C239.912 165.888 240.427 165.417 241.031 165.088C241.347 164.949 241.691 164.883 242.036 164.897C242.381 164.911 242.719 165.004 243.023 165.168C243.54 165.461 244.018 165.818 244.445 166.232L246.721 168.291L250.045 171.3C250.472 171.645 250.872 172.024 251.24 172.433Z" fill="#263238"/>
<path d="M299.288 162.766C299.156 162.916 299.007 163.051 298.844 163.166L297.501 164.219L292.482 168.005L275.742 180.395L275.491 180.578L275.321 180.315C275.184 180.109 275.047 179.88 274.9 179.663L266.501 166.324L266.808 166.427C263.572 167.719 260.45 169.284 257.476 171.106C256.406 171.758 255.575 172.25 255.006 172.673C254.73 172.882 254.432 173.063 254.119 173.211C254.36 172.958 254.627 172.732 254.915 172.536C255.462 172.135 256.27 171.552 257.328 170.854C260.264 168.933 263.373 167.294 266.614 165.958L266.808 165.878L266.922 166.049C269.391 169.904 272.293 174.469 275.4 179.342C275.548 179.56 275.685 179.789 275.821 179.994L275.389 179.914L292.244 167.674L297.365 164.024L298.776 163.063C299.106 162.846 299.277 162.743 299.288 162.766Z" fill="#263238"/>
<path d="M197.148 208.263C197.2 208.526 197.223 208.795 197.216 209.063C197.216 209.658 197.216 210.425 197.273 211.351C197.273 213.422 197.375 216.316 197.432 219.863C197.569 227.047 197.853 237.023 198.229 247.948C198.604 258.873 198.821 268.849 198.843 276.045C198.843 279.648 198.843 282.554 198.843 284.567C198.843 285.517 198.843 286.295 198.787 286.855C198.799 287.128 198.78 287.4 198.73 287.668C198.713 287.397 198.713 287.126 198.73 286.855C198.73 286.272 198.73 285.494 198.661 284.567C198.661 282.485 198.57 279.591 198.502 276.056C198.377 268.86 198.081 258.896 197.717 247.959C197.353 237.023 197.125 227.059 197.102 219.863C197.102 216.271 197.102 213.353 197.102 211.351C197.102 210.391 197.102 209.624 197.102 209.063C197.1 208.796 197.116 208.528 197.148 208.263Z" fill="#263238"/>
<path d="M251.615 311.589C251.577 311.486 251.554 311.378 251.547 311.269C251.547 311.017 251.547 310.696 251.445 310.296C251.353 309.392 251.228 308.145 251.08 306.555C250.762 303.306 250.398 298.547 250.033 292.77C249.669 286.993 249.362 279.992 249.168 272.281C248.975 264.57 248.952 256.07 249.168 247.113C249.385 238.155 249.783 229.724 250.306 222.025C250.83 214.326 251.445 207.393 252.059 201.593C252.674 195.793 253.197 191.091 253.698 187.865C253.925 186.275 254.096 185.04 254.221 184.147C254.29 183.747 254.335 183.426 254.381 183.175C254.386 183.065 254.409 182.957 254.449 182.854C254.467 182.964 254.467 183.076 254.449 183.186C254.449 183.438 254.392 183.758 254.358 184.159C254.256 185.051 254.119 186.298 253.937 187.888C253.55 191.137 253.049 195.827 252.492 201.616C251.934 207.405 251.353 214.349 250.864 222.048C250.375 229.747 249.999 238.224 249.794 247.124C249.589 256.025 249.646 264.502 249.794 272.212C249.942 279.923 250.227 286.856 250.545 292.679C250.864 298.501 251.149 303.226 251.399 306.475C251.501 308.065 251.592 309.324 251.649 310.227C251.649 310.628 251.649 310.948 251.706 311.2C251.687 311.332 251.656 311.462 251.615 311.589Z" fill="#263238"/>
<path d="M217.701 124.339L216.495 125.14L212.944 127.428C211.374 128.446 209.53 129.899 207.368 131.5C206.23 132.324 205.183 133.319 203.953 134.326L202.098 135.893C201.461 136.442 200.858 137.037 200.209 137.666C193.915 143.569 188.386 150.245 183.753 157.538L181.727 160.809C181.01 161.896 180.464 163.097 179.804 164.241C179.144 165.385 178.495 166.621 177.903 167.879C177.312 169.138 176.765 170.431 176.151 171.735C175.866 172.387 175.548 173.027 175.275 173.702C175.001 174.377 174.762 175.064 174.501 175.762C173.988 177.134 173.442 178.519 172.941 179.949C172.099 182.843 171.03 185.772 170.392 188.895C167.148 202.408 166.606 216.434 168.799 230.159C171.652 247.833 179.015 264.462 190.168 278.422C201.321 292.383 215.884 303.199 232.436 309.815C248.987 316.431 266.963 318.621 284.607 316.171C302.252 313.721 318.964 306.714 333.111 295.836C336.683 293.076 340.081 290.096 343.286 286.913L345.562 284.487C346.336 283.687 347.087 282.874 347.838 282.016L350 279.511C350.683 278.641 351.354 277.772 352.037 276.914C362.332 263.585 369.199 247.912 372.033 231.28C372.699 227.419 373.151 223.523 373.387 219.611C373.501 217.678 373.501 215.767 373.569 213.891C373.637 212.015 373.433 210.104 373.364 208.24C373.364 207.313 373.285 206.375 373.251 205.448C373.216 204.522 373.046 203.618 372.955 202.703C372.727 200.884 372.511 199.076 372.295 197.292C372.078 195.507 371.612 193.768 371.27 192.029C370.985 190.305 370.605 188.598 370.132 186.916L368.721 181.962C368.5 181.149 368.23 180.351 367.913 179.571C367.617 178.782 367.321 177.992 367.037 177.214C366.434 175.67 365.899 174.091 365.25 172.638C364.601 171.186 363.896 169.71 363.224 168.28C358.275 157.937 351.635 148.502 343.581 140.366C337.48 134.271 330.671 128.936 323.301 124.476L318.954 121.971C318.298 121.584 317.622 121.233 316.928 120.918L315.016 120.003L311.602 118.379C310.578 117.852 309.565 117.555 308.711 117.235L304.751 115.702L303.408 115.152L304.774 115.644L308.746 117.132C309.611 117.475 310.623 117.772 311.659 118.276L315.073 119.877L316.997 120.792C317.693 121.099 318.373 121.443 319.034 121.822L323.392 124.316C330.81 128.748 337.662 134.073 343.798 140.172C351.9 148.301 358.586 157.741 363.577 168.097C364.249 169.55 364.931 171.003 365.626 172.49C366.32 173.977 366.764 175.544 367.424 177.066L368.311 179.422C368.628 180.206 368.898 181.008 369.119 181.825C369.597 183.472 370.075 185.119 370.553 186.801C371.047 188.49 371.445 190.205 371.748 191.938C372.09 193.677 372.499 195.37 372.795 197.212C373.091 199.053 373.228 200.827 373.455 202.657C373.558 203.572 373.706 204.487 373.763 205.414C373.82 206.341 373.842 207.279 373.876 208.217C373.945 210.093 374.047 211.981 374.093 213.937C374.138 215.893 374.036 217.769 373.911 219.657C372.748 240.598 365.274 260.688 352.481 277.257L350.41 279.866L348.225 282.394C347.519 283.252 346.757 284.076 345.949 284.876L343.672 287.324C340.448 290.526 337.027 293.522 333.43 296.293C319.214 307.217 302.424 314.252 284.698 316.712C266.973 319.172 248.915 316.973 232.286 310.33C215.657 303.686 201.025 292.825 189.814 278.805C178.604 264.784 171.199 248.084 168.321 230.33C167.166 223.174 166.785 215.913 167.183 208.674C167.47 201.998 168.427 195.367 170.039 188.883C170.677 185.749 171.758 182.82 172.6 179.903C173.112 178.484 173.67 177.089 174.193 175.704C174.455 175.018 174.717 174.332 174.967 173.645C175.218 172.959 175.57 172.33 175.855 171.666C176.458 170.362 176.993 169.081 177.619 167.811C178.245 166.541 178.916 165.363 179.542 164.161C180.168 162.96 180.76 161.77 181.477 160.672L183.525 157.4C188.183 150.097 193.756 143.426 200.107 137.552C200.756 136.946 201.359 136.328 201.996 135.779L203.862 134.211C205.092 133.216 206.139 132.232 207.277 131.409C209.496 129.807 211.317 128.377 212.899 127.37L216.483 125.082C217.257 124.579 217.701 124.339 217.701 124.339Z" fill="#263238"/>
</g>
<defs>
<clipPath id="clip0_655_402">
<rect width="506.355" height="502" fill="white"/>
</clipPath>
</defs>
</svg>
