<svg width="55" height="55" viewBox="0 0 55 55" fill="none" xmlns="http://www.w3.org/2000/svg">
<path d="M27.5865 7.54028C16.2654 7.54028 7.05198 16.4144 7.04798 27.3203C7.04532 30.8079 7.99274 34.2117 9.78911 37.2097L6.875 47.4596L17.7637 44.7092C20.7925 46.2936 24.1603 47.12 27.5785 47.1177H27.5865C38.9076 47.1177 48.121 38.2423 48.125 27.3363C48.1277 22.0536 45.9933 17.081 42.1145 13.3432C38.237 9.60411 33.0807 7.54161 27.5865 7.54028ZM27.5865 43.7764H27.5798C24.5167 43.7764 21.5121 42.9833 18.8907 41.485L18.2653 41.1284L11.8064 42.7598L13.5309 36.6921L13.125 36.0706C11.4204 33.4708 10.5129 30.4292 10.5143 27.3203C10.5183 18.2546 18.1775 10.8815 27.5931 10.8815C32.1519 10.8829 36.4379 12.5954 39.6621 15.7025C42.8862 18.8095 44.66 22.9412 44.6573 27.335C44.6533 36.4006 36.9955 43.7764 27.5852 43.7764H27.5865ZM36.9502 31.4613C36.4366 31.2151 33.9137 30.0189 33.4427 29.8525C32.9729 29.6889 32.631 29.6037 32.289 30.0987C31.9483 30.5937 30.9637 31.7075 30.6656 32.0361C30.3649 32.3661 30.0655 32.406 29.5519 32.1599C29.0382 31.9124 27.3842 31.3908 25.4255 29.7062C23.8993 28.3968 22.8694 26.7787 22.57 26.2824C22.2706 25.7887 22.538 25.5213 22.7948 25.2751C23.025 25.0556 23.3085 24.699 23.5639 24.4102C23.8194 24.1215 23.9046 23.9152 24.0776 23.5852C24.2479 23.2565 24.1627 22.9665 24.0337 22.7203C23.9046 22.4715 22.88 20.039 22.4502 19.0504C22.035 18.087 21.6119 18.216 21.2965 18.2001C20.9971 18.1868 20.6565 18.1828 20.3119 18.1828C19.9725 18.1828 19.415 18.3065 18.944 18.8015C18.4742 19.2965 17.1476 20.4915 17.1476 22.9239C17.1476 25.3576 18.9865 27.7075 19.2433 28.0375C19.5002 28.3662 22.8627 33.3601 28.011 35.5025C29.2352 36.0094 30.1906 36.3142 30.9371 36.543C32.1666 36.9196 33.2856 36.865 34.1692 36.7386C35.1539 36.5963 37.2057 35.5437 37.6315 34.39C38.06 33.2364 38.06 32.2464 37.9323 32.0401C37.8072 31.8339 37.4639 31.7101 36.9502 31.4613Z" fill="#6B6B6B"/>
</svg>
